  0
SECTION
  2
HEADER
  9
$ANGBASE
  50
0.0
  9
$ANGDIR
  70
1
  9
$MEASUREMENT
  70
0
  0
ENDSEC
  0
SECTION
  2
TABLES
  0
TABLE
  2
LTYPE
  70
4
  0
LTYPE
  5
40F
  2
CONTINUOUS
  70
0
  3
Solid line
  72
65
  73
0
  40
0.0
  0
LTYPE
  5
410
  2
DASHDOT
 70
0
  3
Dash Dot ____ _ ____ _
 72
65
 73
4
 40
2.0
 49
1.25
 49
-0.25
 49
0.25
 49
-0.25
  0
LTYPE
  5
411
  2
DASHED
 70
0
  3
Dashed __ __ __ __ __
 72
65
 73
2
 40
0.75
 49
0.5
 49
-0.25
  0
LTYPE
  5
43B
  2
DOTTED
 70
0
  3
Dotted .  .  .  .
 72
65
 73
2
 40
0.2
 49
0.0
 49
-0.2
  0
ENDTAB
  0
TABLE
  2
STYLE
  70
4
  0
STYLE
  2
KICAD
  70
0
  40
0
  41
1
  42
1
  50
0
  71
0
  3
isocp.shx
  0
STYLE
  2
KICADB
  70
0
  40
0
  41
1
  42
1
  50
0
  71
0
  3
isocp.shx
  0
STYLE
  2
KICADI
  70
0
  40
0
  41
1
  42
1
  50
15
  71
0
  3
isocp.shx
  0
STYLE
  2
KICADBI
  70
0
  40
0
  41
1
  42
1
  50
15
  71
0
  3
isocp.shx
  0
ENDTAB
  0
TABLE
  2
LAYER
  70
1
  0
LAYER
  2
BLACK
  70
0
  62
7
  6
CONTINUOUS
  0
ENDTAB
  0
ENDSEC
  0
SECTION
  2
ENTITIES
0
LINE
8
BLACK
6
CONTINUOUS
10
5.74635
20
-4.01076
11
5.71035
21
-4.01076
0
LINE
8
BLACK
6
CONTINUOUS
10
5.71035
20
-4.01076
11
5.71035
21
-3.97476
0
LINE
8
BLACK
6
CONTINUOUS
10
5.71035
20
-3.97476
11
5.74635
21
-3.97476
0
LINE
8
BLACK
6
CONTINUOUS
10
5.74635
20
-3.97476
11
5.74635
21
-4.01076
0
LINE
8
BLACK
6
CONTINUOUS
10
5.56724
20
-3.97663
11
5.52724
21
-3.97663
0
LINE
8
BLACK
6
CONTINUOUS
10
5.52724
20
-3.97663
11
5.52724
21
-3.94163
0
LINE
8
BLACK
6
CONTINUOUS
10
5.52724
20
-3.94163
11
5.56724
21
-3.94163
0
LINE
8
BLACK
6
CONTINUOUS
10
5.56724
20
-3.94163
11
5.56724
21
-3.97663
0
LINE
8
BLACK
6
CONTINUOUS
10
5.64561
20
-3.97589
11
5.59061
21
-3.97589
0
LINE
8
BLACK
6
CONTINUOUS
10
5.59061
20
-3.97589
11
5.59061
21
-3.93089
0
LINE
8
BLACK
6
CONTINUOUS
10
5.59061
20
-3.93089
11
5.64561
21
-3.93089
0
LINE
8
BLACK
6
CONTINUOUS
10
5.64561
20
-3.93089
11
5.64561
21
-3.97589
0
LINE
8
BLACK
6
CONTINUOUS
10
5.78135
20
-3.93076
11
5.74535
21
-3.93076
0
LINE
8
BLACK
6
CONTINUOUS
10
5.74535
20
-3.93076
11
5.74535
21
-3.89476
0
LINE
8
BLACK
6
CONTINUOUS
10
5.74535
20
-3.89476
11
5.78135
21
-3.89476
0
LINE
8
BLACK
6
CONTINUOUS
10
5.78135
20
-3.89476
11
5.78135
21
-3.93076
0
LINE
8
BLACK
6
CONTINUOUS
10
5.71135
20
-3.93076
11
5.67535
21
-3.93076
0
LINE
8
BLACK
6
CONTINUOUS
10
5.67535
20
-3.93076
11
5.67535
21
-3.89476
0
LINE
8
BLACK
6
CONTINUOUS
10
5.67535
20
-3.89476
11
5.71135
21
-3.89476
0
LINE
8
BLACK
6
CONTINUOUS
10
5.71135
20
-3.89476
11
5.71135
21
-3.93076
0
LINE
8
BLACK
6
CONTINUOUS
10
5.56724
20
-3.91663
11
5.52724
21
-3.91663
0
LINE
8
BLACK
6
CONTINUOUS
10
5.52724
20
-3.91663
11
5.52724
21
-3.88163
0
LINE
8
BLACK
6
CONTINUOUS
10
5.52724
20
-3.88163
11
5.56724
21
-3.88163
0
LINE
8
BLACK
6
CONTINUOUS
10
5.56724
20
-3.88163
11
5.56724
21
-3.91663
0
LINE
8
BLACK
6
CONTINUOUS
10
5.64561
20
-3.89589
11
5.59061
21
-3.89589
0
LINE
8
BLACK
6
CONTINUOUS
10
5.59061
20
-3.89589
11
5.59061
21
-3.85089
0
LINE
8
BLACK
6
CONTINUOUS
10
5.59061
20
-3.85089
11
5.64561
21
-3.85089
0
LINE
8
BLACK
6
CONTINUOUS
10
5.64561
20
-3.85089
11
5.64561
21
-3.89589
0
LINE
8
BLACK
6
CONTINUOUS
10
5.74858
20
-3.83835
11
5.66858
21
-3.83835
0
LINE
8
BLACK
6
CONTINUOUS
10
5.66858
20
-3.83835
11
5.66858
21
-3.79835
0
LINE
8
BLACK
6
CONTINUOUS
10
5.66858
20
-3.79835
11
5.74858
21
-3.79835
0
LINE
8
BLACK
6
CONTINUOUS
10
5.74858
20
-3.79835
11
5.74858
21
-3.83835
0
LINE
8
BLACK
6
CONTINUOUS
10
4.74016
20
-3.82283
11
4.70079
21
-3.82283
0
LINE
8
BLACK
6
CONTINUOUS
10
4.70079
20
-3.82283
11
4.70079
21
-3.7874
0
LINE
8
BLACK
6
CONTINUOUS
10
4.70079
20
-3.7874
11
4.74016
21
-3.7874
0
LINE
8
BLACK
6
CONTINUOUS
10
4.74016
20
-3.7874
11
4.74016
21
-3.82283
0
LINE
8
BLACK
6
CONTINUOUS
10
4.67673
20
-3.82228
11
4.60673
21
-3.82228
0
LINE
8
BLACK
6
CONTINUOUS
10
4.60673
20
-3.82228
11
4.60673
21
-3.76228
0
LINE
8
BLACK
6
CONTINUOUS
10
4.60673
20
-3.76228
11
4.67673
21
-3.76228
0
LINE
8
BLACK
6
CONTINUOUS
10
4.67673
20
-3.76228
11
4.67673
21
-3.82228
0
LINE
8
BLACK
6
CONTINUOUS
10
6.00858
20
-3.80035
11
5.92858
21
-3.80035
0
LINE
8
BLACK
6
CONTINUOUS
10
5.92858
20
-3.80035
11
5.92858
21
-3.65635
0
LINE
8
BLACK
6
CONTINUOUS
10
5.92858
20
-3.65635
11
6.00858
21
-3.65635
0
LINE
8
BLACK
6
CONTINUOUS
10
6.00858
20
-3.65635
11
6.00858
21
-3.80035
0
LINE
8
BLACK
6
CONTINUOUS
10
4.74016
20
-3.76378
11
4.70079
21
-3.76378
0
LINE
8
BLACK
6
CONTINUOUS
10
4.70079
20
-3.76378
11
4.70079
21
-3.72835
0
LINE
8
BLACK
6
CONTINUOUS
10
4.70079
20
-3.72835
11
4.74016
21
-3.72835
0
LINE
8
BLACK
6
CONTINUOUS
10
4.74016
20
-3.72835
11
4.74016
21
-3.76378
0
LINE
8
BLACK
6
CONTINUOUS
10
5.74858
20
-3.74835
11
5.66858
21
-3.74835
0
LINE
8
BLACK
6
CONTINUOUS
10
5.66858
20
-3.74835
11
5.66858
21
-3.70835
0
LINE
8
BLACK
6
CONTINUOUS
10
5.66858
20
-3.70835
11
5.74858
21
-3.70835
0
LINE
8
BLACK
6
CONTINUOUS
10
5.74858
20
-3.70835
11
5.74858
21
-3.74835
0
LINE
8
BLACK
6
CONTINUOUS
10
5.64598
20
-3.7286
11
5.60598
21
-3.7286
0
LINE
8
BLACK
6
CONTINUOUS
10
5.60598
20
-3.7286
11
5.60598
21
-3.6936
0
LINE
8
BLACK
6
CONTINUOUS
10
5.60598
20
-3.6936
11
5.64598
21
-3.6936
0
LINE
8
BLACK
6
CONTINUOUS
10
5.64598
20
-3.6936
11
5.64598
21
-3.7286
0
LINE
8
BLACK
6
CONTINUOUS
10
5.12161
20
-3.71402
11
5.05161
21
-3.71402
0
LINE
8
BLACK
6
CONTINUOUS
10
5.05161
20
-3.71402
11
5.05161
21
-3.65402
0
LINE
8
BLACK
6
CONTINUOUS
10
5.05161
20
-3.65402
11
5.12161
21
-3.65402
0
LINE
8
BLACK
6
CONTINUOUS
10
5.12161
20
-3.65402
11
5.12161
21
-3.71402
0
LINE
8
BLACK
6
CONTINUOUS
10
4.67673
20
-3.70228
11
4.60673
21
-3.70228
0
LINE
8
BLACK
6
CONTINUOUS
10
4.60673
20
-3.70228
11
4.60673
21
-3.64228
0
LINE
8
BLACK
6
CONTINUOUS
10
4.60673
20
-3.64228
11
4.67673
21
-3.64228
0
LINE
8
BLACK
6
CONTINUOUS
10
4.67673
20
-3.64228
11
4.67673
21
-3.70228
0
LINE
8
BLACK
6
CONTINUOUS
10
6.06299
20
-3.66929
11
6.03937
21
-3.66929
0
LINE
8
BLACK
6
CONTINUOUS
10
6.03937
20
-3.66929
11
6.03937
21
-3.64567
0
LINE
8
BLACK
6
CONTINUOUS
10
6.03937
20
-3.64567
11
6.06299
21
-3.64567
0
LINE
8
BLACK
6
CONTINUOUS
10
6.06299
20
-3.64567
11
6.06299
21
-3.66929
0
LINE
8
BLACK
6
CONTINUOUS
10
5.64598
20
-3.6686
11
5.60598
21
-3.6686
0
LINE
8
BLACK
6
CONTINUOUS
10
5.60598
20
-3.6686
11
5.60598
21
-3.6336
0
LINE
8
BLACK
6
CONTINUOUS
10
5.60598
20
-3.6336
11
5.64598
21
-3.6336
0
LINE
8
BLACK
6
CONTINUOUS
10
5.64598
20
-3.6336
11
5.64598
21
-3.6686
0
LINE
8
BLACK
6
CONTINUOUS
10
5.74858
20
-3.65835
11
5.66858
21
-3.65835
0
LINE
8
BLACK
6
CONTINUOUS
10
5.66858
20
-3.65835
11
5.66858
21
-3.61835
0
LINE
8
BLACK
6
CONTINUOUS
10
5.66858
20
-3.61835
11
5.74858
21
-3.61835
0
LINE
8
BLACK
6
CONTINUOUS
10
5.74858
20
-3.61835
11
5.74858
21
-3.65835
0
LINE
8
BLACK
6
CONTINUOUS
10
6.48425
20
-3.62992
11
6.36614
21
-3.62992
0
LINE
8
BLACK
6
CONTINUOUS
10
6.36614
20
-3.62992
11
6.36614
21
-3.55118
0
LINE
8
BLACK
6
CONTINUOUS
10
6.36614
20
-3.55118
11
6.48425
21
-3.55118
0
LINE
8
BLACK
6
CONTINUOUS
10
6.48425
20
-3.55118
11
6.48425
21
-3.62992
0
LINE
8
BLACK
6
CONTINUOUS
10
6.06299
20
-3.62992
11
6.03937
21
-3.62992
0
LINE
8
BLACK
6
CONTINUOUS
10
6.03937
20
-3.62992
11
6.03937
21
-3.6063
0
LINE
8
BLACK
6
CONTINUOUS
10
6.03937
20
-3.6063
11
6.06299
21
-3.6063
0
LINE
8
BLACK
6
CONTINUOUS
10
6.06299
20
-3.6063
11
6.06299
21
-3.62992
0
LINE
8
BLACK
6
CONTINUOUS
10
5.12161
20
-3.59402
11
5.05161
21
-3.59402
0
LINE
8
BLACK
6
CONTINUOUS
10
5.05161
20
-3.59402
11
5.05161
21
-3.53402
0
LINE
8
BLACK
6
CONTINUOUS
10
5.05161
20
-3.53402
11
5.12161
21
-3.53402
0
LINE
8
BLACK
6
CONTINUOUS
10
5.12161
20
-3.53402
11
5.12161
21
-3.59402
0
LINE
8
BLACK
6
CONTINUOUS
10
6.18136
20
-3.58299
11
6.14636
21
-3.58299
0
LINE
8
BLACK
6
CONTINUOUS
10
6.14636
20
-3.58299
11
6.14636
21
-3.54299
0
LINE
8
BLACK
6
CONTINUOUS
10
6.14636
20
-3.54299
11
6.18136
21
-3.54299
0
LINE
8
BLACK
6
CONTINUOUS
10
6.18136
20
-3.54299
11
6.18136
21
-3.58299
0
LINE
8
BLACK
6
CONTINUOUS
10
6.12136
20
-3.58299
11
6.08636
21
-3.58299
0
LINE
8
BLACK
6
CONTINUOUS
10
6.08636
20
-3.58299
11
6.08636
21
-3.54299
0
LINE
8
BLACK
6
CONTINUOUS
10
6.08636
20
-3.54299
11
6.12136
21
-3.54299
0
LINE
8
BLACK
6
CONTINUOUS
10
6.12136
20
-3.54299
11
6.12136
21
-3.58299
0
LINE
8
BLACK
6
CONTINUOUS
10
6.06325
20
-3.58299
11
6.02825
21
-3.58299
0
LINE
8
BLACK
6
CONTINUOUS
10
6.02825
20
-3.58299
11
6.02825
21
-3.54299
0
LINE
8
BLACK
6
CONTINUOUS
10
6.02825
20
-3.54299
11
6.06325
21
-3.54299
0
LINE
8
BLACK
6
CONTINUOUS
10
6.06325
20
-3.54299
11
6.06325
21
-3.58299
0
LINE
8
BLACK
6
CONTINUOUS
10
6.00325
20
-3.58299
11
5.96825
21
-3.58299
0
LINE
8
BLACK
6
CONTINUOUS
10
5.96825
20
-3.58299
11
5.96825
21
-3.54299
0
LINE
8
BLACK
6
CONTINUOUS
10
5.96825
20
-3.54299
11
6.00325
21
-3.54299
0
LINE
8
BLACK
6
CONTINUOUS
10
6.00325
20
-3.54299
11
6.00325
21
-3.58299
0
LINE
8
BLACK
6
CONTINUOUS
10
4.76016
20
-3.55931
11
4.72016
21
-3.55931
0
LINE
8
BLACK
6
CONTINUOUS
10
4.72016
20
-3.55931
11
4.72016
21
-3.52431
0
LINE
8
BLACK
6
CONTINUOUS
10
4.72016
20
-3.52431
11
4.76016
21
-3.52431
0
LINE
8
BLACK
6
CONTINUOUS
10
4.76016
20
-3.52431
11
4.76016
21
-3.55931
0
LINE
8
BLACK
6
CONTINUOUS
10
4.83776
20
-3.51767
11
4.80745
21
-3.53517
0
LINE
8
BLACK
6
CONTINUOUS
10
4.80745
20
-3.53517
11
4.78745
21
-3.50052
0
LINE
8
BLACK
6
CONTINUOUS
10
4.78745
20
-3.50052
11
4.81776
21
-3.48302
0
LINE
8
BLACK
6
CONTINUOUS
10
4.81776
20
-3.48302
11
4.83776
21
-3.51767
0
LINE
8
BLACK
6
CONTINUOUS
10
5.02756
20
-3.52559
11
4.98819
21
-3.52559
0
LINE
8
BLACK
6
CONTINUOUS
10
4.98819
20
-3.52559
11
4.98819
21
-3.49016
0
LINE
8
BLACK
6
CONTINUOUS
10
4.98819
20
-3.49016
11
5.02756
21
-3.49016
0
LINE
8
BLACK
6
CONTINUOUS
10
5.02756
20
-3.49016
11
5.02756
21
-3.52559
0
LINE
8
BLACK
6
CONTINUOUS
10
6.02762
20
-3.463
11
6.02935
21
-3.46416
0
LINE
8
BLACK
6
CONTINUOUS
10
6.02935
20
-3.46416
11
6.0305
21
-3.46588
0
LINE
8
BLACK
6
CONTINUOUS
10
6.0305
20
-3.46588
11
6.03091
21
-3.46791
0
LINE
8
BLACK
6
CONTINUOUS
10
6.03091
20
-3.46791
11
6.03091
21
-3.50453
0
LINE
8
BLACK
6
CONTINUOUS
10
6.03091
20
-3.50453
11
6.0305
21
-3.50656
0
LINE
8
BLACK
6
CONTINUOUS
10
6.0305
20
-3.50656
11
6.02935
21
-3.50829
0
LINE
8
BLACK
6
CONTINUOUS
10
6.02935
20
-3.50829
11
6.02762
21
-3.50944
0
LINE
8
BLACK
6
CONTINUOUS
10
6.02762
20
-3.50944
11
6.02559
21
-3.50984
0
LINE
8
BLACK
6
CONTINUOUS
10
6.02559
20
-3.50984
11
6.02356
21
-3.50944
0
LINE
8
BLACK
6
CONTINUOUS
10
6.02356
20
-3.50944
11
6.02183
21
-3.50829
0
LINE
8
BLACK
6
CONTINUOUS
10
6.02183
20
-3.50829
11
6.02068
21
-3.50656
0
LINE
8
BLACK
6
CONTINUOUS
10
6.02068
20
-3.50656
11
6.02028
21
-3.50453
0
LINE
8
BLACK
6
CONTINUOUS
10
6.02028
20
-3.50453
11
6.02028
21
-3.46791
0
LINE
8
BLACK
6
CONTINUOUS
10
6.02028
20
-3.46791
11
6.02068
21
-3.46588
0
LINE
8
BLACK
6
CONTINUOUS
10
6.02068
20
-3.46588
11
6.02183
21
-3.46416
0
LINE
8
BLACK
6
CONTINUOUS
10
6.02183
20
-3.46416
11
6.02356
21
-3.463
0
LINE
8
BLACK
6
CONTINUOUS
10
6.02356
20
-3.463
11
6.02559
21
-3.4626
0
LINE
8
BLACK
6
CONTINUOUS
10
6.02559
20
-3.4626
11
6.02762
21
-3.463
0
LINE
8
BLACK
6
CONTINUOUS
10
6.00794
20
-3.463
11
6.00966
21
-3.46416
0
LINE
8
BLACK
6
CONTINUOUS
10
6.00966
20
-3.46416
11
6.01082
21
-3.46588
0
LINE
8
BLACK
6
CONTINUOUS
10
6.01082
20
-3.46588
11
6.01122
21
-3.46791
0
LINE
8
BLACK
6
CONTINUOUS
10
6.01122
20
-3.46791
11
6.01122
21
-3.50453
0
LINE
8
BLACK
6
CONTINUOUS
10
6.01122
20
-3.50453
11
6.01082
21
-3.50656
0
LINE
8
BLACK
6
CONTINUOUS
10
6.01082
20
-3.50656
11
6.00966
21
-3.50829
0
LINE
8
BLACK
6
CONTINUOUS
10
6.00966
20
-3.50829
11
6.00794
21
-3.50944
0
LINE
8
BLACK
6
CONTINUOUS
10
6.00794
20
-3.50944
11
6.00591
21
-3.50984
0
LINE
8
BLACK
6
CONTINUOUS
10
6.00591
20
-3.50984
11
6.00387
21
-3.50944
0
LINE
8
BLACK
6
CONTINUOUS
10
6.00387
20
-3.50944
11
6.00215
21
-3.50829
0
LINE
8
BLACK
6
CONTINUOUS
10
6.00215
20
-3.50829
11
6.001
21
-3.50656
0
LINE
8
BLACK
6
CONTINUOUS
10
6.001
20
-3.50656
11
6.00059
21
-3.50453
0
LINE
8
BLACK
6
CONTINUOUS
10
6.00059
20
-3.50453
11
6.00059
21
-3.46791
0
LINE
8
BLACK
6
CONTINUOUS
10
6.00059
20
-3.46791
11
6.001
21
-3.46588
0
LINE
8
BLACK
6
CONTINUOUS
10
6.001
20
-3.46588
11
6.00215
21
-3.46416
0
LINE
8
BLACK
6
CONTINUOUS
10
6.00215
20
-3.46416
11
6.00387
21
-3.463
0
LINE
8
BLACK
6
CONTINUOUS
10
6.00387
20
-3.463
11
6.00591
21
-3.4626
0
LINE
8
BLACK
6
CONTINUOUS
10
6.00591
20
-3.4626
11
6.00794
21
-3.463
0
LINE
8
BLACK
6
CONTINUOUS
10
5.98825
20
-3.463
11
5.98998
21
-3.46416
0
LINE
8
BLACK
6
CONTINUOUS
10
5.98998
20
-3.46416
11
5.99113
21
-3.46588
0
LINE
8
BLACK
6
CONTINUOUS
10
5.99113
20
-3.46588
11
5.99154
21
-3.46791
0
LINE
8
BLACK
6
CONTINUOUS
10
5.99154
20
-3.46791
11
5.99154
21
-3.50453
0
LINE
8
BLACK
6
CONTINUOUS
10
5.99154
20
-3.50453
11
5.99113
21
-3.50656
0
LINE
8
BLACK
6
CONTINUOUS
10
5.99113
20
-3.50656
11
5.98998
21
-3.50829
0
LINE
8
BLACK
6
CONTINUOUS
10
5.98998
20
-3.50829
11
5.98825
21
-3.50944
0
LINE
8
BLACK
6
CONTINUOUS
10
5.98825
20
-3.50944
11
5.98622
21
-3.50984
0
LINE
8
BLACK
6
CONTINUOUS
10
5.98622
20
-3.50984
11
5.98419
21
-3.50944
0
LINE
8
BLACK
6
CONTINUOUS
10
5.98419
20
-3.50944
11
5.98246
21
-3.50829
0
LINE
8
BLACK
6
CONTINUOUS
10
5.98246
20
-3.50829
11
5.98131
21
-3.50656
0
LINE
8
BLACK
6
CONTINUOUS
10
5.98131
20
-3.50656
11
5.98091
21
-3.50453
0
LINE
8
BLACK
6
CONTINUOUS
10
5.98091
20
-3.50453
11
5.98091
21
-3.46791
0
LINE
8
BLACK
6
CONTINUOUS
10
5.98091
20
-3.46791
11
5.98131
21
-3.46588
0
LINE
8
BLACK
6
CONTINUOUS
10
5.98131
20
-3.46588
11
5.98246
21
-3.46416
0
LINE
8
BLACK
6
CONTINUOUS
10
5.98246
20
-3.46416
11
5.98419
21
-3.463
0
LINE
8
BLACK
6
CONTINUOUS
10
5.98419
20
-3.463
11
5.98622
21
-3.4626
0
LINE
8
BLACK
6
CONTINUOUS
10
5.98622
20
-3.4626
11
5.98825
21
-3.463
0
LINE
8
BLACK
6
CONTINUOUS
10
5.96857
20
-3.463
11
5.97029
21
-3.46416
0
LINE
8
BLACK
6
CONTINUOUS
10
5.97029
20
-3.46416
11
5.97145
21
-3.46588
0
LINE
8
BLACK
6
CONTINUOUS
10
5.97145
20
-3.46588
11
5.97185
21
-3.46791
0
LINE
8
BLACK
6
CONTINUOUS
10
5.97185
20
-3.46791
11
5.97185
21
-3.50453
0
LINE
8
BLACK
6
CONTINUOUS
10
5.97185
20
-3.50453
11
5.97145
21
-3.50656
0
LINE
8
BLACK
6
CONTINUOUS
10
5.97145
20
-3.50656
11
5.97029
21
-3.50829
0
LINE
8
BLACK
6
CONTINUOUS
10
5.97029
20
-3.50829
11
5.96857
21
-3.50944
0
LINE
8
BLACK
6
CONTINUOUS
10
5.96857
20
-3.50944
11
5.96654
21
-3.50984
0
LINE
8
BLACK
6
CONTINUOUS
10
5.96654
20
-3.50984
11
5.9645
21
-3.50944
0
LINE
8
BLACK
6
CONTINUOUS
10
5.9645
20
-3.50944
11
5.96278
21
-3.50829
0
LINE
8
BLACK
6
CONTINUOUS
10
5.96278
20
-3.50829
11
5.96163
21
-3.50656
0
LINE
8
BLACK
6
CONTINUOUS
10
5.96163
20
-3.50656
11
5.96122
21
-3.50453
0
LINE
8
BLACK
6
CONTINUOUS
10
5.96122
20
-3.50453
11
5.96122
21
-3.46791
0
LINE
8
BLACK
6
CONTINUOUS
10
5.96122
20
-3.46791
11
5.96163
21
-3.46588
0
LINE
8
BLACK
6
CONTINUOUS
10
5.96163
20
-3.46588
11
5.96278
21
-3.46416
0
LINE
8
BLACK
6
CONTINUOUS
10
5.96278
20
-3.46416
11
5.9645
21
-3.463
0
LINE
8
BLACK
6
CONTINUOUS
10
5.9645
20
-3.463
11
5.96654
21
-3.4626
0
LINE
8
BLACK
6
CONTINUOUS
10
5.96654
20
-3.4626
11
5.96857
21
-3.463
0
LINE
8
BLACK
6
CONTINUOUS
10
5.94888
20
-3.463
11
5.95061
21
-3.46416
0
LINE
8
BLACK
6
CONTINUOUS
10
5.95061
20
-3.46416
11
5.95176
21
-3.46588
0
LINE
8
BLACK
6
CONTINUOUS
10
5.95176
20
-3.46588
11
5.95217
21
-3.46791
0
LINE
8
BLACK
6
CONTINUOUS
10
5.95217
20
-3.46791
11
5.95217
21
-3.50453
0
LINE
8
BLACK
6
CONTINUOUS
10
5.95217
20
-3.50453
11
5.95176
21
-3.50656
0
LINE
8
BLACK
6
CONTINUOUS
10
5.95176
20
-3.50656
11
5.95061
21
-3.50829
0
LINE
8
BLACK
6
CONTINUOUS
10
5.95061
20
-3.50829
11
5.94888
21
-3.50944
0
LINE
8
BLACK
6
CONTINUOUS
10
5.94888
20
-3.50944
11
5.94685
21
-3.50984
0
LINE
8
BLACK
6
CONTINUOUS
10
5.94685
20
-3.50984
11
5.94482
21
-3.50944
0
LINE
8
BLACK
6
CONTINUOUS
10
5.94482
20
-3.50944
11
5.94309
21
-3.50829
0
LINE
8
BLACK
6
CONTINUOUS
10
5.94309
20
-3.50829
11
5.94194
21
-3.50656
0
LINE
8
BLACK
6
CONTINUOUS
10
5.94194
20
-3.50656
11
5.94154
21
-3.50453
0
LINE
8
BLACK
6
CONTINUOUS
10
5.94154
20
-3.50453
11
5.94154
21
-3.46791
0
LINE
8
BLACK
6
CONTINUOUS
10
5.94154
20
-3.46791
11
5.94194
21
-3.46588
0
LINE
8
BLACK
6
CONTINUOUS
10
5.94194
20
-3.46588
11
5.94309
21
-3.46416
0
LINE
8
BLACK
6
CONTINUOUS
10
5.94309
20
-3.46416
11
5.94482
21
-3.463
0
LINE
8
BLACK
6
CONTINUOUS
10
5.94482
20
-3.463
11
5.94685
21
-3.4626
0
LINE
8
BLACK
6
CONTINUOUS
10
5.94685
20
-3.4626
11
5.94888
21
-3.463
0
LINE
8
BLACK
6
CONTINUOUS
10
5.9292
20
-3.463
11
5.93092
21
-3.46416
0
LINE
8
BLACK
6
CONTINUOUS
10
5.93092
20
-3.46416
11
5.93208
21
-3.46588
0
LINE
8
BLACK
6
CONTINUOUS
10
5.93208
20
-3.46588
11
5.93248
21
-3.46791
0
LINE
8
BLACK
6
CONTINUOUS
10
5.93248
20
-3.46791
11
5.93248
21
-3.50453
0
LINE
8
BLACK
6
CONTINUOUS
10
5.93248
20
-3.50453
11
5.93208
21
-3.50656
0
LINE
8
BLACK
6
CONTINUOUS
10
5.93208
20
-3.50656
11
5.93092
21
-3.50829
0
LINE
8
BLACK
6
CONTINUOUS
10
5.93092
20
-3.50829
11
5.9292
21
-3.50944
0
LINE
8
BLACK
6
CONTINUOUS
10
5.9292
20
-3.50944
11
5.92717
21
-3.50984
0
LINE
8
BLACK
6
CONTINUOUS
10
5.92717
20
-3.50984
11
5.92513
21
-3.50944
0
LINE
8
BLACK
6
CONTINUOUS
10
5.92513
20
-3.50944
11
5.92341
21
-3.50829
0
LINE
8
BLACK
6
CONTINUOUS
10
5.92341
20
-3.50829
11
5.92225
21
-3.50656
0
LINE
8
BLACK
6
CONTINUOUS
10
5.92225
20
-3.50656
11
5.92185
21
-3.50453
0
LINE
8
BLACK
6
CONTINUOUS
10
5.92185
20
-3.50453
11
5.92185
21
-3.46791
0
LINE
8
BLACK
6
CONTINUOUS
10
5.92185
20
-3.46791
11
5.92225
21
-3.46588
0
LINE
8
BLACK
6
CONTINUOUS
10
5.92225
20
-3.46588
11
5.92341
21
-3.46416
0
LINE
8
BLACK
6
CONTINUOUS
10
5.92341
20
-3.46416
11
5.92513
21
-3.463
0
LINE
8
BLACK
6
CONTINUOUS
10
5.92513
20
-3.463
11
5.92717
21
-3.4626
0
LINE
8
BLACK
6
CONTINUOUS
10
5.92717
20
-3.4626
11
5.9292
21
-3.463
0
LINE
8
BLACK
6
CONTINUOUS
10
5.90951
20
-3.463
11
5.91124
21
-3.46416
0
LINE
8
BLACK
6
CONTINUOUS
10
5.91124
20
-3.46416
11
5.91239
21
-3.46588
0
LINE
8
BLACK
6
CONTINUOUS
10
5.91239
20
-3.46588
11
5.9128
21
-3.46791
0
LINE
8
BLACK
6
CONTINUOUS
10
5.9128
20
-3.46791
11
5.9128
21
-3.50453
0
LINE
8
BLACK
6
CONTINUOUS
10
5.9128
20
-3.50453
11
5.91239
21
-3.50656
0
LINE
8
BLACK
6
CONTINUOUS
10
5.91239
20
-3.50656
11
5.91124
21
-3.50829
0
LINE
8
BLACK
6
CONTINUOUS
10
5.91124
20
-3.50829
11
5.90951
21
-3.50944
0
LINE
8
BLACK
6
CONTINUOUS
10
5.90951
20
-3.50944
11
5.90748
21
-3.50984
0
LINE
8
BLACK
6
CONTINUOUS
10
5.90748
20
-3.50984
11
5.90545
21
-3.50944
0
LINE
8
BLACK
6
CONTINUOUS
10
5.90545
20
-3.50944
11
5.90372
21
-3.50829
0
LINE
8
BLACK
6
CONTINUOUS
10
5.90372
20
-3.50829
11
5.90257
21
-3.50656
0
LINE
8
BLACK
6
CONTINUOUS
10
5.90257
20
-3.50656
11
5.90217
21
-3.50453
0
LINE
8
BLACK
6
CONTINUOUS
10
5.90217
20
-3.50453
11
5.90217
21
-3.46791
0
LINE
8
BLACK
6
CONTINUOUS
10
5.90217
20
-3.46791
11
5.90257
21
-3.46588
0
LINE
8
BLACK
6
CONTINUOUS
10
5.90257
20
-3.46588
11
5.90372
21
-3.46416
0
LINE
8
BLACK
6
CONTINUOUS
10
5.90372
20
-3.46416
11
5.90545
21
-3.463
0
LINE
8
BLACK
6
CONTINUOUS
10
5.90545
20
-3.463
11
5.90748
21
-3.4626
0
LINE
8
BLACK
6
CONTINUOUS
10
5.90748
20
-3.4626
11
5.90951
21
-3.463
0
LINE
8
BLACK
6
CONTINUOUS
10
5.88983
20
-3.463
11
5.89155
21
-3.46416
0
LINE
8
BLACK
6
CONTINUOUS
10
5.89155
20
-3.46416
11
5.89271
21
-3.46588
0
LINE
8
BLACK
6
CONTINUOUS
10
5.89271
20
-3.46588
11
5.89311
21
-3.46791
0
LINE
8
BLACK
6
CONTINUOUS
10
5.89311
20
-3.46791
11
5.89311
21
-3.50453
0
LINE
8
BLACK
6
CONTINUOUS
10
5.89311
20
-3.50453
11
5.89271
21
-3.50656
0
LINE
8
BLACK
6
CONTINUOUS
10
5.89271
20
-3.50656
11
5.89155
21
-3.50829
0
LINE
8
BLACK
6
CONTINUOUS
10
5.89155
20
-3.50829
11
5.88983
21
-3.50944
0
LINE
8
BLACK
6
CONTINUOUS
10
5.88983
20
-3.50944
11
5.8878
21
-3.50984
0
LINE
8
BLACK
6
CONTINUOUS
10
5.8878
20
-3.50984
11
5.88576
21
-3.50944
0
LINE
8
BLACK
6
CONTINUOUS
10
5.88576
20
-3.50944
11
5.88404
21
-3.50829
0
LINE
8
BLACK
6
CONTINUOUS
10
5.88404
20
-3.50829
11
5.88288
21
-3.50656
0
LINE
8
BLACK
6
CONTINUOUS
10
5.88288
20
-3.50656
11
5.88248
21
-3.50453
0
LINE
8
BLACK
6
CONTINUOUS
10
5.88248
20
-3.50453
11
5.88248
21
-3.46791
0
LINE
8
BLACK
6
CONTINUOUS
10
5.88248
20
-3.46791
11
5.88288
21
-3.46588
0
LINE
8
BLACK
6
CONTINUOUS
10
5.88288
20
-3.46588
11
5.88404
21
-3.46416
0
LINE
8
BLACK
6
CONTINUOUS
10
5.88404
20
-3.46416
11
5.88576
21
-3.463
0
LINE
8
BLACK
6
CONTINUOUS
10
5.88576
20
-3.463
11
5.8878
21
-3.4626
0
LINE
8
BLACK
6
CONTINUOUS
10
5.8878
20
-3.4626
11
5.88983
21
-3.463
0
LINE
8
BLACK
6
CONTINUOUS
10
5.87014
20
-3.463
11
5.87187
21
-3.46416
0
LINE
8
BLACK
6
CONTINUOUS
10
5.87187
20
-3.46416
11
5.87302
21
-3.46588
0
LINE
8
BLACK
6
CONTINUOUS
10
5.87302
20
-3.46588
11
5.87343
21
-3.46791
0
LINE
8
BLACK
6
CONTINUOUS
10
5.87343
20
-3.46791
11
5.87343
21
-3.50453
0
LINE
8
BLACK
6
CONTINUOUS
10
5.87343
20
-3.50453
11
5.87302
21
-3.50656
0
LINE
8
BLACK
6
CONTINUOUS
10
5.87302
20
-3.50656
11
5.87187
21
-3.50829
0
LINE
8
BLACK
6
CONTINUOUS
10
5.87187
20
-3.50829
11
5.87014
21
-3.50944
0
LINE
8
BLACK
6
CONTINUOUS
10
5.87014
20
-3.50944
11
5.86811
21
-3.50984
0
LINE
8
BLACK
6
CONTINUOUS
10
5.86811
20
-3.50984
11
5.86608
21
-3.50944
0
LINE
8
BLACK
6
CONTINUOUS
10
5.86608
20
-3.50944
11
5.86435
21
-3.50829
0
LINE
8
BLACK
6
CONTINUOUS
10
5.86435
20
-3.50829
11
5.8632
21
-3.50656
0
LINE
8
BLACK
6
CONTINUOUS
10
5.8632
20
-3.50656
11
5.8628
21
-3.50453
0
LINE
8
BLACK
6
CONTINUOUS
10
5.8628
20
-3.50453
11
5.8628
21
-3.46791
0
LINE
8
BLACK
6
CONTINUOUS
10
5.8628
20
-3.46791
11
5.8632
21
-3.46588
0
LINE
8
BLACK
6
CONTINUOUS
10
5.8632
20
-3.46588
11
5.86435
21
-3.46416
0
LINE
8
BLACK
6
CONTINUOUS
10
5.86435
20
-3.46416
11
5.86608
21
-3.463
0
LINE
8
BLACK
6
CONTINUOUS
10
5.86608
20
-3.463
11
5.86811
21
-3.4626
0
LINE
8
BLACK
6
CONTINUOUS
10
5.86811
20
-3.4626
11
5.87014
21
-3.463
0
LINE
8
BLACK
6
CONTINUOUS
10
5.85046
20
-3.463
11
5.85218
21
-3.46416
0
LINE
8
BLACK
6
CONTINUOUS
10
5.85218
20
-3.46416
11
5.85334
21
-3.46588
0
LINE
8
BLACK
6
CONTINUOUS
10
5.85334
20
-3.46588
11
5.85374
21
-3.46791
0
LINE
8
BLACK
6
CONTINUOUS
10
5.85374
20
-3.46791
11
5.85374
21
-3.50453
0
LINE
8
BLACK
6
CONTINUOUS
10
5.85374
20
-3.50453
11
5.85334
21
-3.50656
0
LINE
8
BLACK
6
CONTINUOUS
10
5.85334
20
-3.50656
11
5.85218
21
-3.50829
0
LINE
8
BLACK
6
CONTINUOUS
10
5.85218
20
-3.50829
11
5.85046
21
-3.50944
0
LINE
8
BLACK
6
CONTINUOUS
10
5.85046
20
-3.50944
11
5.84843
21
-3.50984
0
LINE
8
BLACK
6
CONTINUOUS
10
5.84843
20
-3.50984
11
5.84639
21
-3.50944
0
LINE
8
BLACK
6
CONTINUOUS
10
5.84639
20
-3.50944
11
5.84467
21
-3.50829
0
LINE
8
BLACK
6
CONTINUOUS
10
5.84467
20
-3.50829
11
5.84351
21
-3.50656
0
LINE
8
BLACK
6
CONTINUOUS
10
5.84351
20
-3.50656
11
5.84311
21
-3.50453
0
LINE
8
BLACK
6
CONTINUOUS
10
5.84311
20
-3.50453
11
5.84311
21
-3.46791
0
LINE
8
BLACK
6
CONTINUOUS
10
5.84311
20
-3.46791
11
5.84351
21
-3.46588
0
LINE
8
BLACK
6
CONTINUOUS
10
5.84351
20
-3.46588
11
5.84467
21
-3.46416
0
LINE
8
BLACK
6
CONTINUOUS
10
5.84467
20
-3.46416
11
5.84639
21
-3.463
0
LINE
8
BLACK
6
CONTINUOUS
10
5.84639
20
-3.463
11
5.84843
21
-3.4626
0
LINE
8
BLACK
6
CONTINUOUS
10
5.84843
20
-3.4626
11
5.85046
21
-3.463
0
LINE
8
BLACK
6
CONTINUOUS
10
5.83077
20
-3.463
11
5.8325
21
-3.46416
0
LINE
8
BLACK
6
CONTINUOUS
10
5.8325
20
-3.46416
11
5.83365
21
-3.46588
0
LINE
8
BLACK
6
CONTINUOUS
10
5.83365
20
-3.46588
11
5.83406
21
-3.46791
0
LINE
8
BLACK
6
CONTINUOUS
10
5.83406
20
-3.46791
11
5.83406
21
-3.50453
0
LINE
8
BLACK
6
CONTINUOUS
10
5.83406
20
-3.50453
11
5.83365
21
-3.50656
0
LINE
8
BLACK
6
CONTINUOUS
10
5.83365
20
-3.50656
11
5.8325
21
-3.50829
0
LINE
8
BLACK
6
CONTINUOUS
10
5.8325
20
-3.50829
11
5.83077
21
-3.50944
0
LINE
8
BLACK
6
CONTINUOUS
10
5.83077
20
-3.50944
11
5.82874
21
-3.50984
0
LINE
8
BLACK
6
CONTINUOUS
10
5.82874
20
-3.50984
11
5.82671
21
-3.50944
0
LINE
8
BLACK
6
CONTINUOUS
10
5.82671
20
-3.50944
11
5.82498
21
-3.50829
0
LINE
8
BLACK
6
CONTINUOUS
10
5.82498
20
-3.50829
11
5.82383
21
-3.50656
0
LINE
8
BLACK
6
CONTINUOUS
10
5.82383
20
-3.50656
11
5.82343
21
-3.50453
0
LINE
8
BLACK
6
CONTINUOUS
10
5.82343
20
-3.50453
11
5.82343
21
-3.46791
0
LINE
8
BLACK
6
CONTINUOUS
10
5.82343
20
-3.46791
11
5.82383
21
-3.46588
0
LINE
8
BLACK
6
CONTINUOUS
10
5.82383
20
-3.46588
11
5.82498
21
-3.46416
0
LINE
8
BLACK
6
CONTINUOUS
10
5.82498
20
-3.46416
11
5.82671
21
-3.463
0
LINE
8
BLACK
6
CONTINUOUS
10
5.82671
20
-3.463
11
5.82874
21
-3.4626
0
LINE
8
BLACK
6
CONTINUOUS
10
5.82874
20
-3.4626
11
5.83077
21
-3.463
0
LINE
8
BLACK
6
CONTINUOUS
10
5.81109
20
-3.463
11
5.81281
21
-3.46416
0
LINE
8
BLACK
6
CONTINUOUS
10
5.81281
20
-3.46416
11
5.81397
21
-3.46588
0
LINE
8
BLACK
6
CONTINUOUS
10
5.81397
20
-3.46588
11
5.81437
21
-3.46791
0
LINE
8
BLACK
6
CONTINUOUS
10
5.81437
20
-3.46791
11
5.81437
21
-3.50453
0
LINE
8
BLACK
6
CONTINUOUS
10
5.81437
20
-3.50453
11
5.81397
21
-3.50656
0
LINE
8
BLACK
6
CONTINUOUS
10
5.81397
20
-3.50656
11
5.81281
21
-3.50829
0
LINE
8
BLACK
6
CONTINUOUS
10
5.81281
20
-3.50829
11
5.81109
21
-3.50944
0
LINE
8
BLACK
6
CONTINUOUS
10
5.81109
20
-3.50944
11
5.80906
21
-3.50984
0
LINE
8
BLACK
6
CONTINUOUS
10
5.80906
20
-3.50984
11
5.80702
21
-3.50944
0
LINE
8
BLACK
6
CONTINUOUS
10
5.80702
20
-3.50944
11
5.8053
21
-3.50829
0
LINE
8
BLACK
6
CONTINUOUS
10
5.8053
20
-3.50829
11
5.80414
21
-3.50656
0
LINE
8
BLACK
6
CONTINUOUS
10
5.80414
20
-3.50656
11
5.80374
21
-3.50453
0
LINE
8
BLACK
6
CONTINUOUS
10
5.80374
20
-3.50453
11
5.80374
21
-3.46791
0
LINE
8
BLACK
6
CONTINUOUS
10
5.80374
20
-3.46791
11
5.80414
21
-3.46588
0
LINE
8
BLACK
6
CONTINUOUS
10
5.80414
20
-3.46588
11
5.8053
21
-3.46416
0
LINE
8
BLACK
6
CONTINUOUS
10
5.8053
20
-3.46416
11
5.80702
21
-3.463
0
LINE
8
BLACK
6
CONTINUOUS
10
5.80702
20
-3.463
11
5.80906
21
-3.4626
0
LINE
8
BLACK
6
CONTINUOUS
10
5.80906
20
-3.4626
11
5.81109
21
-3.463
0
LINE
8
BLACK
6
CONTINUOUS
10
5.7914
20
-3.463
11
5.79313
21
-3.46416
0
LINE
8
BLACK
6
CONTINUOUS
10
5.79313
20
-3.46416
11
5.79428
21
-3.46588
0
LINE
8
BLACK
6
CONTINUOUS
10
5.79428
20
-3.46588
11
5.79469
21
-3.46791
0
LINE
8
BLACK
6
CONTINUOUS
10
5.79469
20
-3.46791
11
5.79469
21
-3.50453
0
LINE
8
BLACK
6
CONTINUOUS
10
5.79469
20
-3.50453
11
5.79428
21
-3.50656
0
LINE
8
BLACK
6
CONTINUOUS
10
5.79428
20
-3.50656
11
5.79313
21
-3.50829
0
LINE
8
BLACK
6
CONTINUOUS
10
5.79313
20
-3.50829
11
5.7914
21
-3.50944
0
LINE
8
BLACK
6
CONTINUOUS
10
5.7914
20
-3.50944
11
5.78937
21
-3.50984
0
LINE
8
BLACK
6
CONTINUOUS
10
5.78937
20
-3.50984
11
5.78734
21
-3.50944
0
LINE
8
BLACK
6
CONTINUOUS
10
5.78734
20
-3.50944
11
5.78561
21
-3.50829
0
LINE
8
BLACK
6
CONTINUOUS
10
5.78561
20
-3.50829
11
5.78446
21
-3.50656
0
LINE
8
BLACK
6
CONTINUOUS
10
5.78446
20
-3.50656
11
5.78406
21
-3.50453
0
LINE
8
BLACK
6
CONTINUOUS
10
5.78406
20
-3.50453
11
5.78406
21
-3.46791
0
LINE
8
BLACK
6
CONTINUOUS
10
5.78406
20
-3.46791
11
5.78446
21
-3.46588
0
LINE
8
BLACK
6
CONTINUOUS
10
5.78446
20
-3.46588
11
5.78561
21
-3.46416
0
LINE
8
BLACK
6
CONTINUOUS
10
5.78561
20
-3.46416
11
5.78734
21
-3.463
0
LINE
8
BLACK
6
CONTINUOUS
10
5.78734
20
-3.463
11
5.78937
21
-3.4626
0
LINE
8
BLACK
6
CONTINUOUS
10
5.78937
20
-3.4626
11
5.7914
21
-3.463
0
LINE
8
BLACK
6
CONTINUOUS
10
5.77172
20
-3.463
11
5.77344
21
-3.46416
0
LINE
8
BLACK
6
CONTINUOUS
10
5.77344
20
-3.46416
11
5.7746
21
-3.46588
0
LINE
8
BLACK
6
CONTINUOUS
10
5.7746
20
-3.46588
11
5.775
21
-3.46791
0
LINE
8
BLACK
6
CONTINUOUS
10
5.775
20
-3.46791
11
5.775
21
-3.50453
0
LINE
8
BLACK
6
CONTINUOUS
10
5.775
20
-3.50453
11
5.7746
21
-3.50656
0
LINE
8
BLACK
6
CONTINUOUS
10
5.7746
20
-3.50656
11
5.77344
21
-3.50829
0
LINE
8
BLACK
6
CONTINUOUS
10
5.77344
20
-3.50829
11
5.77172
21
-3.50944
0
LINE
8
BLACK
6
CONTINUOUS
10
5.77172
20
-3.50944
11
5.76969
21
-3.50984
0
LINE
8
BLACK
6
CONTINUOUS
10
5.76969
20
-3.50984
11
5.76765
21
-3.50944
0
LINE
8
BLACK
6
CONTINUOUS
10
5.76765
20
-3.50944
11
5.76593
21
-3.50829
0
LINE
8
BLACK
6
CONTINUOUS
10
5.76593
20
-3.50829
11
5.76477
21
-3.50656
0
LINE
8
BLACK
6
CONTINUOUS
10
5.76477
20
-3.50656
11
5.76437
21
-3.50453
0
LINE
8
BLACK
6
CONTINUOUS
10
5.76437
20
-3.50453
11
5.76437
21
-3.46791
0
LINE
8
BLACK
6
CONTINUOUS
10
5.76437
20
-3.46791
11
5.76477
21
-3.46588
0
LINE
8
BLACK
6
CONTINUOUS
10
5.76477
20
-3.46588
11
5.76593
21
-3.46416
0
LINE
8
BLACK
6
CONTINUOUS
10
5.76593
20
-3.46416
11
5.76765
21
-3.463
0
LINE
8
BLACK
6
CONTINUOUS
10
5.76765
20
-3.463
11
5.76969
21
-3.4626
0
LINE
8
BLACK
6
CONTINUOUS
10
5.76969
20
-3.4626
11
5.77172
21
-3.463
0
LINE
8
BLACK
6
CONTINUOUS
10
5.75203
20
-3.463
11
5.75376
21
-3.46416
0
LINE
8
BLACK
6
CONTINUOUS
10
5.75376
20
-3.46416
11
5.75491
21
-3.46588
0
LINE
8
BLACK
6
CONTINUOUS
10
5.75491
20
-3.46588
11
5.75531
21
-3.46791
0
LINE
8
BLACK
6
CONTINUOUS
10
5.75531
20
-3.46791
11
5.75531
21
-3.50453
0
LINE
8
BLACK
6
CONTINUOUS
10
5.75531
20
-3.50453
11
5.75491
21
-3.50656
0
LINE
8
BLACK
6
CONTINUOUS
10
5.75491
20
-3.50656
11
5.75376
21
-3.50829
0
LINE
8
BLACK
6
CONTINUOUS
10
5.75376
20
-3.50829
11
5.75203
21
-3.50944
0
LINE
8
BLACK
6
CONTINUOUS
10
5.75203
20
-3.50944
11
5.75
21
-3.50984
0
LINE
8
BLACK
6
CONTINUOUS
10
5.75
20
-3.50984
11
5.74797
21
-3.50944
0
LINE
8
BLACK
6
CONTINUOUS
10
5.74797
20
-3.50944
11
5.74624
21
-3.50829
0
LINE
8
BLACK
6
CONTINUOUS
10
5.74624
20
-3.50829
11
5.74509
21
-3.50656
0
LINE
8
BLACK
6
CONTINUOUS
10
5.74509
20
-3.50656
11
5.74469
21
-3.50453
0
LINE
8
BLACK
6
CONTINUOUS
10
5.74469
20
-3.50453
11
5.74469
21
-3.46791
0
LINE
8
BLACK
6
CONTINUOUS
10
5.74469
20
-3.46791
11
5.74509
21
-3.46588
0
LINE
8
BLACK
6
CONTINUOUS
10
5.74509
20
-3.46588
11
5.74624
21
-3.46416
0
LINE
8
BLACK
6
CONTINUOUS
10
5.74624
20
-3.46416
11
5.74797
21
-3.463
0
LINE
8
BLACK
6
CONTINUOUS
10
5.74797
20
-3.463
11
5.75
21
-3.4626
0
LINE
8
BLACK
6
CONTINUOUS
10
5.75
20
-3.4626
11
5.75203
21
-3.463
0
LINE
8
BLACK
6
CONTINUOUS
10
5.73235
20
-3.463
11
5.73407
21
-3.46416
0
LINE
8
BLACK
6
CONTINUOUS
10
5.73407
20
-3.46416
11
5.73523
21
-3.46588
0
LINE
8
BLACK
6
CONTINUOUS
10
5.73523
20
-3.46588
11
5.73563
21
-3.46791
0
LINE
8
BLACK
6
CONTINUOUS
10
5.73563
20
-3.46791
11
5.73563
21
-3.50453
0
LINE
8
BLACK
6
CONTINUOUS
10
5.73563
20
-3.50453
11
5.73523
21
-3.50656
0
LINE
8
BLACK
6
CONTINUOUS
10
5.73523
20
-3.50656
11
5.73407
21
-3.50829
0
LINE
8
BLACK
6
CONTINUOUS
10
5.73407
20
-3.50829
11
5.73235
21
-3.50944
0
LINE
8
BLACK
6
CONTINUOUS
10
5.73235
20
-3.50944
11
5.73031
21
-3.50984
0
LINE
8
BLACK
6
CONTINUOUS
10
5.73031
20
-3.50984
11
5.72828
21
-3.50944
0
LINE
8
BLACK
6
CONTINUOUS
10
5.72828
20
-3.50944
11
5.72656
21
-3.50829
0
LINE
8
BLACK
6
CONTINUOUS
10
5.72656
20
-3.50829
11
5.7254
21
-3.50656
0
LINE
8
BLACK
6
CONTINUOUS
10
5.7254
20
-3.50656
11
5.725
21
-3.50453
0
LINE
8
BLACK
6
CONTINUOUS
10
5.725
20
-3.50453
11
5.725
21
-3.46791
0
LINE
8
BLACK
6
CONTINUOUS
10
5.725
20
-3.46791
11
5.7254
21
-3.46588
0
LINE
8
BLACK
6
CONTINUOUS
10
5.7254
20
-3.46588
11
5.72656
21
-3.46416
0
LINE
8
BLACK
6
CONTINUOUS
10
5.72656
20
-3.46416
11
5.72828
21
-3.463
0
LINE
8
BLACK
6
CONTINUOUS
10
5.72828
20
-3.463
11
5.73031
21
-3.4626
0
LINE
8
BLACK
6
CONTINUOUS
10
5.73031
20
-3.4626
11
5.73235
21
-3.463
0
LINE
8
BLACK
6
CONTINUOUS
10
4.88972
20
-3.48766
11
4.85941
21
-3.50516
0
LINE
8
BLACK
6
CONTINUOUS
10
4.85941
20
-3.50516
11
4.83941
21
-3.47052
0
LINE
8
BLACK
6
CONTINUOUS
10
4.83941
20
-3.47052
11
4.86972
21
-3.45302
0
LINE
8
BLACK
6
CONTINUOUS
10
4.86972
20
-3.45302
11
4.88972
21
-3.48766
0
LINE
8
BLACK
6
CONTINUOUS
10
4.76016
20
-3.49931
11
4.72016
21
-3.49931
0
LINE
8
BLACK
6
CONTINUOUS
10
4.72016
20
-3.49931
11
4.72016
21
-3.46431
0
LINE
8
BLACK
6
CONTINUOUS
10
4.72016
20
-3.46431
11
4.76016
21
-3.46431
0
LINE
8
BLACK
6
CONTINUOUS
10
4.76016
20
-3.46431
11
4.76016
21
-3.49931
0
LINE
8
BLACK
6
CONTINUOUS
10
6.31522
20
-3.48457
11
6.28022
21
-3.48457
0
LINE
8
BLACK
6
CONTINUOUS
10
6.28022
20
-3.48457
11
6.28022
21
-3.44457
0
LINE
8
BLACK
6
CONTINUOUS
10
6.28022
20
-3.44457
11
6.31522
21
-3.44457
0
LINE
8
BLACK
6
CONTINUOUS
10
6.31522
20
-3.44457
11
6.31522
21
-3.48457
0
LINE
8
BLACK
6
CONTINUOUS
10
6.25522
20
-3.48457
11
6.22022
21
-3.48457
0
LINE
8
BLACK
6
CONTINUOUS
10
6.22022
20
-3.48457
11
6.22022
21
-3.44457
0
LINE
8
BLACK
6
CONTINUOUS
10
6.22022
20
-3.44457
11
6.25522
21
-3.44457
0
LINE
8
BLACK
6
CONTINUOUS
10
6.25522
20
-3.44457
11
6.25522
21
-3.48457
0
LINE
8
BLACK
6
CONTINUOUS
10
6.19323
20
-3.48451
11
6.15323
21
-3.48451
0
LINE
8
BLACK
6
CONTINUOUS
10
6.15323
20
-3.48451
11
6.15323
21
-3.44951
0
LINE
8
BLACK
6
CONTINUOUS
10
6.15323
20
-3.44951
11
6.19323
21
-3.44951
0
LINE
8
BLACK
6
CONTINUOUS
10
6.19323
20
-3.44951
11
6.19323
21
-3.48451
0
LINE
8
BLACK
6
CONTINUOUS
10
5.02756
20
-3.46654
11
4.98819
21
-3.46654
0
LINE
8
BLACK
6
CONTINUOUS
10
4.98819
20
-3.46654
11
4.98819
21
-3.4311
0
LINE
8
BLACK
6
CONTINUOUS
10
4.98819
20
-3.4311
11
5.02756
21
-3.4311
0
LINE
8
BLACK
6
CONTINUOUS
10
5.02756
20
-3.4311
11
5.02756
21
-3.46654
0
LINE
8
BLACK
6
CONTINUOUS
10
4.82673
20
-3.42375
11
4.80673
21
-3.45839
0
LINE
8
BLACK
6
CONTINUOUS
10
4.80673
20
-3.45839
11
4.77642
21
-3.44089
0
LINE
8
BLACK
6
CONTINUOUS
10
4.77642
20
-3.44089
11
4.79642
21
-3.40625
0
LINE
8
BLACK
6
CONTINUOUS
10
4.79642
20
-3.40625
11
4.82673
21
-3.42375
0
LINE
8
BLACK
6
CONTINUOUS
10
5.59874
20
-3.44514
11
5.55874
21
-3.44514
0
LINE
8
BLACK
6
CONTINUOUS
10
5.55874
20
-3.44514
11
5.55874
21
-3.41014
0
LINE
8
BLACK
6
CONTINUOUS
10
5.55874
20
-3.41014
11
5.59874
21
-3.41014
0
LINE
8
BLACK
6
CONTINUOUS
10
5.59874
20
-3.41014
11
5.59874
21
-3.44514
0
LINE
8
BLACK
6
CONTINUOUS
10
4.77477
20
-3.39375
11
4.75477
21
-3.42839
0
LINE
8
BLACK
6
CONTINUOUS
10
4.75477
20
-3.42839
11
4.72445
21
-3.41089
0
LINE
8
BLACK
6
CONTINUOUS
10
4.72445
20
-3.41089
11
4.74445
21
-3.37625
0
LINE
8
BLACK
6
CONTINUOUS
10
4.74445
20
-3.37625
11
4.77477
21
-3.39375
0
LINE
8
BLACK
6
CONTINUOUS
10
6.19323
20
-3.42451
11
6.15323
21
-3.42451
0
LINE
8
BLACK
6
CONTINUOUS
10
6.15323
20
-3.42451
11
6.15323
21
-3.38951
0
LINE
8
BLACK
6
CONTINUOUS
10
6.15323
20
-3.38951
11
6.19323
21
-3.38951
0
LINE
8
BLACK
6
CONTINUOUS
10
6.19323
20
-3.38951
11
6.19323
21
-3.42451
0
LINE
8
BLACK
6
CONTINUOUS
10
6.3189
20
-3.42126
11
6.27953
21
-3.42126
0
LINE
8
BLACK
6
CONTINUOUS
10
6.27953
20
-3.42126
11
6.27953
21
-3.36614
0
LINE
8
BLACK
6
CONTINUOUS
10
6.27953
20
-3.36614
11
6.3189
21
-3.36614
0
LINE
8
BLACK
6
CONTINUOUS
10
6.3189
20
-3.36614
11
6.3189
21
-3.42126
0
LINE
8
BLACK
6
CONTINUOUS
10
6.25591
20
-3.42126
11
6.21654
21
-3.42126
0
LINE
8
BLACK
6
CONTINUOUS
10
6.21654
20
-3.42126
11
6.21654
21
-3.36614
0
LINE
8
BLACK
6
CONTINUOUS
10
6.21654
20
-3.36614
11
6.25591
21
-3.36614
0
LINE
8
BLACK
6
CONTINUOUS
10
6.25591
20
-3.36614
11
6.25591
21
-3.42126
0
LINE
8
BLACK
6
CONTINUOUS
10
6.12795
20
-3.4128
11
6.08071
21
-3.4128
0
LINE
8
BLACK
6
CONTINUOUS
10
6.08071
20
-3.4128
11
6.08071
21
-3.40217
0
LINE
8
BLACK
6
CONTINUOUS
10
6.08071
20
-3.40217
11
6.12795
21
-3.40217
0
LINE
8
BLACK
6
CONTINUOUS
10
6.12795
20
-3.40217
11
6.12795
21
-3.4128
0
LINE
8
BLACK
6
CONTINUOUS
10
5.67192
20
-3.40257
11
5.67364
21
-3.40372
0
LINE
8
BLACK
6
CONTINUOUS
10
5.67364
20
-3.40372
11
5.67479
21
-3.40545
0
LINE
8
BLACK
6
CONTINUOUS
10
5.67479
20
-3.40545
11
5.6752
21
-3.40748
0
LINE
8
BLACK
6
CONTINUOUS
10
5.6752
20
-3.40748
11
5.67479
21
-3.40951
0
LINE
8
BLACK
6
CONTINUOUS
10
5.67479
20
-3.40951
11
5.67364
21
-3.41124
0
LINE
8
BLACK
6
CONTINUOUS
10
5.67364
20
-3.41124
11
5.67192
21
-3.41239
0
LINE
8
BLACK
6
CONTINUOUS
10
5.67192
20
-3.41239
11
5.66988
21
-3.4128
0
LINE
8
BLACK
6
CONTINUOUS
10
5.66988
20
-3.4128
11
5.63327
21
-3.4128
0
LINE
8
BLACK
6
CONTINUOUS
10
5.63327
20
-3.4128
11
5.63123
21
-3.41239
0
LINE
8
BLACK
6
CONTINUOUS
10
5.63123
20
-3.41239
11
5.62951
21
-3.41124
0
LINE
8
BLACK
6
CONTINUOUS
10
5.62951
20
-3.41124
11
5.62836
21
-3.40951
0
LINE
8
BLACK
6
CONTINUOUS
10
5.62836
20
-3.40951
11
5.62795
21
-3.40748
0
LINE
8
BLACK
6
CONTINUOUS
10
5.62795
20
-3.40748
11
5.62836
21
-3.40545
0
LINE
8
BLACK
6
CONTINUOUS
10
5.62836
20
-3.40545
11
5.62951
21
-3.40372
0
LINE
8
BLACK
6
CONTINUOUS
10
5.62951
20
-3.40372
11
5.63123
21
-3.40257
0
LINE
8
BLACK
6
CONTINUOUS
10
5.63123
20
-3.40257
11
5.63327
21
-3.40217
0
LINE
8
BLACK
6
CONTINUOUS
10
5.63327
20
-3.40217
11
5.66988
21
-3.40217
0
LINE
8
BLACK
6
CONTINUOUS
10
5.66988
20
-3.40217
11
5.67192
21
-3.40257
0
LINE
8
BLACK
6
CONTINUOUS
10
6.48425
20
-3.3937
11
6.36614
21
-3.3937
0
LINE
8
BLACK
6
CONTINUOUS
10
6.36614
20
-3.3937
11
6.36614
21
-3.31496
0
LINE
8
BLACK
6
CONTINUOUS
10
6.36614
20
-3.31496
11
6.48425
21
-3.31496
0
LINE
8
BLACK
6
CONTINUOUS
10
6.48425
20
-3.31496
11
6.48425
21
-3.3937
0
LINE
8
BLACK
6
CONTINUOUS
10
6.12467
20
-3.38288
11
6.1264
21
-3.38404
0
LINE
8
BLACK
6
CONTINUOUS
10
6.1264
20
-3.38404
11
6.12755
21
-3.38576
0
LINE
8
BLACK
6
CONTINUOUS
10
6.12755
20
-3.38576
11
6.12795
21
-3.3878
0
LINE
8
BLACK
6
CONTINUOUS
10
6.12795
20
-3.3878
11
6.12755
21
-3.38983
0
LINE
8
BLACK
6
CONTINUOUS
10
6.12755
20
-3.38983
11
6.1264
21
-3.39155
0
LINE
8
BLACK
6
CONTINUOUS
10
6.1264
20
-3.39155
11
6.12467
21
-3.39271
0
LINE
8
BLACK
6
CONTINUOUS
10
6.12467
20
-3.39271
11
6.12264
21
-3.39311
0
LINE
8
BLACK
6
CONTINUOUS
10
6.12264
20
-3.39311
11
6.08602
21
-3.39311
0
LINE
8
BLACK
6
CONTINUOUS
10
6.08602
20
-3.39311
11
6.08399
21
-3.39271
0
LINE
8
BLACK
6
CONTINUOUS
10
6.08399
20
-3.39271
11
6.08227
21
-3.39155
0
LINE
8
BLACK
6
CONTINUOUS
10
6.08227
20
-3.39155
11
6.08111
21
-3.38983
0
LINE
8
BLACK
6
CONTINUOUS
10
6.08111
20
-3.38983
11
6.08071
21
-3.3878
0
LINE
8
BLACK
6
CONTINUOUS
10
6.08071
20
-3.3878
11
6.08111
21
-3.38576
0
LINE
8
BLACK
6
CONTINUOUS
10
6.08111
20
-3.38576
11
6.08227
21
-3.38404
0
LINE
8
BLACK
6
CONTINUOUS
10
6.08227
20
-3.38404
11
6.08399
21
-3.38288
0
LINE
8
BLACK
6
CONTINUOUS
10
6.08399
20
-3.38288
11
6.08602
21
-3.38248
0
LINE
8
BLACK
6
CONTINUOUS
10
6.08602
20
-3.38248
11
6.12264
21
-3.38248
0
LINE
8
BLACK
6
CONTINUOUS
10
6.12264
20
-3.38248
11
6.12467
21
-3.38288
0
LINE
8
BLACK
6
CONTINUOUS
10
5.67192
20
-3.38288
11
5.67364
21
-3.38404
0
LINE
8
BLACK
6
CONTINUOUS
10
5.67364
20
-3.38404
11
5.67479
21
-3.38576
0
LINE
8
BLACK
6
CONTINUOUS
10
5.67479
20
-3.38576
11
5.6752
21
-3.3878
0
LINE
8
BLACK
6
CONTINUOUS
10
5.6752
20
-3.3878
11
5.67479
21
-3.38983
0
LINE
8
BLACK
6
CONTINUOUS
10
5.67479
20
-3.38983
11
5.67364
21
-3.39155
0
LINE
8
BLACK
6
CONTINUOUS
10
5.67364
20
-3.39155
11
5.67192
21
-3.39271
0
LINE
8
BLACK
6
CONTINUOUS
10
5.67192
20
-3.39271
11
5.66988
21
-3.39311
0
LINE
8
BLACK
6
CONTINUOUS
10
5.66988
20
-3.39311
11
5.63327
21
-3.39311
0
LINE
8
BLACK
6
CONTINUOUS
10
5.63327
20
-3.39311
11
5.63123
21
-3.39271
0
LINE
8
BLACK
6
CONTINUOUS
10
5.63123
20
-3.39271
11
5.62951
21
-3.39155
0
LINE
8
BLACK
6
CONTINUOUS
10
5.62951
20
-3.39155
11
5.62836
21
-3.38983
0
LINE
8
BLACK
6
CONTINUOUS
10
5.62836
20
-3.38983
11
5.62795
21
-3.3878
0
LINE
8
BLACK
6
CONTINUOUS
10
5.62795
20
-3.3878
11
5.62836
21
-3.38576
0
LINE
8
BLACK
6
CONTINUOUS
10
5.62836
20
-3.38576
11
5.62951
21
-3.38404
0
LINE
8
BLACK
6
CONTINUOUS
10
5.62951
20
-3.38404
11
5.63123
21
-3.38288
0
LINE
8
BLACK
6
CONTINUOUS
10
5.63123
20
-3.38288
11
5.63327
21
-3.38248
0
LINE
8
BLACK
6
CONTINUOUS
10
5.63327
20
-3.38248
11
5.66988
21
-3.38248
0
LINE
8
BLACK
6
CONTINUOUS
10
5.66988
20
-3.38248
11
5.67192
21
-3.38288
0
LINE
8
BLACK
6
CONTINUOUS
10
5.59874
20
-3.38514
11
5.55874
21
-3.38514
0
LINE
8
BLACK
6
CONTINUOUS
10
5.55874
20
-3.38514
11
5.55874
21
-3.35014
0
LINE
8
BLACK
6
CONTINUOUS
10
5.55874
20
-3.35014
11
5.59874
21
-3.35014
0
LINE
8
BLACK
6
CONTINUOUS
10
5.59874
20
-3.35014
11
5.59874
21
-3.38514
0
LINE
8
BLACK
6
CONTINUOUS
10
6.12467
20
-3.3632
11
6.1264
21
-3.36435
0
LINE
8
BLACK
6
CONTINUOUS
10
6.1264
20
-3.36435
11
6.12755
21
-3.36608
0
LINE
8
BLACK
6
CONTINUOUS
10
6.12755
20
-3.36608
11
6.12795
21
-3.36811
0
LINE
8
BLACK
6
CONTINUOUS
10
6.12795
20
-3.36811
11
6.12755
21
-3.37014
0
LINE
8
BLACK
6
CONTINUOUS
10
6.12755
20
-3.37014
11
6.1264
21
-3.37187
0
LINE
8
BLACK
6
CONTINUOUS
10
6.1264
20
-3.37187
11
6.12467
21
-3.37302
0
LINE
8
BLACK
6
CONTINUOUS
10
6.12467
20
-3.37302
11
6.12264
21
-3.37343
0
LINE
8
BLACK
6
CONTINUOUS
10
6.12264
20
-3.37343
11
6.08602
21
-3.37343
0
LINE
8
BLACK
6
CONTINUOUS
10
6.08602
20
-3.37343
11
6.08399
21
-3.37302
0
LINE
8
BLACK
6
CONTINUOUS
10
6.08399
20
-3.37302
11
6.08227
21
-3.37187
0
LINE
8
BLACK
6
CONTINUOUS
10
6.08227
20
-3.37187
11
6.08111
21
-3.37014
0
LINE
8
BLACK
6
CONTINUOUS
10
6.08111
20
-3.37014
11
6.08071
21
-3.36811
0
LINE
8
BLACK
6
CONTINUOUS
10
6.08071
20
-3.36811
11
6.08111
21
-3.36608
0
LINE
8
BLACK
6
CONTINUOUS
10
6.08111
20
-3.36608
11
6.08227
21
-3.36435
0
LINE
8
BLACK
6
CONTINUOUS
10
6.08227
20
-3.36435
11
6.08399
21
-3.3632
0
LINE
8
BLACK
6
CONTINUOUS
10
6.08399
20
-3.3632
11
6.08602
21
-3.3628
0
LINE
8
BLACK
6
CONTINUOUS
10
6.08602
20
-3.3628
11
6.12264
21
-3.3628
0
LINE
8
BLACK
6
CONTINUOUS
10
6.12264
20
-3.3628
11
6.12467
21
-3.3632
0
LINE
8
BLACK
6
CONTINUOUS
10
5.67192
20
-3.3632
11
5.67364
21
-3.36435
0
LINE
8
BLACK
6
CONTINUOUS
10
5.67364
20
-3.36435
11
5.67479
21
-3.36608
0
LINE
8
BLACK
6
CONTINUOUS
10
5.67479
20
-3.36608
11
5.6752
21
-3.36811
0
LINE
8
BLACK
6
CONTINUOUS
10
5.6752
20
-3.36811
11
5.67479
21
-3.37014
0
LINE
8
BLACK
6
CONTINUOUS
10
5.67479
20
-3.37014
11
5.67364
21
-3.37187
0
LINE
8
BLACK
6
CONTINUOUS
10
5.67364
20
-3.37187
11
5.67192
21
-3.37302
0
LINE
8
BLACK
6
CONTINUOUS
10
5.67192
20
-3.37302
11
5.66988
21
-3.37343
0
LINE
8
BLACK
6
CONTINUOUS
10
5.66988
20
-3.37343
11
5.63327
21
-3.37343
0
LINE
8
BLACK
6
CONTINUOUS
10
5.63327
20
-3.37343
11
5.63123
21
-3.37302
0
LINE
8
BLACK
6
CONTINUOUS
10
5.63123
20
-3.37302
11
5.62951
21
-3.37187
0
LINE
8
BLACK
6
CONTINUOUS
10
5.62951
20
-3.37187
11
5.62836
21
-3.37014
0
LINE
8
BLACK
6
CONTINUOUS
10
5.62836
20
-3.37014
11
5.62795
21
-3.36811
0
LINE
8
BLACK
6
CONTINUOUS
10
5.62795
20
-3.36811
11
5.62836
21
-3.36608
0
LINE
8
BLACK
6
CONTINUOUS
10
5.62836
20
-3.36608
11
5.62951
21
-3.36435
0
LINE
8
BLACK
6
CONTINUOUS
10
5.62951
20
-3.36435
11
5.63123
21
-3.3632
0
LINE
8
BLACK
6
CONTINUOUS
10
5.63123
20
-3.3632
11
5.63327
21
-3.3628
0
LINE
8
BLACK
6
CONTINUOUS
10
5.63327
20
-3.3628
11
5.66988
21
-3.3628
0
LINE
8
BLACK
6
CONTINUOUS
10
5.66988
20
-3.3628
11
5.67192
21
-3.3632
0
LINE
8
BLACK
6
CONTINUOUS
10
6.12467
20
-3.34351
11
6.1264
21
-3.34467
0
LINE
8
BLACK
6
CONTINUOUS
10
6.1264
20
-3.34467
11
6.12755
21
-3.34639
0
LINE
8
BLACK
6
CONTINUOUS
10
6.12755
20
-3.34639
11
6.12795
21
-3.34843
0
LINE
8
BLACK
6
CONTINUOUS
10
6.12795
20
-3.34843
11
6.12755
21
-3.35046
0
LINE
8
BLACK
6
CONTINUOUS
10
6.12755
20
-3.35046
11
6.1264
21
-3.35218
0
LINE
8
BLACK
6
CONTINUOUS
10
6.1264
20
-3.35218
11
6.12467
21
-3.35334
0
LINE
8
BLACK
6
CONTINUOUS
10
6.12467
20
-3.35334
11
6.12264
21
-3.35374
0
LINE
8
BLACK
6
CONTINUOUS
10
6.12264
20
-3.35374
11
6.08602
21
-3.35374
0
LINE
8
BLACK
6
CONTINUOUS
10
6.08602
20
-3.35374
11
6.08399
21
-3.35334
0
LINE
8
BLACK
6
CONTINUOUS
10
6.08399
20
-3.35334
11
6.08227
21
-3.35218
0
LINE
8
BLACK
6
CONTINUOUS
10
6.08227
20
-3.35218
11
6.08111
21
-3.35046
0
LINE
8
BLACK
6
CONTINUOUS
10
6.08111
20
-3.35046
11
6.08071
21
-3.34843
0
LINE
8
BLACK
6
CONTINUOUS
10
6.08071
20
-3.34843
11
6.08111
21
-3.34639
0
LINE
8
BLACK
6
CONTINUOUS
10
6.08111
20
-3.34639
11
6.08227
21
-3.34467
0
LINE
8
BLACK
6
CONTINUOUS
10
6.08227
20
-3.34467
11
6.08399
21
-3.34351
0
LINE
8
BLACK
6
CONTINUOUS
10
6.08399
20
-3.34351
11
6.08602
21
-3.34311
0
LINE
8
BLACK
6
CONTINUOUS
10
6.08602
20
-3.34311
11
6.12264
21
-3.34311
0
LINE
8
BLACK
6
CONTINUOUS
10
6.12264
20
-3.34311
11
6.12467
21
-3.34351
0
LINE
8
BLACK
6
CONTINUOUS
10
5.67192
20
-3.34351
11
5.67364
21
-3.34467
0
LINE
8
BLACK
6
CONTINUOUS
10
5.67364
20
-3.34467
11
5.67479
21
-3.34639
0
LINE
8
BLACK
6
CONTINUOUS
10
5.67479
20
-3.34639
11
5.6752
21
-3.34843
0
LINE
8
BLACK
6
CONTINUOUS
10
5.6752
20
-3.34843
11
5.67479
21
-3.35046
0
LINE
8
BLACK
6
CONTINUOUS
10
5.67479
20
-3.35046
11
5.67364
21
-3.35218
0
LINE
8
BLACK
6
CONTINUOUS
10
5.67364
20
-3.35218
11
5.67192
21
-3.35334
0
LINE
8
BLACK
6
CONTINUOUS
10
5.67192
20
-3.35334
11
5.66988
21
-3.35374
0
LINE
8
BLACK
6
CONTINUOUS
10
5.66988
20
-3.35374
11
5.63327
21
-3.35374
0
LINE
8
BLACK
6
CONTINUOUS
10
5.63327
20
-3.35374
11
5.63123
21
-3.35334
0
LINE
8
BLACK
6
CONTINUOUS
10
5.63123
20
-3.35334
11
5.62951
21
-3.35218
0
LINE
8
BLACK
6
CONTINUOUS
10
5.62951
20
-3.35218
11
5.62836
21
-3.35046
0
LINE
8
BLACK
6
CONTINUOUS
10
5.62836
20
-3.35046
11
5.62795
21
-3.34843
0
LINE
8
BLACK
6
CONTINUOUS
10
5.62795
20
-3.34843
11
5.62836
21
-3.34639
0
LINE
8
BLACK
6
CONTINUOUS
10
5.62836
20
-3.34639
11
5.62951
21
-3.34467
0
LINE
8
BLACK
6
CONTINUOUS
10
5.62951
20
-3.34467
11
5.63123
21
-3.34351
0
LINE
8
BLACK
6
CONTINUOUS
10
5.63123
20
-3.34351
11
5.63327
21
-3.34311
0
LINE
8
BLACK
6
CONTINUOUS
10
5.63327
20
-3.34311
11
5.66988
21
-3.34311
0
LINE
8
BLACK
6
CONTINUOUS
10
5.66988
20
-3.34311
11
5.67192
21
-3.34351
0
LINE
8
BLACK
6
CONTINUOUS
10
6.3189
20
-3.33465
11
6.27953
21
-3.33465
0
LINE
8
BLACK
6
CONTINUOUS
10
6.27953
20
-3.33465
11
6.27953
21
-3.27953
0
LINE
8
BLACK
6
CONTINUOUS
10
6.27953
20
-3.27953
11
6.3189
21
-3.27953
0
LINE
8
BLACK
6
CONTINUOUS
10
6.3189
20
-3.27953
11
6.3189
21
-3.33465
0
LINE
8
BLACK
6
CONTINUOUS
10
6.25591
20
-3.33465
11
6.21654
21
-3.33465
0
LINE
8
BLACK
6
CONTINUOUS
10
6.21654
20
-3.33465
11
6.21654
21
-3.27953
0
LINE
8
BLACK
6
CONTINUOUS
10
6.21654
20
-3.27953
11
6.25591
21
-3.27953
0
LINE
8
BLACK
6
CONTINUOUS
10
6.25591
20
-3.27953
11
6.25591
21
-3.33465
0
LINE
8
BLACK
6
CONTINUOUS
10
6.12467
20
-3.32383
11
6.1264
21
-3.32498
0
LINE
8
BLACK
6
CONTINUOUS
10
6.1264
20
-3.32498
11
6.12755
21
-3.32671
0
LINE
8
BLACK
6
CONTINUOUS
10
6.12755
20
-3.32671
11
6.12795
21
-3.32874
0
LINE
8
BLACK
6
CONTINUOUS
10
6.12795
20
-3.32874
11
6.12755
21
-3.33077
0
LINE
8
BLACK
6
CONTINUOUS
10
6.12755
20
-3.33077
11
6.1264
21
-3.3325
0
LINE
8
BLACK
6
CONTINUOUS
10
6.1264
20
-3.3325
11
6.12467
21
-3.33365
0
LINE
8
BLACK
6
CONTINUOUS
10
6.12467
20
-3.33365
11
6.12264
21
-3.33406
0
LINE
8
BLACK
6
CONTINUOUS
10
6.12264
20
-3.33406
11
6.08602
21
-3.33406
0
LINE
8
BLACK
6
CONTINUOUS
10
6.08602
20
-3.33406
11
6.08399
21
-3.33365
0
LINE
8
BLACK
6
CONTINUOUS
10
6.08399
20
-3.33365
11
6.08227
21
-3.3325
0
LINE
8
BLACK
6
CONTINUOUS
10
6.08227
20
-3.3325
11
6.08111
21
-3.33077
0
LINE
8
BLACK
6
CONTINUOUS
10
6.08111
20
-3.33077
11
6.08071
21
-3.32874
0
LINE
8
BLACK
6
CONTINUOUS
10
6.08071
20
-3.32874
11
6.08111
21
-3.32671
0
LINE
8
BLACK
6
CONTINUOUS
10
6.08111
20
-3.32671
11
6.08227
21
-3.32498
0
LINE
8
BLACK
6
CONTINUOUS
10
6.08227
20
-3.32498
11
6.08399
21
-3.32383
0
LINE
8
BLACK
6
CONTINUOUS
10
6.08399
20
-3.32383
11
6.08602
21
-3.32343
0
LINE
8
BLACK
6
CONTINUOUS
10
6.08602
20
-3.32343
11
6.12264
21
-3.32343
0
LINE
8
BLACK
6
CONTINUOUS
10
6.12264
20
-3.32343
11
6.12467
21
-3.32383
0
LINE
8
BLACK
6
CONTINUOUS
10
5.67192
20
-3.32383
11
5.67364
21
-3.32498
0
LINE
8
BLACK
6
CONTINUOUS
10
5.67364
20
-3.32498
11
5.67479
21
-3.32671
0
LINE
8
BLACK
6
CONTINUOUS
10
5.67479
20
-3.32671
11
5.6752
21
-3.32874
0
LINE
8
BLACK
6
CONTINUOUS
10
5.6752
20
-3.32874
11
5.67479
21
-3.33077
0
LINE
8
BLACK
6
CONTINUOUS
10
5.67479
20
-3.33077
11
5.67364
21
-3.3325
0
LINE
8
BLACK
6
CONTINUOUS
10
5.67364
20
-3.3325
11
5.67192
21
-3.33365
0
LINE
8
BLACK
6
CONTINUOUS
10
5.67192
20
-3.33365
11
5.66988
21
-3.33406
0
LINE
8
BLACK
6
CONTINUOUS
10
5.66988
20
-3.33406
11
5.63327
21
-3.33406
0
LINE
8
BLACK
6
CONTINUOUS
10
5.63327
20
-3.33406
11
5.63123
21
-3.33365
0
LINE
8
BLACK
6
CONTINUOUS
10
5.63123
20
-3.33365
11
5.62951
21
-3.3325
0
LINE
8
BLACK
6
CONTINUOUS
10
5.62951
20
-3.3325
11
5.62836
21
-3.33077
0
LINE
8
BLACK
6
CONTINUOUS
10
5.62836
20
-3.33077
11
5.62795
21
-3.32874
0
LINE
8
BLACK
6
CONTINUOUS
10
5.62795
20
-3.32874
11
5.62836
21
-3.32671
0
LINE
8
BLACK
6
CONTINUOUS
10
5.62836
20
-3.32671
11
5.62951
21
-3.32498
0
LINE
8
BLACK
6
CONTINUOUS
10
5.62951
20
-3.32498
11
5.63123
21
-3.32383
0
LINE
8
BLACK
6
CONTINUOUS
10
5.63123
20
-3.32383
11
5.63327
21
-3.32343
0
LINE
8
BLACK
6
CONTINUOUS
10
5.63327
20
-3.32343
11
5.66988
21
-3.32343
0
LINE
8
BLACK
6
CONTINUOUS
10
5.66988
20
-3.32343
11
5.67192
21
-3.32383
0
LINE
8
BLACK
6
CONTINUOUS
10
6.12467
20
-3.30414
11
6.1264
21
-3.3053
0
LINE
8
BLACK
6
CONTINUOUS
10
6.1264
20
-3.3053
11
6.12755
21
-3.30702
0
LINE
8
BLACK
6
CONTINUOUS
10
6.12755
20
-3.30702
11
6.12795
21
-3.30906
0
LINE
8
BLACK
6
CONTINUOUS
10
6.12795
20
-3.30906
11
6.12755
21
-3.31109
0
LINE
8
BLACK
6
CONTINUOUS
10
6.12755
20
-3.31109
11
6.1264
21
-3.31281
0
LINE
8
BLACK
6
CONTINUOUS
10
6.1264
20
-3.31281
11
6.12467
21
-3.31397
0
LINE
8
BLACK
6
CONTINUOUS
10
6.12467
20
-3.31397
11
6.12264
21
-3.31437
0
LINE
8
BLACK
6
CONTINUOUS
10
6.12264
20
-3.31437
11
6.08602
21
-3.31437
0
LINE
8
BLACK
6
CONTINUOUS
10
6.08602
20
-3.31437
11
6.08399
21
-3.31397
0
LINE
8
BLACK
6
CONTINUOUS
10
6.08399
20
-3.31397
11
6.08227
21
-3.31281
0
LINE
8
BLACK
6
CONTINUOUS
10
6.08227
20
-3.31281
11
6.08111
21
-3.31109
0
LINE
8
BLACK
6
CONTINUOUS
10
6.08111
20
-3.31109
11
6.08071
21
-3.30906
0
LINE
8
BLACK
6
CONTINUOUS
10
6.08071
20
-3.30906
11
6.08111
21
-3.30702
0
LINE
8
BLACK
6
CONTINUOUS
10
6.08111
20
-3.30702
11
6.08227
21
-3.3053
0
LINE
8
BLACK
6
CONTINUOUS
10
6.08227
20
-3.3053
11
6.08399
21
-3.30414
0
LINE
8
BLACK
6
CONTINUOUS
10
6.08399
20
-3.30414
11
6.08602
21
-3.30374
0
LINE
8
BLACK
6
CONTINUOUS
10
6.08602
20
-3.30374
11
6.12264
21
-3.30374
0
LINE
8
BLACK
6
CONTINUOUS
10
6.12264
20
-3.30374
11
6.12467
21
-3.30414
0
LINE
8
BLACK
6
CONTINUOUS
10
5.67192
20
-3.30414
11
5.67364
21
-3.3053
0
LINE
8
BLACK
6
CONTINUOUS
10
5.67364
20
-3.3053
11
5.67479
21
-3.30702
0
LINE
8
BLACK
6
CONTINUOUS
10
5.67479
20
-3.30702
11
5.6752
21
-3.30906
0
LINE
8
BLACK
6
CONTINUOUS
10
5.6752
20
-3.30906
11
5.67479
21
-3.31109
0
LINE
8
BLACK
6
CONTINUOUS
10
5.67479
20
-3.31109
11
5.67364
21
-3.31281
0
LINE
8
BLACK
6
CONTINUOUS
10
5.67364
20
-3.31281
11
5.67192
21
-3.31397
0
LINE
8
BLACK
6
CONTINUOUS
10
5.67192
20
-3.31397
11
5.66988
21
-3.31437
0
LINE
8
BLACK
6
CONTINUOUS
10
5.66988
20
-3.31437
11
5.63327
21
-3.31437
0
LINE
8
BLACK
6
CONTINUOUS
10
5.63327
20
-3.31437
11
5.63123
21
-3.31397
0
LINE
8
BLACK
6
CONTINUOUS
10
5.63123
20
-3.31397
11
5.62951
21
-3.31281
0
LINE
8
BLACK
6
CONTINUOUS
10
5.62951
20
-3.31281
11
5.62836
21
-3.31109
0
LINE
8
BLACK
6
CONTINUOUS
10
5.62836
20
-3.31109
11
5.62795
21
-3.30906
0
LINE
8
BLACK
6
CONTINUOUS
10
5.62795
20
-3.30906
11
5.62836
21
-3.30702
0
LINE
8
BLACK
6
CONTINUOUS
10
5.62836
20
-3.30702
11
5.62951
21
-3.3053
0
LINE
8
BLACK
6
CONTINUOUS
10
5.62951
20
-3.3053
11
5.63123
21
-3.30414
0
LINE
8
BLACK
6
CONTINUOUS
10
5.63123
20
-3.30414
11
5.63327
21
-3.30374
0
LINE
8
BLACK
6
CONTINUOUS
10
5.63327
20
-3.30374
11
5.66988
21
-3.30374
0
LINE
8
BLACK
6
CONTINUOUS
10
5.66988
20
-3.30374
11
5.67192
21
-3.30414
0
LINE
8
BLACK
6
CONTINUOUS
10
6.19291
20
-3.31102
11
6.15354
21
-3.31102
0
LINE
8
BLACK
6
CONTINUOUS
10
6.15354
20
-3.31102
11
6.15354
21
-3.27559
0
LINE
8
BLACK
6
CONTINUOUS
10
6.15354
20
-3.27559
11
6.19291
21
-3.27559
0
LINE
8
BLACK
6
CONTINUOUS
10
6.19291
20
-3.27559
11
6.19291
21
-3.31102
0
LINE
8
BLACK
6
CONTINUOUS
10
4.69488
20
-3.30906
11
4.65945
21
-3.30906
0
LINE
8
BLACK
6
CONTINUOUS
10
4.65945
20
-3.30906
11
4.65945
21
-3.26969
0
LINE
8
BLACK
6
CONTINUOUS
10
4.65945
20
-3.26969
11
4.69488
21
-3.26969
0
LINE
8
BLACK
6
CONTINUOUS
10
4.69488
20
-3.26969
11
4.69488
21
-3.30906
0
LINE
8
BLACK
6
CONTINUOUS
10
4.63583
20
-3.30906
11
4.60039
21
-3.30906
0
LINE
8
BLACK
6
CONTINUOUS
10
4.60039
20
-3.30906
11
4.60039
21
-3.26969
0
LINE
8
BLACK
6
CONTINUOUS
10
4.60039
20
-3.26969
11
4.63583
21
-3.26969
0
LINE
8
BLACK
6
CONTINUOUS
10
4.63583
20
-3.26969
11
4.63583
21
-3.30906
0
LINE
8
BLACK
6
CONTINUOUS
10
6.12467
20
-3.28446
11
6.1264
21
-3.28561
0
LINE
8
BLACK
6
CONTINUOUS
10
6.1264
20
-3.28561
11
6.12755
21
-3.28734
0
LINE
8
BLACK
6
CONTINUOUS
10
6.12755
20
-3.28734
11
6.12795
21
-3.28937
0
LINE
8
BLACK
6
CONTINUOUS
10
6.12795
20
-3.28937
11
6.12755
21
-3.2914
0
LINE
8
BLACK
6
CONTINUOUS
10
6.12755
20
-3.2914
11
6.1264
21
-3.29313
0
LINE
8
BLACK
6
CONTINUOUS
10
6.1264
20
-3.29313
11
6.12467
21
-3.29428
0
LINE
8
BLACK
6
CONTINUOUS
10
6.12467
20
-3.29428
11
6.12264
21
-3.29469
0
LINE
8
BLACK
6
CONTINUOUS
10
6.12264
20
-3.29469
11
6.08602
21
-3.29469
0
LINE
8
BLACK
6
CONTINUOUS
10
6.08602
20
-3.29469
11
6.08399
21
-3.29428
0
LINE
8
BLACK
6
CONTINUOUS
10
6.08399
20
-3.29428
11
6.08227
21
-3.29313
0
LINE
8
BLACK
6
CONTINUOUS
10
6.08227
20
-3.29313
11
6.08111
21
-3.2914
0
LINE
8
BLACK
6
CONTINUOUS
10
6.08111
20
-3.2914
11
6.08071
21
-3.28937
0
LINE
8
BLACK
6
CONTINUOUS
10
6.08071
20
-3.28937
11
6.08111
21
-3.28734
0
LINE
8
BLACK
6
CONTINUOUS
10
6.08111
20
-3.28734
11
6.08227
21
-3.28561
0
LINE
8
BLACK
6
CONTINUOUS
10
6.08227
20
-3.28561
11
6.08399
21
-3.28446
0
LINE
8
BLACK
6
CONTINUOUS
10
6.08399
20
-3.28446
11
6.08602
21
-3.28406
0
LINE
8
BLACK
6
CONTINUOUS
10
6.08602
20
-3.28406
11
6.12264
21
-3.28406
0
LINE
8
BLACK
6
CONTINUOUS
10
6.12264
20
-3.28406
11
6.12467
21
-3.28446
0
LINE
8
BLACK
6
CONTINUOUS
10
5.67192
20
-3.28446
11
5.67364
21
-3.28561
0
LINE
8
BLACK
6
CONTINUOUS
10
5.67364
20
-3.28561
11
5.67479
21
-3.28734
0
LINE
8
BLACK
6
CONTINUOUS
10
5.67479
20
-3.28734
11
5.6752
21
-3.28937
0
LINE
8
BLACK
6
CONTINUOUS
10
5.6752
20
-3.28937
11
5.67479
21
-3.2914
0
LINE
8
BLACK
6
CONTINUOUS
10
5.67479
20
-3.2914
11
5.67364
21
-3.29313
0
LINE
8
BLACK
6
CONTINUOUS
10
5.67364
20
-3.29313
11
5.67192
21
-3.29428
0
LINE
8
BLACK
6
CONTINUOUS
10
5.67192
20
-3.29428
11
5.66988
21
-3.29469
0
LINE
8
BLACK
6
CONTINUOUS
10
5.66988
20
-3.29469
11
5.63327
21
-3.29469
0
LINE
8
BLACK
6
CONTINUOUS
10
5.63327
20
-3.29469
11
5.63123
21
-3.29428
0
LINE
8
BLACK
6
CONTINUOUS
10
5.63123
20
-3.29428
11
5.62951
21
-3.29313
0
LINE
8
BLACK
6
CONTINUOUS
10
5.62951
20
-3.29313
11
5.62836
21
-3.2914
0
LINE
8
BLACK
6
CONTINUOUS
10
5.62836
20
-3.2914
11
5.62795
21
-3.28937
0
LINE
8
BLACK
6
CONTINUOUS
10
5.62795
20
-3.28937
11
5.62836
21
-3.28734
0
LINE
8
BLACK
6
CONTINUOUS
10
5.62836
20
-3.28734
11
5.62951
21
-3.28561
0
LINE
8
BLACK
6
CONTINUOUS
10
5.62951
20
-3.28561
11
5.63123
21
-3.28446
0
LINE
8
BLACK
6
CONTINUOUS
10
5.63123
20
-3.28446
11
5.63327
21
-3.28406
0
LINE
8
BLACK
6
CONTINUOUS
10
5.63327
20
-3.28406
11
5.66988
21
-3.28406
0
LINE
8
BLACK
6
CONTINUOUS
10
5.66988
20
-3.28406
11
5.67192
21
-3.28446
0
LINE
8
BLACK
6
CONTINUOUS
10
6.12467
20
-3.26477
11
6.1264
21
-3.26593
0
LINE
8
BLACK
6
CONTINUOUS
10
6.1264
20
-3.26593
11
6.12755
21
-3.26765
0
LINE
8
BLACK
6
CONTINUOUS
10
6.12755
20
-3.26765
11
6.12795
21
-3.26969
0
LINE
8
BLACK
6
CONTINUOUS
10
6.12795
20
-3.26969
11
6.12755
21
-3.27172
0
LINE
8
BLACK
6
CONTINUOUS
10
6.12755
20
-3.27172
11
6.1264
21
-3.27344
0
LINE
8
BLACK
6
CONTINUOUS
10
6.1264
20
-3.27344
11
6.12467
21
-3.2746
0
LINE
8
BLACK
6
CONTINUOUS
10
6.12467
20
-3.2746
11
6.12264
21
-3.275
0
LINE
8
BLACK
6
CONTINUOUS
10
6.12264
20
-3.275
11
6.08602
21
-3.275
0
LINE
8
BLACK
6
CONTINUOUS
10
6.08602
20
-3.275
11
6.08399
21
-3.2746
0
LINE
8
BLACK
6
CONTINUOUS
10
6.08399
20
-3.2746
11
6.08227
21
-3.27344
0
LINE
8
BLACK
6
CONTINUOUS
10
6.08227
20
-3.27344
11
6.08111
21
-3.27172
0
LINE
8
BLACK
6
CONTINUOUS
10
6.08111
20
-3.27172
11
6.08071
21
-3.26969
0
LINE
8
BLACK
6
CONTINUOUS
10
6.08071
20
-3.26969
11
6.08111
21
-3.26765
0
LINE
8
BLACK
6
CONTINUOUS
10
6.08111
20
-3.26765
11
6.08227
21
-3.26593
0
LINE
8
BLACK
6
CONTINUOUS
10
6.08227
20
-3.26593
11
6.08399
21
-3.26477
0
LINE
8
BLACK
6
CONTINUOUS
10
6.08399
20
-3.26477
11
6.08602
21
-3.26437
0
LINE
8
BLACK
6
CONTINUOUS
10
6.08602
20
-3.26437
11
6.12264
21
-3.26437
0
LINE
8
BLACK
6
CONTINUOUS
10
6.12264
20
-3.26437
11
6.12467
21
-3.26477
0
LINE
8
BLACK
6
CONTINUOUS
10
5.67192
20
-3.26477
11
5.67364
21
-3.26593
0
LINE
8
BLACK
6
CONTINUOUS
10
5.67364
20
-3.26593
11
5.67479
21
-3.26765
0
LINE
8
BLACK
6
CONTINUOUS
10
5.67479
20
-3.26765
11
5.6752
21
-3.26969
0
LINE
8
BLACK
6
CONTINUOUS
10
5.6752
20
-3.26969
11
5.67479
21
-3.27172
0
LINE
8
BLACK
6
CONTINUOUS
10
5.67479
20
-3.27172
11
5.67364
21
-3.27344
0
LINE
8
BLACK
6
CONTINUOUS
10
5.67364
20
-3.27344
11
5.67192
21
-3.2746
0
LINE
8
BLACK
6
CONTINUOUS
10
5.67192
20
-3.2746
11
5.66988
21
-3.275
0
LINE
8
BLACK
6
CONTINUOUS
10
5.66988
20
-3.275
11
5.63327
21
-3.275
0
LINE
8
BLACK
6
CONTINUOUS
10
5.63327
20
-3.275
11
5.63123
21
-3.2746
0
LINE
8
BLACK
6
CONTINUOUS
10
5.63123
20
-3.2746
11
5.62951
21
-3.27344
0
LINE
8
BLACK
6
CONTINUOUS
10
5.62951
20
-3.27344
11
5.62836
21
-3.27172
0
LINE
8
BLACK
6
CONTINUOUS
10
5.62836
20
-3.27172
11
5.62795
21
-3.26969
0
LINE
8
BLACK
6
CONTINUOUS
10
5.62795
20
-3.26969
11
5.62836
21
-3.26765
0
LINE
8
BLACK
6
CONTINUOUS
10
5.62836
20
-3.26765
11
5.62951
21
-3.26593
0
LINE
8
BLACK
6
CONTINUOUS
10
5.62951
20
-3.26593
11
5.63123
21
-3.26477
0
LINE
8
BLACK
6
CONTINUOUS
10
5.63123
20
-3.26477
11
5.63327
21
-3.26437
0
LINE
8
BLACK
6
CONTINUOUS
10
5.63327
20
-3.26437
11
5.66988
21
-3.26437
0
LINE
8
BLACK
6
CONTINUOUS
10
5.66988
20
-3.26437
11
5.67192
21
-3.26477
0
LINE
8
BLACK
6
CONTINUOUS
10
6.31128
20
-3.25622
11
6.27628
21
-3.25622
0
LINE
8
BLACK
6
CONTINUOUS
10
6.27628
20
-3.25622
11
6.27628
21
-3.21622
0
LINE
8
BLACK
6
CONTINUOUS
10
6.27628
20
-3.21622
11
6.31128
21
-3.21622
0
LINE
8
BLACK
6
CONTINUOUS
10
6.31128
20
-3.21622
11
6.31128
21
-3.25622
0
LINE
8
BLACK
6
CONTINUOUS
10
6.25128
20
-3.25622
11
6.21628
21
-3.25622
0
LINE
8
BLACK
6
CONTINUOUS
10
6.21628
20
-3.25622
11
6.21628
21
-3.21622
0
LINE
8
BLACK
6
CONTINUOUS
10
6.21628
20
-3.21622
11
6.25128
21
-3.21622
0
LINE
8
BLACK
6
CONTINUOUS
10
6.25128
20
-3.21622
11
6.25128
21
-3.25622
0
LINE
8
BLACK
6
CONTINUOUS
10
6.12467
20
-3.24509
11
6.1264
21
-3.24624
0
LINE
8
BLACK
6
CONTINUOUS
10
6.1264
20
-3.24624
11
6.12755
21
-3.24797
0
LINE
8
BLACK
6
CONTINUOUS
10
6.12755
20
-3.24797
11
6.12795
21
-3.25
0
LINE
8
BLACK
6
CONTINUOUS
10
6.12795
20
-3.25
11
6.12755
21
-3.25203
0
LINE
8
BLACK
6
CONTINUOUS
10
6.12755
20
-3.25203
11
6.1264
21
-3.25376
0
LINE
8
BLACK
6
CONTINUOUS
10
6.1264
20
-3.25376
11
6.12467
21
-3.25491
0
LINE
8
BLACK
6
CONTINUOUS
10
6.12467
20
-3.25491
11
6.12264
21
-3.25531
0
LINE
8
BLACK
6
CONTINUOUS
10
6.12264
20
-3.25531
11
6.08602
21
-3.25531
0
LINE
8
BLACK
6
CONTINUOUS
10
6.08602
20
-3.25531
11
6.08399
21
-3.25491
0
LINE
8
BLACK
6
CONTINUOUS
10
6.08399
20
-3.25491
11
6.08227
21
-3.25376
0
LINE
8
BLACK
6
CONTINUOUS
10
6.08227
20
-3.25376
11
6.08111
21
-3.25203
0
LINE
8
BLACK
6
CONTINUOUS
10
6.08111
20
-3.25203
11
6.08071
21
-3.25
0
LINE
8
BLACK
6
CONTINUOUS
10
6.08071
20
-3.25
11
6.08111
21
-3.24797
0
LINE
8
BLACK
6
CONTINUOUS
10
6.08111
20
-3.24797
11
6.08227
21
-3.24624
0
LINE
8
BLACK
6
CONTINUOUS
10
6.08227
20
-3.24624
11
6.08399
21
-3.24509
0
LINE
8
BLACK
6
CONTINUOUS
10
6.08399
20
-3.24509
11
6.08602
21
-3.24469
0
LINE
8
BLACK
6
CONTINUOUS
10
6.08602
20
-3.24469
11
6.12264
21
-3.24469
0
LINE
8
BLACK
6
CONTINUOUS
10
6.12264
20
-3.24469
11
6.12467
21
-3.24509
0
LINE
8
BLACK
6
CONTINUOUS
10
5.67192
20
-3.24509
11
5.67364
21
-3.24624
0
LINE
8
BLACK
6
CONTINUOUS
10
5.67364
20
-3.24624
11
5.67479
21
-3.24797
0
LINE
8
BLACK
6
CONTINUOUS
10
5.67479
20
-3.24797
11
5.6752
21
-3.25
0
LINE
8
BLACK
6
CONTINUOUS
10
5.6752
20
-3.25
11
5.67479
21
-3.25203
0
LINE
8
BLACK
6
CONTINUOUS
10
5.67479
20
-3.25203
11
5.67364
21
-3.25376
0
LINE
8
BLACK
6
CONTINUOUS
10
5.67364
20
-3.25376
11
5.67192
21
-3.25491
0
LINE
8
BLACK
6
CONTINUOUS
10
5.67192
20
-3.25491
11
5.66988
21
-3.25531
0
LINE
8
BLACK
6
CONTINUOUS
10
5.66988
20
-3.25531
11
5.63327
21
-3.25531
0
LINE
8
BLACK
6
CONTINUOUS
10
5.63327
20
-3.25531
11
5.63123
21
-3.25491
0
LINE
8
BLACK
6
CONTINUOUS
10
5.63123
20
-3.25491
11
5.62951
21
-3.25376
0
LINE
8
BLACK
6
CONTINUOUS
10
5.62951
20
-3.25376
11
5.62836
21
-3.25203
0
LINE
8
BLACK
6
CONTINUOUS
10
5.62836
20
-3.25203
11
5.62795
21
-3.25
0
LINE
8
BLACK
6
CONTINUOUS
10
5.62795
20
-3.25
11
5.62836
21
-3.24797
0
LINE
8
BLACK
6
CONTINUOUS
10
5.62836
20
-3.24797
11
5.62951
21
-3.24624
0
LINE
8
BLACK
6
CONTINUOUS
10
5.62951
20
-3.24624
11
5.63123
21
-3.24509
0
LINE
8
BLACK
6
CONTINUOUS
10
5.63123
20
-3.24509
11
5.63327
21
-3.24469
0
LINE
8
BLACK
6
CONTINUOUS
10
5.63327
20
-3.24469
11
5.66988
21
-3.24469
0
LINE
8
BLACK
6
CONTINUOUS
10
5.66988
20
-3.24469
11
5.67192
21
-3.24509
0
LINE
8
BLACK
6
CONTINUOUS
10
6.19291
20
-3.25197
11
6.15354
21
-3.25197
0
LINE
8
BLACK
6
CONTINUOUS
10
6.15354
20
-3.25197
11
6.15354
21
-3.21654
0
LINE
8
BLACK
6
CONTINUOUS
10
6.15354
20
-3.21654
11
6.19291
21
-3.21654
0
LINE
8
BLACK
6
CONTINUOUS
10
6.19291
20
-3.21654
11
6.19291
21
-3.25197
0
LINE
8
BLACK
6
CONTINUOUS
10
6.12467
20
-3.2254
11
6.1264
21
-3.22656
0
LINE
8
BLACK
6
CONTINUOUS
10
6.1264
20
-3.22656
11
6.12755
21
-3.22828
0
LINE
8
BLACK
6
CONTINUOUS
10
6.12755
20
-3.22828
11
6.12795
21
-3.23031
0
LINE
8
BLACK
6
CONTINUOUS
10
6.12795
20
-3.23031
11
6.12755
21
-3.23235
0
LINE
8
BLACK
6
CONTINUOUS
10
6.12755
20
-3.23235
11
6.1264
21
-3.23407
0
LINE
8
BLACK
6
CONTINUOUS
10
6.1264
20
-3.23407
11
6.12467
21
-3.23523
0
LINE
8
BLACK
6
CONTINUOUS
10
6.12467
20
-3.23523
11
6.12264
21
-3.23563
0
LINE
8
BLACK
6
CONTINUOUS
10
6.12264
20
-3.23563
11
6.08602
21
-3.23563
0
LINE
8
BLACK
6
CONTINUOUS
10
6.08602
20
-3.23563
11
6.08399
21
-3.23523
0
LINE
8
BLACK
6
CONTINUOUS
10
6.08399
20
-3.23523
11
6.08227
21
-3.23407
0
LINE
8
BLACK
6
CONTINUOUS
10
6.08227
20
-3.23407
11
6.08111
21
-3.23235
0
LINE
8
BLACK
6
CONTINUOUS
10
6.08111
20
-3.23235
11
6.08071
21
-3.23031
0
LINE
8
BLACK
6
CONTINUOUS
10
6.08071
20
-3.23031
11
6.08111
21
-3.22828
0
LINE
8
BLACK
6
CONTINUOUS
10
6.08111
20
-3.22828
11
6.08227
21
-3.22656
0
LINE
8
BLACK
6
CONTINUOUS
10
6.08227
20
-3.22656
11
6.08399
21
-3.2254
0
LINE
8
BLACK
6
CONTINUOUS
10
6.08399
20
-3.2254
11
6.08602
21
-3.225
0
LINE
8
BLACK
6
CONTINUOUS
10
6.08602
20
-3.225
11
6.12264
21
-3.225
0
LINE
8
BLACK
6
CONTINUOUS
10
6.12264
20
-3.225
11
6.12467
21
-3.2254
0
LINE
8
BLACK
6
CONTINUOUS
10
5.67192
20
-3.2254
11
5.67364
21
-3.22656
0
LINE
8
BLACK
6
CONTINUOUS
10
5.67364
20
-3.22656
11
5.67479
21
-3.22828
0
LINE
8
BLACK
6
CONTINUOUS
10
5.67479
20
-3.22828
11
5.6752
21
-3.23031
0
LINE
8
BLACK
6
CONTINUOUS
10
5.6752
20
-3.23031
11
5.67479
21
-3.23235
0
LINE
8
BLACK
6
CONTINUOUS
10
5.67479
20
-3.23235
11
5.67364
21
-3.23407
0
LINE
8
BLACK
6
CONTINUOUS
10
5.67364
20
-3.23407
11
5.67192
21
-3.23523
0
LINE
8
BLACK
6
CONTINUOUS
10
5.67192
20
-3.23523
11
5.66988
21
-3.23563
0
LINE
8
BLACK
6
CONTINUOUS
10
5.66988
20
-3.23563
11
5.63327
21
-3.23563
0
LINE
8
BLACK
6
CONTINUOUS
10
5.63327
20
-3.23563
11
5.63123
21
-3.23523
0
LINE
8
BLACK
6
CONTINUOUS
10
5.63123
20
-3.23523
11
5.62951
21
-3.23407
0
LINE
8
BLACK
6
CONTINUOUS
10
5.62951
20
-3.23407
11
5.62836
21
-3.23235
0
LINE
8
BLACK
6
CONTINUOUS
10
5.62836
20
-3.23235
11
5.62795
21
-3.23031
0
LINE
8
BLACK
6
CONTINUOUS
10
5.62795
20
-3.23031
11
5.62836
21
-3.22828
0
LINE
8
BLACK
6
CONTINUOUS
10
5.62836
20
-3.22828
11
5.62951
21
-3.22656
0
LINE
8
BLACK
6
CONTINUOUS
10
5.62951
20
-3.22656
11
5.63123
21
-3.2254
0
LINE
8
BLACK
6
CONTINUOUS
10
5.63123
20
-3.2254
11
5.63327
21
-3.225
0
LINE
8
BLACK
6
CONTINUOUS
10
5.63327
20
-3.225
11
5.66988
21
-3.225
0
LINE
8
BLACK
6
CONTINUOUS
10
5.66988
20
-3.225
11
5.67192
21
-3.2254
0
LINE
8
BLACK
6
CONTINUOUS
10
4.73972
20
-3.2337
11
4.66972
21
-3.2337
0
LINE
8
BLACK
6
CONTINUOUS
10
4.66972
20
-3.2337
11
4.66972
21
-3.1737
0
LINE
8
BLACK
6
CONTINUOUS
10
4.66972
20
-3.1737
11
4.73972
21
-3.1737
0
LINE
8
BLACK
6
CONTINUOUS
10
4.73972
20
-3.1737
11
4.73972
21
-3.2337
0
LINE
8
BLACK
6
CONTINUOUS
10
6.12467
20
-3.20572
11
6.1264
21
-3.20687
0
LINE
8
BLACK
6
CONTINUOUS
10
6.1264
20
-3.20687
11
6.12755
21
-3.2086
0
LINE
8
BLACK
6
CONTINUOUS
10
6.12755
20
-3.2086
11
6.12795
21
-3.21063
0
LINE
8
BLACK
6
CONTINUOUS
10
6.12795
20
-3.21063
11
6.12755
21
-3.21266
0
LINE
8
BLACK
6
CONTINUOUS
10
6.12755
20
-3.21266
11
6.1264
21
-3.21439
0
LINE
8
BLACK
6
CONTINUOUS
10
6.1264
20
-3.21439
11
6.12467
21
-3.21554
0
LINE
8
BLACK
6
CONTINUOUS
10
6.12467
20
-3.21554
11
6.12264
21
-3.21594
0
LINE
8
BLACK
6
CONTINUOUS
10
6.12264
20
-3.21594
11
6.08602
21
-3.21594
0
LINE
8
BLACK
6
CONTINUOUS
10
6.08602
20
-3.21594
11
6.08399
21
-3.21554
0
LINE
8
BLACK
6
CONTINUOUS
10
6.08399
20
-3.21554
11
6.08227
21
-3.21439
0
LINE
8
BLACK
6
CONTINUOUS
10
6.08227
20
-3.21439
11
6.08111
21
-3.21266
0
LINE
8
BLACK
6
CONTINUOUS
10
6.08111
20
-3.21266
11
6.08071
21
-3.21063
0
LINE
8
BLACK
6
CONTINUOUS
10
6.08071
20
-3.21063
11
6.08111
21
-3.2086
0
LINE
8
BLACK
6
CONTINUOUS
10
6.08111
20
-3.2086
11
6.08227
21
-3.20687
0
LINE
8
BLACK
6
CONTINUOUS
10
6.08227
20
-3.20687
11
6.08399
21
-3.20572
0
LINE
8
BLACK
6
CONTINUOUS
10
6.08399
20
-3.20572
11
6.08602
21
-3.20531
0
LINE
8
BLACK
6
CONTINUOUS
10
6.08602
20
-3.20531
11
6.12264
21
-3.20531
0
LINE
8
BLACK
6
CONTINUOUS
10
6.12264
20
-3.20531
11
6.12467
21
-3.20572
0
LINE
8
BLACK
6
CONTINUOUS
10
5.67192
20
-3.20572
11
5.67364
21
-3.20687
0
LINE
8
BLACK
6
CONTINUOUS
10
5.67364
20
-3.20687
11
5.67479
21
-3.2086
0
LINE
8
BLACK
6
CONTINUOUS
10
5.67479
20
-3.2086
11
5.6752
21
-3.21063
0
LINE
8
BLACK
6
CONTINUOUS
10
5.6752
20
-3.21063
11
5.67479
21
-3.21266
0
LINE
8
BLACK
6
CONTINUOUS
10
5.67479
20
-3.21266
11
5.67364
21
-3.21439
0
LINE
8
BLACK
6
CONTINUOUS
10
5.67364
20
-3.21439
11
5.67192
21
-3.21554
0
LINE
8
BLACK
6
CONTINUOUS
10
5.67192
20
-3.21554
11
5.66988
21
-3.21594
0
LINE
8
BLACK
6
CONTINUOUS
10
5.66988
20
-3.21594
11
5.63327
21
-3.21594
0
LINE
8
BLACK
6
CONTINUOUS
10
5.63327
20
-3.21594
11
5.63123
21
-3.21554
0
LINE
8
BLACK
6
CONTINUOUS
10
5.63123
20
-3.21554
11
5.62951
21
-3.21439
0
LINE
8
BLACK
6
CONTINUOUS
10
5.62951
20
-3.21439
11
5.62836
21
-3.21266
0
LINE
8
BLACK
6
CONTINUOUS
10
5.62836
20
-3.21266
11
5.62795
21
-3.21063
0
LINE
8
BLACK
6
CONTINUOUS
10
5.62795
20
-3.21063
11
5.62836
21
-3.2086
0
LINE
8
BLACK
6
CONTINUOUS
10
5.62836
20
-3.2086
11
5.62951
21
-3.20687
0
LINE
8
BLACK
6
CONTINUOUS
10
5.62951
20
-3.20687
11
5.63123
21
-3.20572
0
LINE
8
BLACK
6
CONTINUOUS
10
5.63123
20
-3.20572
11
5.63327
21
-3.20531
0
LINE
8
BLACK
6
CONTINUOUS
10
5.63327
20
-3.20531
11
5.66988
21
-3.20531
0
LINE
8
BLACK
6
CONTINUOUS
10
5.66988
20
-3.20531
11
5.67192
21
-3.20572
0
LINE
8
BLACK
6
CONTINUOUS
10
6.12467
20
-3.18603
11
6.1264
21
-3.18719
0
LINE
8
BLACK
6
CONTINUOUS
10
6.1264
20
-3.18719
11
6.12755
21
-3.18891
0
LINE
8
BLACK
6
CONTINUOUS
10
6.12755
20
-3.18891
11
6.12795
21
-3.19094
0
LINE
8
BLACK
6
CONTINUOUS
10
6.12795
20
-3.19094
11
6.12755
21
-3.19298
0
LINE
8
BLACK
6
CONTINUOUS
10
6.12755
20
-3.19298
11
6.1264
21
-3.1947
0
LINE
8
BLACK
6
CONTINUOUS
10
6.1264
20
-3.1947
11
6.12467
21
-3.19586
0
LINE
8
BLACK
6
CONTINUOUS
10
6.12467
20
-3.19586
11
6.12264
21
-3.19626
0
LINE
8
BLACK
6
CONTINUOUS
10
6.12264
20
-3.19626
11
6.08602
21
-3.19626
0
LINE
8
BLACK
6
CONTINUOUS
10
6.08602
20
-3.19626
11
6.08399
21
-3.19586
0
LINE
8
BLACK
6
CONTINUOUS
10
6.08399
20
-3.19586
11
6.08227
21
-3.1947
0
LINE
8
BLACK
6
CONTINUOUS
10
6.08227
20
-3.1947
11
6.08111
21
-3.19298
0
LINE
8
BLACK
6
CONTINUOUS
10
6.08111
20
-3.19298
11
6.08071
21
-3.19094
0
LINE
8
BLACK
6
CONTINUOUS
10
6.08071
20
-3.19094
11
6.08111
21
-3.18891
0
LINE
8
BLACK
6
CONTINUOUS
10
6.08111
20
-3.18891
11
6.08227
21
-3.18719
0
LINE
8
BLACK
6
CONTINUOUS
10
6.08227
20
-3.18719
11
6.08399
21
-3.18603
0
LINE
8
BLACK
6
CONTINUOUS
10
6.08399
20
-3.18603
11
6.08602
21
-3.18563
0
LINE
8
BLACK
6
CONTINUOUS
10
6.08602
20
-3.18563
11
6.12264
21
-3.18563
0
LINE
8
BLACK
6
CONTINUOUS
10
6.12264
20
-3.18563
11
6.12467
21
-3.18603
0
LINE
8
BLACK
6
CONTINUOUS
10
5.67192
20
-3.18603
11
5.67364
21
-3.18719
0
LINE
8
BLACK
6
CONTINUOUS
10
5.67364
20
-3.18719
11
5.67479
21
-3.18891
0
LINE
8
BLACK
6
CONTINUOUS
10
5.67479
20
-3.18891
11
5.6752
21
-3.19094
0
LINE
8
BLACK
6
CONTINUOUS
10
5.6752
20
-3.19094
11
5.67479
21
-3.19298
0
LINE
8
BLACK
6
CONTINUOUS
10
5.67479
20
-3.19298
11
5.67364
21
-3.1947
0
LINE
8
BLACK
6
CONTINUOUS
10
5.67364
20
-3.1947
11
5.67192
21
-3.19586
0
LINE
8
BLACK
6
CONTINUOUS
10
5.67192
20
-3.19586
11
5.66988
21
-3.19626
0
LINE
8
BLACK
6
CONTINUOUS
10
5.66988
20
-3.19626
11
5.63327
21
-3.19626
0
LINE
8
BLACK
6
CONTINUOUS
10
5.63327
20
-3.19626
11
5.63123
21
-3.19586
0
LINE
8
BLACK
6
CONTINUOUS
10
5.63123
20
-3.19586
11
5.62951
21
-3.1947
0
LINE
8
BLACK
6
CONTINUOUS
10
5.62951
20
-3.1947
11
5.62836
21
-3.19298
0
LINE
8
BLACK
6
CONTINUOUS
10
5.62836
20
-3.19298
11
5.62795
21
-3.19094
0
LINE
8
BLACK
6
CONTINUOUS
10
5.62795
20
-3.19094
11
5.62836
21
-3.18891
0
LINE
8
BLACK
6
CONTINUOUS
10
5.62836
20
-3.18891
11
5.62951
21
-3.18719
0
LINE
8
BLACK
6
CONTINUOUS
10
5.62951
20
-3.18719
11
5.63123
21
-3.18603
0
LINE
8
BLACK
6
CONTINUOUS
10
5.63123
20
-3.18603
11
5.63327
21
-3.18563
0
LINE
8
BLACK
6
CONTINUOUS
10
5.63327
20
-3.18563
11
5.66988
21
-3.18563
0
LINE
8
BLACK
6
CONTINUOUS
10
5.66988
20
-3.18563
11
5.67192
21
-3.18603
0
LINE
8
BLACK
6
CONTINUOUS
10
6.28378
20
-3.19317
11
6.24378
21
-3.19317
0
LINE
8
BLACK
6
CONTINUOUS
10
6.24378
20
-3.19317
11
6.24378
21
-3.15817
0
LINE
8
BLACK
6
CONTINUOUS
10
6.24378
20
-3.15817
11
6.28378
21
-3.15817
0
LINE
8
BLACK
6
CONTINUOUS
10
6.28378
20
-3.15817
11
6.28378
21
-3.19317
0
LINE
8
BLACK
6
CONTINUOUS
10
6.22079
20
-3.19317
11
6.18079
21
-3.19317
0
LINE
8
BLACK
6
CONTINUOUS
10
6.18079
20
-3.19317
11
6.18079
21
-3.15817
0
LINE
8
BLACK
6
CONTINUOUS
10
6.18079
20
-3.15817
11
6.22079
21
-3.15817
0
LINE
8
BLACK
6
CONTINUOUS
10
6.22079
20
-3.15817
11
6.22079
21
-3.19317
0
LINE
8
BLACK
6
CONTINUOUS
10
6.12467
20
-3.16635
11
6.1264
21
-3.1675
0
LINE
8
BLACK
6
CONTINUOUS
10
6.1264
20
-3.1675
11
6.12755
21
-3.16923
0
LINE
8
BLACK
6
CONTINUOUS
10
6.12755
20
-3.16923
11
6.12795
21
-3.17126
0
LINE
8
BLACK
6
CONTINUOUS
10
6.12795
20
-3.17126
11
6.12755
21
-3.17329
0
LINE
8
BLACK
6
CONTINUOUS
10
6.12755
20
-3.17329
11
6.1264
21
-3.17502
0
LINE
8
BLACK
6
CONTINUOUS
10
6.1264
20
-3.17502
11
6.12467
21
-3.17617
0
LINE
8
BLACK
6
CONTINUOUS
10
6.12467
20
-3.17617
11
6.12264
21
-3.17657
0
LINE
8
BLACK
6
CONTINUOUS
10
6.12264
20
-3.17657
11
6.08602
21
-3.17657
0
LINE
8
BLACK
6
CONTINUOUS
10
6.08602
20
-3.17657
11
6.08399
21
-3.17617
0
LINE
8
BLACK
6
CONTINUOUS
10
6.08399
20
-3.17617
11
6.08227
21
-3.17502
0
LINE
8
BLACK
6
CONTINUOUS
10
6.08227
20
-3.17502
11
6.08111
21
-3.17329
0
LINE
8
BLACK
6
CONTINUOUS
10
6.08111
20
-3.17329
11
6.08071
21
-3.17126
0
LINE
8
BLACK
6
CONTINUOUS
10
6.08071
20
-3.17126
11
6.08111
21
-3.16923
0
LINE
8
BLACK
6
CONTINUOUS
10
6.08111
20
-3.16923
11
6.08227
21
-3.1675
0
LINE
8
BLACK
6
CONTINUOUS
10
6.08227
20
-3.1675
11
6.08399
21
-3.16635
0
LINE
8
BLACK
6
CONTINUOUS
10
6.08399
20
-3.16635
11
6.08602
21
-3.16594
0
LINE
8
BLACK
6
CONTINUOUS
10
6.08602
20
-3.16594
11
6.12264
21
-3.16594
0
LINE
8
BLACK
6
CONTINUOUS
10
6.12264
20
-3.16594
11
6.12467
21
-3.16635
0
LINE
8
BLACK
6
CONTINUOUS
10
5.67192
20
-3.16635
11
5.67364
21
-3.1675
0
LINE
8
BLACK
6
CONTINUOUS
10
5.67364
20
-3.1675
11
5.67479
21
-3.16923
0
LINE
8
BLACK
6
CONTINUOUS
10
5.67479
20
-3.16923
11
5.6752
21
-3.17126
0
LINE
8
BLACK
6
CONTINUOUS
10
5.6752
20
-3.17126
11
5.67479
21
-3.17329
0
LINE
8
BLACK
6
CONTINUOUS
10
5.67479
20
-3.17329
11
5.67364
21
-3.17502
0
LINE
8
BLACK
6
CONTINUOUS
10
5.67364
20
-3.17502
11
5.67192
21
-3.17617
0
LINE
8
BLACK
6
CONTINUOUS
10
5.67192
20
-3.17617
11
5.66988
21
-3.17657
0
LINE
8
BLACK
6
CONTINUOUS
10
5.66988
20
-3.17657
11
5.63327
21
-3.17657
0
LINE
8
BLACK
6
CONTINUOUS
10
5.63327
20
-3.17657
11
5.63123
21
-3.17617
0
LINE
8
BLACK
6
CONTINUOUS
10
5.63123
20
-3.17617
11
5.62951
21
-3.17502
0
LINE
8
BLACK
6
CONTINUOUS
10
5.62951
20
-3.17502
11
5.62836
21
-3.17329
0
LINE
8
BLACK
6
CONTINUOUS
10
5.62836
20
-3.17329
11
5.62795
21
-3.17126
0
LINE
8
BLACK
6
CONTINUOUS
10
5.62795
20
-3.17126
11
5.62836
21
-3.16923
0
LINE
8
BLACK
6
CONTINUOUS
10
5.62836
20
-3.16923
11
5.62951
21
-3.1675
0
LINE
8
BLACK
6
CONTINUOUS
10
5.62951
20
-3.1675
11
5.63123
21
-3.16635
0
LINE
8
BLACK
6
CONTINUOUS
10
5.63123
20
-3.16635
11
5.63327
21
-3.16594
0
LINE
8
BLACK
6
CONTINUOUS
10
5.63327
20
-3.16594
11
5.66988
21
-3.16594
0
LINE
8
BLACK
6
CONTINUOUS
10
5.66988
20
-3.16594
11
5.67192
21
-3.16635
0
LINE
8
BLACK
6
CONTINUOUS
10
6.12467
20
-3.14666
11
6.1264
21
-3.14782
0
LINE
8
BLACK
6
CONTINUOUS
10
6.1264
20
-3.14782
11
6.12755
21
-3.14954
0
LINE
8
BLACK
6
CONTINUOUS
10
6.12755
20
-3.14954
11
6.12795
21
-3.15157
0
LINE
8
BLACK
6
CONTINUOUS
10
6.12795
20
-3.15157
11
6.12755
21
-3.15361
0
LINE
8
BLACK
6
CONTINUOUS
10
6.12755
20
-3.15361
11
6.1264
21
-3.15533
0
LINE
8
BLACK
6
CONTINUOUS
10
6.1264
20
-3.15533
11
6.12467
21
-3.15649
0
LINE
8
BLACK
6
CONTINUOUS
10
6.12467
20
-3.15649
11
6.12264
21
-3.15689
0
LINE
8
BLACK
6
CONTINUOUS
10
6.12264
20
-3.15689
11
6.08602
21
-3.15689
0
LINE
8
BLACK
6
CONTINUOUS
10
6.08602
20
-3.15689
11
6.08399
21
-3.15649
0
LINE
8
BLACK
6
CONTINUOUS
10
6.08399
20
-3.15649
11
6.08227
21
-3.15533
0
LINE
8
BLACK
6
CONTINUOUS
10
6.08227
20
-3.15533
11
6.08111
21
-3.15361
0
LINE
8
BLACK
6
CONTINUOUS
10
6.08111
20
-3.15361
11
6.08071
21
-3.15157
0
LINE
8
BLACK
6
CONTINUOUS
10
6.08071
20
-3.15157
11
6.08111
21
-3.14954
0
LINE
8
BLACK
6
CONTINUOUS
10
6.08111
20
-3.14954
11
6.08227
21
-3.14782
0
LINE
8
BLACK
6
CONTINUOUS
10
6.08227
20
-3.14782
11
6.08399
21
-3.14666
0
LINE
8
BLACK
6
CONTINUOUS
10
6.08399
20
-3.14666
11
6.08602
21
-3.14626
0
LINE
8
BLACK
6
CONTINUOUS
10
6.08602
20
-3.14626
11
6.12264
21
-3.14626
0
LINE
8
BLACK
6
CONTINUOUS
10
6.12264
20
-3.14626
11
6.12467
21
-3.14666
0
LINE
8
BLACK
6
CONTINUOUS
10
5.67192
20
-3.14666
11
5.67364
21
-3.14782
0
LINE
8
BLACK
6
CONTINUOUS
10
5.67364
20
-3.14782
11
5.67479
21
-3.14954
0
LINE
8
BLACK
6
CONTINUOUS
10
5.67479
20
-3.14954
11
5.6752
21
-3.15157
0
LINE
8
BLACK
6
CONTINUOUS
10
5.6752
20
-3.15157
11
5.67479
21
-3.15361
0
LINE
8
BLACK
6
CONTINUOUS
10
5.67479
20
-3.15361
11
5.67364
21
-3.15533
0
LINE
8
BLACK
6
CONTINUOUS
10
5.67364
20
-3.15533
11
5.67192
21
-3.15649
0
LINE
8
BLACK
6
CONTINUOUS
10
5.67192
20
-3.15649
11
5.66988
21
-3.15689
0
LINE
8
BLACK
6
CONTINUOUS
10
5.66988
20
-3.15689
11
5.63327
21
-3.15689
0
LINE
8
BLACK
6
CONTINUOUS
10
5.63327
20
-3.15689
11
5.63123
21
-3.15649
0
LINE
8
BLACK
6
CONTINUOUS
10
5.63123
20
-3.15649
11
5.62951
21
-3.15533
0
LINE
8
BLACK
6
CONTINUOUS
10
5.62951
20
-3.15533
11
5.62836
21
-3.15361
0
LINE
8
BLACK
6
CONTINUOUS
10
5.62836
20
-3.15361
11
5.62795
21
-3.15157
0
LINE
8
BLACK
6
CONTINUOUS
10
5.62795
20
-3.15157
11
5.62836
21
-3.14954
0
LINE
8
BLACK
6
CONTINUOUS
10
5.62836
20
-3.14954
11
5.62951
21
-3.14782
0
LINE
8
BLACK
6
CONTINUOUS
10
5.62951
20
-3.14782
11
5.63123
21
-3.14666
0
LINE
8
BLACK
6
CONTINUOUS
10
5.63123
20
-3.14666
11
5.63327
21
-3.14626
0
LINE
8
BLACK
6
CONTINUOUS
10
5.63327
20
-3.14626
11
5.66988
21
-3.14626
0
LINE
8
BLACK
6
CONTINUOUS
10
5.66988
20
-3.14626
11
5.67192
21
-3.14666
0
LINE
8
BLACK
6
CONTINUOUS
10
6.12467
20
-3.12698
11
6.1264
21
-3.12813
0
LINE
8
BLACK
6
CONTINUOUS
10
6.1264
20
-3.12813
11
6.12755
21
-3.12986
0
LINE
8
BLACK
6
CONTINUOUS
10
6.12755
20
-3.12986
11
6.12795
21
-3.13189
0
LINE
8
BLACK
6
CONTINUOUS
10
6.12795
20
-3.13189
11
6.12755
21
-3.13392
0
LINE
8
BLACK
6
CONTINUOUS
10
6.12755
20
-3.13392
11
6.1264
21
-3.13565
0
LINE
8
BLACK
6
CONTINUOUS
10
6.1264
20
-3.13565
11
6.12467
21
-3.1368
0
LINE
8
BLACK
6
CONTINUOUS
10
6.12467
20
-3.1368
11
6.12264
21
-3.1372
0
LINE
8
BLACK
6
CONTINUOUS
10
6.12264
20
-3.1372
11
6.08602
21
-3.1372
0
LINE
8
BLACK
6
CONTINUOUS
10
6.08602
20
-3.1372
11
6.08399
21
-3.1368
0
LINE
8
BLACK
6
CONTINUOUS
10
6.08399
20
-3.1368
11
6.08227
21
-3.13565
0
LINE
8
BLACK
6
CONTINUOUS
10
6.08227
20
-3.13565
11
6.08111
21
-3.13392
0
LINE
8
BLACK
6
CONTINUOUS
10
6.08111
20
-3.13392
11
6.08071
21
-3.13189
0
LINE
8
BLACK
6
CONTINUOUS
10
6.08071
20
-3.13189
11
6.08111
21
-3.12986
0
LINE
8
BLACK
6
CONTINUOUS
10
6.08111
20
-3.12986
11
6.08227
21
-3.12813
0
LINE
8
BLACK
6
CONTINUOUS
10
6.08227
20
-3.12813
11
6.08399
21
-3.12698
0
LINE
8
BLACK
6
CONTINUOUS
10
6.08399
20
-3.12698
11
6.08602
21
-3.12657
0
LINE
8
BLACK
6
CONTINUOUS
10
6.08602
20
-3.12657
11
6.12264
21
-3.12657
0
LINE
8
BLACK
6
CONTINUOUS
10
6.12264
20
-3.12657
11
6.12467
21
-3.12698
0
LINE
8
BLACK
6
CONTINUOUS
10
5.67192
20
-3.12698
11
5.67364
21
-3.12813
0
LINE
8
BLACK
6
CONTINUOUS
10
5.67364
20
-3.12813
11
5.67479
21
-3.12986
0
LINE
8
BLACK
6
CONTINUOUS
10
5.67479
20
-3.12986
11
5.6752
21
-3.13189
0
LINE
8
BLACK
6
CONTINUOUS
10
5.6752
20
-3.13189
11
5.67479
21
-3.13392
0
LINE
8
BLACK
6
CONTINUOUS
10
5.67479
20
-3.13392
11
5.67364
21
-3.13565
0
LINE
8
BLACK
6
CONTINUOUS
10
5.67364
20
-3.13565
11
5.67192
21
-3.1368
0
LINE
8
BLACK
6
CONTINUOUS
10
5.67192
20
-3.1368
11
5.66988
21
-3.1372
0
LINE
8
BLACK
6
CONTINUOUS
10
5.66988
20
-3.1372
11
5.63327
21
-3.1372
0
LINE
8
BLACK
6
CONTINUOUS
10
5.63327
20
-3.1372
11
5.63123
21
-3.1368
0
LINE
8
BLACK
6
CONTINUOUS
10
5.63123
20
-3.1368
11
5.62951
21
-3.13565
0
LINE
8
BLACK
6
CONTINUOUS
10
5.62951
20
-3.13565
11
5.62836
21
-3.13392
0
LINE
8
BLACK
6
CONTINUOUS
10
5.62836
20
-3.13392
11
5.62795
21
-3.13189
0
LINE
8
BLACK
6
CONTINUOUS
10
5.62795
20
-3.13189
11
5.62836
21
-3.12986
0
LINE
8
BLACK
6
CONTINUOUS
10
5.62836
20
-3.12986
11
5.62951
21
-3.12813
0
LINE
8
BLACK
6
CONTINUOUS
10
5.62951
20
-3.12813
11
5.63123
21
-3.12698
0
LINE
8
BLACK
6
CONTINUOUS
10
5.63123
20
-3.12698
11
5.63327
21
-3.12657
0
LINE
8
BLACK
6
CONTINUOUS
10
5.63327
20
-3.12657
11
5.66988
21
-3.12657
0
LINE
8
BLACK
6
CONTINUOUS
10
5.66988
20
-3.12657
11
5.67192
21
-3.12698
0
LINE
8
BLACK
6
CONTINUOUS
10
6.28378
20
-3.13317
11
6.24378
21
-3.13317
0
LINE
8
BLACK
6
CONTINUOUS
10
6.24378
20
-3.13317
11
6.24378
21
-3.09817
0
LINE
8
BLACK
6
CONTINUOUS
10
6.24378
20
-3.09817
11
6.28378
21
-3.09817
0
LINE
8
BLACK
6
CONTINUOUS
10
6.28378
20
-3.09817
11
6.28378
21
-3.13317
0
LINE
8
BLACK
6
CONTINUOUS
10
6.22079
20
-3.13317
11
6.18079
21
-3.13317
0
LINE
8
BLACK
6
CONTINUOUS
10
6.18079
20
-3.13317
11
6.18079
21
-3.09817
0
LINE
8
BLACK
6
CONTINUOUS
10
6.18079
20
-3.09817
11
6.22079
21
-3.09817
0
LINE
8
BLACK
6
CONTINUOUS
10
6.22079
20
-3.09817
11
6.22079
21
-3.13317
0
LINE
8
BLACK
6
CONTINUOUS
10
6.12467
20
-3.10729
11
6.1264
21
-3.10845
0
LINE
8
BLACK
6
CONTINUOUS
10
6.1264
20
-3.10845
11
6.12755
21
-3.11017
0
LINE
8
BLACK
6
CONTINUOUS
10
6.12755
20
-3.11017
11
6.12795
21
-3.1122
0
LINE
8
BLACK
6
CONTINUOUS
10
6.12795
20
-3.1122
11
6.12755
21
-3.11424
0
LINE
8
BLACK
6
CONTINUOUS
10
6.12755
20
-3.11424
11
6.1264
21
-3.11596
0
LINE
8
BLACK
6
CONTINUOUS
10
6.1264
20
-3.11596
11
6.12467
21
-3.11712
0
LINE
8
BLACK
6
CONTINUOUS
10
6.12467
20
-3.11712
11
6.12264
21
-3.11752
0
LINE
8
BLACK
6
CONTINUOUS
10
6.12264
20
-3.11752
11
6.08602
21
-3.11752
0
LINE
8
BLACK
6
CONTINUOUS
10
6.08602
20
-3.11752
11
6.08399
21
-3.11712
0
LINE
8
BLACK
6
CONTINUOUS
10
6.08399
20
-3.11712
11
6.08227
21
-3.11596
0
LINE
8
BLACK
6
CONTINUOUS
10
6.08227
20
-3.11596
11
6.08111
21
-3.11424
0
LINE
8
BLACK
6
CONTINUOUS
10
6.08111
20
-3.11424
11
6.08071
21
-3.1122
0
LINE
8
BLACK
6
CONTINUOUS
10
6.08071
20
-3.1122
11
6.08111
21
-3.11017
0
LINE
8
BLACK
6
CONTINUOUS
10
6.08111
20
-3.11017
11
6.08227
21
-3.10845
0
LINE
8
BLACK
6
CONTINUOUS
10
6.08227
20
-3.10845
11
6.08399
21
-3.10729
0
LINE
8
BLACK
6
CONTINUOUS
10
6.08399
20
-3.10729
11
6.08602
21
-3.10689
0
LINE
8
BLACK
6
CONTINUOUS
10
6.08602
20
-3.10689
11
6.12264
21
-3.10689
0
LINE
8
BLACK
6
CONTINUOUS
10
6.12264
20
-3.10689
11
6.12467
21
-3.10729
0
LINE
8
BLACK
6
CONTINUOUS
10
5.67192
20
-3.10729
11
5.67364
21
-3.10845
0
LINE
8
BLACK
6
CONTINUOUS
10
5.67364
20
-3.10845
11
5.67479
21
-3.11017
0
LINE
8
BLACK
6
CONTINUOUS
10
5.67479
20
-3.11017
11
5.6752
21
-3.1122
0
LINE
8
BLACK
6
CONTINUOUS
10
5.6752
20
-3.1122
11
5.67479
21
-3.11424
0
LINE
8
BLACK
6
CONTINUOUS
10
5.67479
20
-3.11424
11
5.67364
21
-3.11596
0
LINE
8
BLACK
6
CONTINUOUS
10
5.67364
20
-3.11596
11
5.67192
21
-3.11712
0
LINE
8
BLACK
6
CONTINUOUS
10
5.67192
20
-3.11712
11
5.66988
21
-3.11752
0
LINE
8
BLACK
6
CONTINUOUS
10
5.66988
20
-3.11752
11
5.63327
21
-3.11752
0
LINE
8
BLACK
6
CONTINUOUS
10
5.63327
20
-3.11752
11
5.63123
21
-3.11712
0
LINE
8
BLACK
6
CONTINUOUS
10
5.63123
20
-3.11712
11
5.62951
21
-3.11596
0
LINE
8
BLACK
6
CONTINUOUS
10
5.62951
20
-3.11596
11
5.62836
21
-3.11424
0
LINE
8
BLACK
6
CONTINUOUS
10
5.62836
20
-3.11424
11
5.62795
21
-3.1122
0
LINE
8
BLACK
6
CONTINUOUS
10
5.62795
20
-3.1122
11
5.62836
21
-3.11017
0
LINE
8
BLACK
6
CONTINUOUS
10
5.62836
20
-3.11017
11
5.62951
21
-3.10845
0
LINE
8
BLACK
6
CONTINUOUS
10
5.62951
20
-3.10845
11
5.63123
21
-3.10729
0
LINE
8
BLACK
6
CONTINUOUS
10
5.63123
20
-3.10729
11
5.63327
21
-3.10689
0
LINE
8
BLACK
6
CONTINUOUS
10
5.63327
20
-3.10689
11
5.66988
21
-3.10689
0
LINE
8
BLACK
6
CONTINUOUS
10
5.66988
20
-3.10689
11
5.67192
21
-3.10729
0
LINE
8
BLACK
6
CONTINUOUS
10
4.73972
20
-3.1137
11
4.66972
21
-3.1137
0
LINE
8
BLACK
6
CONTINUOUS
10
4.66972
20
-3.1137
11
4.66972
21
-3.0537
0
LINE
8
BLACK
6
CONTINUOUS
10
4.66972
20
-3.0537
11
4.73972
21
-3.0537
0
LINE
8
BLACK
6
CONTINUOUS
10
4.73972
20
-3.0537
11
4.73972
21
-3.1137
0
LINE
8
BLACK
6
CONTINUOUS
10
6.02762
20
-3.01025
11
6.02935
21
-3.0114
0
LINE
8
BLACK
6
CONTINUOUS
10
6.02935
20
-3.0114
11
6.0305
21
-3.01312
0
LINE
8
BLACK
6
CONTINUOUS
10
6.0305
20
-3.01312
11
6.03091
21
-3.01516
0
LINE
8
BLACK
6
CONTINUOUS
10
6.03091
20
-3.01516
11
6.03091
21
-3.05177
0
LINE
8
BLACK
6
CONTINUOUS
10
6.03091
20
-3.05177
11
6.0305
21
-3.05381
0
LINE
8
BLACK
6
CONTINUOUS
10
6.0305
20
-3.05381
11
6.02935
21
-3.05553
0
LINE
8
BLACK
6
CONTINUOUS
10
6.02935
20
-3.05553
11
6.02762
21
-3.05668
0
LINE
8
BLACK
6
CONTINUOUS
10
6.02762
20
-3.05668
11
6.02559
21
-3.05709
0
LINE
8
BLACK
6
CONTINUOUS
10
6.02559
20
-3.05709
11
6.02356
21
-3.05668
0
LINE
8
BLACK
6
CONTINUOUS
10
6.02356
20
-3.05668
11
6.02183
21
-3.05553
0
LINE
8
BLACK
6
CONTINUOUS
10
6.02183
20
-3.05553
11
6.02068
21
-3.05381
0
LINE
8
BLACK
6
CONTINUOUS
10
6.02068
20
-3.05381
11
6.02028
21
-3.05177
0
LINE
8
BLACK
6
CONTINUOUS
10
6.02028
20
-3.05177
11
6.02028
21
-3.01516
0
LINE
8
BLACK
6
CONTINUOUS
10
6.02028
20
-3.01516
11
6.02068
21
-3.01312
0
LINE
8
BLACK
6
CONTINUOUS
10
6.02068
20
-3.01312
11
6.02183
21
-3.0114
0
LINE
8
BLACK
6
CONTINUOUS
10
6.02183
20
-3.0114
11
6.02356
21
-3.01025
0
LINE
8
BLACK
6
CONTINUOUS
10
6.02356
20
-3.01025
11
6.02559
21
-3.00984
0
LINE
8
BLACK
6
CONTINUOUS
10
6.02559
20
-3.00984
11
6.02762
21
-3.01025
0
LINE
8
BLACK
6
CONTINUOUS
10
6.00794
20
-3.01025
11
6.00966
21
-3.0114
0
LINE
8
BLACK
6
CONTINUOUS
10
6.00966
20
-3.0114
11
6.01082
21
-3.01312
0
LINE
8
BLACK
6
CONTINUOUS
10
6.01082
20
-3.01312
11
6.01122
21
-3.01516
0
LINE
8
BLACK
6
CONTINUOUS
10
6.01122
20
-3.01516
11
6.01122
21
-3.05177
0
LINE
8
BLACK
6
CONTINUOUS
10
6.01122
20
-3.05177
11
6.01082
21
-3.05381
0
LINE
8
BLACK
6
CONTINUOUS
10
6.01082
20
-3.05381
11
6.00966
21
-3.05553
0
LINE
8
BLACK
6
CONTINUOUS
10
6.00966
20
-3.05553
11
6.00794
21
-3.05668
0
LINE
8
BLACK
6
CONTINUOUS
10
6.00794
20
-3.05668
11
6.00591
21
-3.05709
0
LINE
8
BLACK
6
CONTINUOUS
10
6.00591
20
-3.05709
11
6.00387
21
-3.05668
0
LINE
8
BLACK
6
CONTINUOUS
10
6.00387
20
-3.05668
11
6.00215
21
-3.05553
0
LINE
8
BLACK
6
CONTINUOUS
10
6.00215
20
-3.05553
11
6.001
21
-3.05381
0
LINE
8
BLACK
6
CONTINUOUS
10
6.001
20
-3.05381
11
6.00059
21
-3.05177
0
LINE
8
BLACK
6
CONTINUOUS
10
6.00059
20
-3.05177
11
6.00059
21
-3.01516
0
LINE
8
BLACK
6
CONTINUOUS
10
6.00059
20
-3.01516
11
6.001
21
-3.01312
0
LINE
8
BLACK
6
CONTINUOUS
10
6.001
20
-3.01312
11
6.00215
21
-3.0114
0
LINE
8
BLACK
6
CONTINUOUS
10
6.00215
20
-3.0114
11
6.00387
21
-3.01025
0
LINE
8
BLACK
6
CONTINUOUS
10
6.00387
20
-3.01025
11
6.00591
21
-3.00984
0
LINE
8
BLACK
6
CONTINUOUS
10
6.00591
20
-3.00984
11
6.00794
21
-3.01025
0
LINE
8
BLACK
6
CONTINUOUS
10
5.98825
20
-3.01025
11
5.98998
21
-3.0114
0
LINE
8
BLACK
6
CONTINUOUS
10
5.98998
20
-3.0114
11
5.99113
21
-3.01312
0
LINE
8
BLACK
6
CONTINUOUS
10
5.99113
20
-3.01312
11
5.99154
21
-3.01516
0
LINE
8
BLACK
6
CONTINUOUS
10
5.99154
20
-3.01516
11
5.99154
21
-3.05177
0
LINE
8
BLACK
6
CONTINUOUS
10
5.99154
20
-3.05177
11
5.99113
21
-3.05381
0
LINE
8
BLACK
6
CONTINUOUS
10
5.99113
20
-3.05381
11
5.98998
21
-3.05553
0
LINE
8
BLACK
6
CONTINUOUS
10
5.98998
20
-3.05553
11
5.98825
21
-3.05668
0
LINE
8
BLACK
6
CONTINUOUS
10
5.98825
20
-3.05668
11
5.98622
21
-3.05709
0
LINE
8
BLACK
6
CONTINUOUS
10
5.98622
20
-3.05709
11
5.98419
21
-3.05668
0
LINE
8
BLACK
6
CONTINUOUS
10
5.98419
20
-3.05668
11
5.98246
21
-3.05553
0
LINE
8
BLACK
6
CONTINUOUS
10
5.98246
20
-3.05553
11
5.98131
21
-3.05381
0
LINE
8
BLACK
6
CONTINUOUS
10
5.98131
20
-3.05381
11
5.98091
21
-3.05177
0
LINE
8
BLACK
6
CONTINUOUS
10
5.98091
20
-3.05177
11
5.98091
21
-3.01516
0
LINE
8
BLACK
6
CONTINUOUS
10
5.98091
20
-3.01516
11
5.98131
21
-3.01312
0
LINE
8
BLACK
6
CONTINUOUS
10
5.98131
20
-3.01312
11
5.98246
21
-3.0114
0
LINE
8
BLACK
6
CONTINUOUS
10
5.98246
20
-3.0114
11
5.98419
21
-3.01025
0
LINE
8
BLACK
6
CONTINUOUS
10
5.98419
20
-3.01025
11
5.98622
21
-3.00984
0
LINE
8
BLACK
6
CONTINUOUS
10
5.98622
20
-3.00984
11
5.98825
21
-3.01025
0
LINE
8
BLACK
6
CONTINUOUS
10
5.96857
20
-3.01025
11
5.97029
21
-3.0114
0
LINE
8
BLACK
6
CONTINUOUS
10
5.97029
20
-3.0114
11
5.97145
21
-3.01312
0
LINE
8
BLACK
6
CONTINUOUS
10
5.97145
20
-3.01312
11
5.97185
21
-3.01516
0
LINE
8
BLACK
6
CONTINUOUS
10
5.97185
20
-3.01516
11
5.97185
21
-3.05177
0
LINE
8
BLACK
6
CONTINUOUS
10
5.97185
20
-3.05177
11
5.97145
21
-3.05381
0
LINE
8
BLACK
6
CONTINUOUS
10
5.97145
20
-3.05381
11
5.97029
21
-3.05553
0
LINE
8
BLACK
6
CONTINUOUS
10
5.97029
20
-3.05553
11
5.96857
21
-3.05668
0
LINE
8
BLACK
6
CONTINUOUS
10
5.96857
20
-3.05668
11
5.96654
21
-3.05709
0
LINE
8
BLACK
6
CONTINUOUS
10
5.96654
20
-3.05709
11
5.9645
21
-3.05668
0
LINE
8
BLACK
6
CONTINUOUS
10
5.9645
20
-3.05668
11
5.96278
21
-3.05553
0
LINE
8
BLACK
6
CONTINUOUS
10
5.96278
20
-3.05553
11
5.96163
21
-3.05381
0
LINE
8
BLACK
6
CONTINUOUS
10
5.96163
20
-3.05381
11
5.96122
21
-3.05177
0
LINE
8
BLACK
6
CONTINUOUS
10
5.96122
20
-3.05177
11
5.96122
21
-3.01516
0
LINE
8
BLACK
6
CONTINUOUS
10
5.96122
20
-3.01516
11
5.96163
21
-3.01312
0
LINE
8
BLACK
6
CONTINUOUS
10
5.96163
20
-3.01312
11
5.96278
21
-3.0114
0
LINE
8
BLACK
6
CONTINUOUS
10
5.96278
20
-3.0114
11
5.9645
21
-3.01025
0
LINE
8
BLACK
6
CONTINUOUS
10
5.9645
20
-3.01025
11
5.96654
21
-3.00984
0
LINE
8
BLACK
6
CONTINUOUS
10
5.96654
20
-3.00984
11
5.96857
21
-3.01025
0
LINE
8
BLACK
6
CONTINUOUS
10
5.94888
20
-3.01025
11
5.95061
21
-3.0114
0
LINE
8
BLACK
6
CONTINUOUS
10
5.95061
20
-3.0114
11
5.95176
21
-3.01312
0
LINE
8
BLACK
6
CONTINUOUS
10
5.95176
20
-3.01312
11
5.95217
21
-3.01516
0
LINE
8
BLACK
6
CONTINUOUS
10
5.95217
20
-3.01516
11
5.95217
21
-3.05177
0
LINE
8
BLACK
6
CONTINUOUS
10
5.95217
20
-3.05177
11
5.95176
21
-3.05381
0
LINE
8
BLACK
6
CONTINUOUS
10
5.95176
20
-3.05381
11
5.95061
21
-3.05553
0
LINE
8
BLACK
6
CONTINUOUS
10
5.95061
20
-3.05553
11
5.94888
21
-3.05668
0
LINE
8
BLACK
6
CONTINUOUS
10
5.94888
20
-3.05668
11
5.94685
21
-3.05709
0
LINE
8
BLACK
6
CONTINUOUS
10
5.94685
20
-3.05709
11
5.94482
21
-3.05668
0
LINE
8
BLACK
6
CONTINUOUS
10
5.94482
20
-3.05668
11
5.94309
21
-3.05553
0
LINE
8
BLACK
6
CONTINUOUS
10
5.94309
20
-3.05553
11
5.94194
21
-3.05381
0
LINE
8
BLACK
6
CONTINUOUS
10
5.94194
20
-3.05381
11
5.94154
21
-3.05177
0
LINE
8
BLACK
6
CONTINUOUS
10
5.94154
20
-3.05177
11
5.94154
21
-3.01516
0
LINE
8
BLACK
6
CONTINUOUS
10
5.94154
20
-3.01516
11
5.94194
21
-3.01312
0
LINE
8
BLACK
6
CONTINUOUS
10
5.94194
20
-3.01312
11
5.94309
21
-3.0114
0
LINE
8
BLACK
6
CONTINUOUS
10
5.94309
20
-3.0114
11
5.94482
21
-3.01025
0
LINE
8
BLACK
6
CONTINUOUS
10
5.94482
20
-3.01025
11
5.94685
21
-3.00984
0
LINE
8
BLACK
6
CONTINUOUS
10
5.94685
20
-3.00984
11
5.94888
21
-3.01025
0
LINE
8
BLACK
6
CONTINUOUS
10
5.9292
20
-3.01025
11
5.93092
21
-3.0114
0
LINE
8
BLACK
6
CONTINUOUS
10
5.93092
20
-3.0114
11
5.93208
21
-3.01312
0
LINE
8
BLACK
6
CONTINUOUS
10
5.93208
20
-3.01312
11
5.93248
21
-3.01516
0
LINE
8
BLACK
6
CONTINUOUS
10
5.93248
20
-3.01516
11
5.93248
21
-3.05177
0
LINE
8
BLACK
6
CONTINUOUS
10
5.93248
20
-3.05177
11
5.93208
21
-3.05381
0
LINE
8
BLACK
6
CONTINUOUS
10
5.93208
20
-3.05381
11
5.93092
21
-3.05553
0
LINE
8
BLACK
6
CONTINUOUS
10
5.93092
20
-3.05553
11
5.9292
21
-3.05668
0
LINE
8
BLACK
6
CONTINUOUS
10
5.9292
20
-3.05668
11
5.92717
21
-3.05709
0
LINE
8
BLACK
6
CONTINUOUS
10
5.92717
20
-3.05709
11
5.92513
21
-3.05668
0
LINE
8
BLACK
6
CONTINUOUS
10
5.92513
20
-3.05668
11
5.92341
21
-3.05553
0
LINE
8
BLACK
6
CONTINUOUS
10
5.92341
20
-3.05553
11
5.92225
21
-3.05381
0
LINE
8
BLACK
6
CONTINUOUS
10
5.92225
20
-3.05381
11
5.92185
21
-3.05177
0
LINE
8
BLACK
6
CONTINUOUS
10
5.92185
20
-3.05177
11
5.92185
21
-3.01516
0
LINE
8
BLACK
6
CONTINUOUS
10
5.92185
20
-3.01516
11
5.92225
21
-3.01312
0
LINE
8
BLACK
6
CONTINUOUS
10
5.92225
20
-3.01312
11
5.92341
21
-3.0114
0
LINE
8
BLACK
6
CONTINUOUS
10
5.92341
20
-3.0114
11
5.92513
21
-3.01025
0
LINE
8
BLACK
6
CONTINUOUS
10
5.92513
20
-3.01025
11
5.92717
21
-3.00984
0
LINE
8
BLACK
6
CONTINUOUS
10
5.92717
20
-3.00984
11
5.9292
21
-3.01025
0
LINE
8
BLACK
6
CONTINUOUS
10
5.90951
20
-3.01025
11
5.91124
21
-3.0114
0
LINE
8
BLACK
6
CONTINUOUS
10
5.91124
20
-3.0114
11
5.91239
21
-3.01312
0
LINE
8
BLACK
6
CONTINUOUS
10
5.91239
20
-3.01312
11
5.9128
21
-3.01516
0
LINE
8
BLACK
6
CONTINUOUS
10
5.9128
20
-3.01516
11
5.9128
21
-3.05177
0
LINE
8
BLACK
6
CONTINUOUS
10
5.9128
20
-3.05177
11
5.91239
21
-3.05381
0
LINE
8
BLACK
6
CONTINUOUS
10
5.91239
20
-3.05381
11
5.91124
21
-3.05553
0
LINE
8
BLACK
6
CONTINUOUS
10
5.91124
20
-3.05553
11
5.90951
21
-3.05668
0
LINE
8
BLACK
6
CONTINUOUS
10
5.90951
20
-3.05668
11
5.90748
21
-3.05709
0
LINE
8
BLACK
6
CONTINUOUS
10
5.90748
20
-3.05709
11
5.90545
21
-3.05668
0
LINE
8
BLACK
6
CONTINUOUS
10
5.90545
20
-3.05668
11
5.90372
21
-3.05553
0
LINE
8
BLACK
6
CONTINUOUS
10
5.90372
20
-3.05553
11
5.90257
21
-3.05381
0
LINE
8
BLACK
6
CONTINUOUS
10
5.90257
20
-3.05381
11
5.90217
21
-3.05177
0
LINE
8
BLACK
6
CONTINUOUS
10
5.90217
20
-3.05177
11
5.90217
21
-3.01516
0
LINE
8
BLACK
6
CONTINUOUS
10
5.90217
20
-3.01516
11
5.90257
21
-3.01312
0
LINE
8
BLACK
6
CONTINUOUS
10
5.90257
20
-3.01312
11
5.90372
21
-3.0114
0
LINE
8
BLACK
6
CONTINUOUS
10
5.90372
20
-3.0114
11
5.90545
21
-3.01025
0
LINE
8
BLACK
6
CONTINUOUS
10
5.90545
20
-3.01025
11
5.90748
21
-3.00984
0
LINE
8
BLACK
6
CONTINUOUS
10
5.90748
20
-3.00984
11
5.90951
21
-3.01025
0
LINE
8
BLACK
6
CONTINUOUS
10
5.88983
20
-3.01025
11
5.89155
21
-3.0114
0
LINE
8
BLACK
6
CONTINUOUS
10
5.89155
20
-3.0114
11
5.89271
21
-3.01312
0
LINE
8
BLACK
6
CONTINUOUS
10
5.89271
20
-3.01312
11
5.89311
21
-3.01516
0
LINE
8
BLACK
6
CONTINUOUS
10
5.89311
20
-3.01516
11
5.89311
21
-3.05177
0
LINE
8
BLACK
6
CONTINUOUS
10
5.89311
20
-3.05177
11
5.89271
21
-3.05381
0
LINE
8
BLACK
6
CONTINUOUS
10
5.89271
20
-3.05381
11
5.89155
21
-3.05553
0
LINE
8
BLACK
6
CONTINUOUS
10
5.89155
20
-3.05553
11
5.88983
21
-3.05668
0
LINE
8
BLACK
6
CONTINUOUS
10
5.88983
20
-3.05668
11
5.8878
21
-3.05709
0
LINE
8
BLACK
6
CONTINUOUS
10
5.8878
20
-3.05709
11
5.88576
21
-3.05668
0
LINE
8
BLACK
6
CONTINUOUS
10
5.88576
20
-3.05668
11
5.88404
21
-3.05553
0
LINE
8
BLACK
6
CONTINUOUS
10
5.88404
20
-3.05553
11
5.88288
21
-3.05381
0
LINE
8
BLACK
6
CONTINUOUS
10
5.88288
20
-3.05381
11
5.88248
21
-3.05177
0
LINE
8
BLACK
6
CONTINUOUS
10
5.88248
20
-3.05177
11
5.88248
21
-3.01516
0
LINE
8
BLACK
6
CONTINUOUS
10
5.88248
20
-3.01516
11
5.88288
21
-3.01312
0
LINE
8
BLACK
6
CONTINUOUS
10
5.88288
20
-3.01312
11
5.88404
21
-3.0114
0
LINE
8
BLACK
6
CONTINUOUS
10
5.88404
20
-3.0114
11
5.88576
21
-3.01025
0
LINE
8
BLACK
6
CONTINUOUS
10
5.88576
20
-3.01025
11
5.8878
21
-3.00984
0
LINE
8
BLACK
6
CONTINUOUS
10
5.8878
20
-3.00984
11
5.88983
21
-3.01025
0
LINE
8
BLACK
6
CONTINUOUS
10
5.87014
20
-3.01025
11
5.87187
21
-3.0114
0
LINE
8
BLACK
6
CONTINUOUS
10
5.87187
20
-3.0114
11
5.87302
21
-3.01312
0
LINE
8
BLACK
6
CONTINUOUS
10
5.87302
20
-3.01312
11
5.87343
21
-3.01516
0
LINE
8
BLACK
6
CONTINUOUS
10
5.87343
20
-3.01516
11
5.87343
21
-3.05177
0
LINE
8
BLACK
6
CONTINUOUS
10
5.87343
20
-3.05177
11
5.87302
21
-3.05381
0
LINE
8
BLACK
6
CONTINUOUS
10
5.87302
20
-3.05381
11
5.87187
21
-3.05553
0
LINE
8
BLACK
6
CONTINUOUS
10
5.87187
20
-3.05553
11
5.87014
21
-3.05668
0
LINE
8
BLACK
6
CONTINUOUS
10
5.87014
20
-3.05668
11
5.86811
21
-3.05709
0
LINE
8
BLACK
6
CONTINUOUS
10
5.86811
20
-3.05709
11
5.86608
21
-3.05668
0
LINE
8
BLACK
6
CONTINUOUS
10
5.86608
20
-3.05668
11
5.86435
21
-3.05553
0
LINE
8
BLACK
6
CONTINUOUS
10
5.86435
20
-3.05553
11
5.8632
21
-3.05381
0
LINE
8
BLACK
6
CONTINUOUS
10
5.8632
20
-3.05381
11
5.8628
21
-3.05177
0
LINE
8
BLACK
6
CONTINUOUS
10
5.8628
20
-3.05177
11
5.8628
21
-3.01516
0
LINE
8
BLACK
6
CONTINUOUS
10
5.8628
20
-3.01516
11
5.8632
21
-3.01312
0
LINE
8
BLACK
6
CONTINUOUS
10
5.8632
20
-3.01312
11
5.86435
21
-3.0114
0
LINE
8
BLACK
6
CONTINUOUS
10
5.86435
20
-3.0114
11
5.86608
21
-3.01025
0
LINE
8
BLACK
6
CONTINUOUS
10
5.86608
20
-3.01025
11
5.86811
21
-3.00984
0
LINE
8
BLACK
6
CONTINUOUS
10
5.86811
20
-3.00984
11
5.87014
21
-3.01025
0
LINE
8
BLACK
6
CONTINUOUS
10
5.85046
20
-3.01025
11
5.85218
21
-3.0114
0
LINE
8
BLACK
6
CONTINUOUS
10
5.85218
20
-3.0114
11
5.85334
21
-3.01312
0
LINE
8
BLACK
6
CONTINUOUS
10
5.85334
20
-3.01312
11
5.85374
21
-3.01516
0
LINE
8
BLACK
6
CONTINUOUS
10
5.85374
20
-3.01516
11
5.85374
21
-3.05177
0
LINE
8
BLACK
6
CONTINUOUS
10
5.85374
20
-3.05177
11
5.85334
21
-3.05381
0
LINE
8
BLACK
6
CONTINUOUS
10
5.85334
20
-3.05381
11
5.85218
21
-3.05553
0
LINE
8
BLACK
6
CONTINUOUS
10
5.85218
20
-3.05553
11
5.85046
21
-3.05668
0
LINE
8
BLACK
6
CONTINUOUS
10
5.85046
20
-3.05668
11
5.84843
21
-3.05709
0
LINE
8
BLACK
6
CONTINUOUS
10
5.84843
20
-3.05709
11
5.84639
21
-3.05668
0
LINE
8
BLACK
6
CONTINUOUS
10
5.84639
20
-3.05668
11
5.84467
21
-3.05553
0
LINE
8
BLACK
6
CONTINUOUS
10
5.84467
20
-3.05553
11
5.84351
21
-3.05381
0
LINE
8
BLACK
6
CONTINUOUS
10
5.84351
20
-3.05381
11
5.84311
21
-3.05177
0
LINE
8
BLACK
6
CONTINUOUS
10
5.84311
20
-3.05177
11
5.84311
21
-3.01516
0
LINE
8
BLACK
6
CONTINUOUS
10
5.84311
20
-3.01516
11
5.84351
21
-3.01312
0
LINE
8
BLACK
6
CONTINUOUS
10
5.84351
20
-3.01312
11
5.84467
21
-3.0114
0
LINE
8
BLACK
6
CONTINUOUS
10
5.84467
20
-3.0114
11
5.84639
21
-3.01025
0
LINE
8
BLACK
6
CONTINUOUS
10
5.84639
20
-3.01025
11
5.84843
21
-3.00984
0
LINE
8
BLACK
6
CONTINUOUS
10
5.84843
20
-3.00984
11
5.85046
21
-3.01025
0
LINE
8
BLACK
6
CONTINUOUS
10
5.83077
20
-3.01025
11
5.8325
21
-3.0114
0
LINE
8
BLACK
6
CONTINUOUS
10
5.8325
20
-3.0114
11
5.83365
21
-3.01312
0
LINE
8
BLACK
6
CONTINUOUS
10
5.83365
20
-3.01312
11
5.83406
21
-3.01516
0
LINE
8
BLACK
6
CONTINUOUS
10
5.83406
20
-3.01516
11
5.83406
21
-3.05177
0
LINE
8
BLACK
6
CONTINUOUS
10
5.83406
20
-3.05177
11
5.83365
21
-3.05381
0
LINE
8
BLACK
6
CONTINUOUS
10
5.83365
20
-3.05381
11
5.8325
21
-3.05553
0
LINE
8
BLACK
6
CONTINUOUS
10
5.8325
20
-3.05553
11
5.83077
21
-3.05668
0
LINE
8
BLACK
6
CONTINUOUS
10
5.83077
20
-3.05668
11
5.82874
21
-3.05709
0
LINE
8
BLACK
6
CONTINUOUS
10
5.82874
20
-3.05709
11
5.82671
21
-3.05668
0
LINE
8
BLACK
6
CONTINUOUS
10
5.82671
20
-3.05668
11
5.82498
21
-3.05553
0
LINE
8
BLACK
6
CONTINUOUS
10
5.82498
20
-3.05553
11
5.82383
21
-3.05381
0
LINE
8
BLACK
6
CONTINUOUS
10
5.82383
20
-3.05381
11
5.82343
21
-3.05177
0
LINE
8
BLACK
6
CONTINUOUS
10
5.82343
20
-3.05177
11
5.82343
21
-3.01516
0
LINE
8
BLACK
6
CONTINUOUS
10
5.82343
20
-3.01516
11
5.82383
21
-3.01312
0
LINE
8
BLACK
6
CONTINUOUS
10
5.82383
20
-3.01312
11
5.82498
21
-3.0114
0
LINE
8
BLACK
6
CONTINUOUS
10
5.82498
20
-3.0114
11
5.82671
21
-3.01025
0
LINE
8
BLACK
6
CONTINUOUS
10
5.82671
20
-3.01025
11
5.82874
21
-3.00984
0
LINE
8
BLACK
6
CONTINUOUS
10
5.82874
20
-3.00984
11
5.83077
21
-3.01025
0
LINE
8
BLACK
6
CONTINUOUS
10
5.81109
20
-3.01025
11
5.81281
21
-3.0114
0
LINE
8
BLACK
6
CONTINUOUS
10
5.81281
20
-3.0114
11
5.81397
21
-3.01312
0
LINE
8
BLACK
6
CONTINUOUS
10
5.81397
20
-3.01312
11
5.81437
21
-3.01516
0
LINE
8
BLACK
6
CONTINUOUS
10
5.81437
20
-3.01516
11
5.81437
21
-3.05177
0
LINE
8
BLACK
6
CONTINUOUS
10
5.81437
20
-3.05177
11
5.81397
21
-3.05381
0
LINE
8
BLACK
6
CONTINUOUS
10
5.81397
20
-3.05381
11
5.81281
21
-3.05553
0
LINE
8
BLACK
6
CONTINUOUS
10
5.81281
20
-3.05553
11
5.81109
21
-3.05668
0
LINE
8
BLACK
6
CONTINUOUS
10
5.81109
20
-3.05668
11
5.80906
21
-3.05709
0
LINE
8
BLACK
6
CONTINUOUS
10
5.80906
20
-3.05709
11
5.80702
21
-3.05668
0
LINE
8
BLACK
6
CONTINUOUS
10
5.80702
20
-3.05668
11
5.8053
21
-3.05553
0
LINE
8
BLACK
6
CONTINUOUS
10
5.8053
20
-3.05553
11
5.80414
21
-3.05381
0
LINE
8
BLACK
6
CONTINUOUS
10
5.80414
20
-3.05381
11
5.80374
21
-3.05177
0
LINE
8
BLACK
6
CONTINUOUS
10
5.80374
20
-3.05177
11
5.80374
21
-3.01516
0
LINE
8
BLACK
6
CONTINUOUS
10
5.80374
20
-3.01516
11
5.80414
21
-3.01312
0
LINE
8
BLACK
6
CONTINUOUS
10
5.80414
20
-3.01312
11
5.8053
21
-3.0114
0
LINE
8
BLACK
6
CONTINUOUS
10
5.8053
20
-3.0114
11
5.80702
21
-3.01025
0
LINE
8
BLACK
6
CONTINUOUS
10
5.80702
20
-3.01025
11
5.80906
21
-3.00984
0
LINE
8
BLACK
6
CONTINUOUS
10
5.80906
20
-3.00984
11
5.81109
21
-3.01025
0
LINE
8
BLACK
6
CONTINUOUS
10
5.7914
20
-3.01025
11
5.79313
21
-3.0114
0
LINE
8
BLACK
6
CONTINUOUS
10
5.79313
20
-3.0114
11
5.79428
21
-3.01312
0
LINE
8
BLACK
6
CONTINUOUS
10
5.79428
20
-3.01312
11
5.79469
21
-3.01516
0
LINE
8
BLACK
6
CONTINUOUS
10
5.79469
20
-3.01516
11
5.79469
21
-3.05177
0
LINE
8
BLACK
6
CONTINUOUS
10
5.79469
20
-3.05177
11
5.79428
21
-3.05381
0
LINE
8
BLACK
6
CONTINUOUS
10
5.79428
20
-3.05381
11
5.79313
21
-3.05553
0
LINE
8
BLACK
6
CONTINUOUS
10
5.79313
20
-3.05553
11
5.7914
21
-3.05668
0
LINE
8
BLACK
6
CONTINUOUS
10
5.7914
20
-3.05668
11
5.78937
21
-3.05709
0
LINE
8
BLACK
6
CONTINUOUS
10
5.78937
20
-3.05709
11
5.78734
21
-3.05668
0
LINE
8
BLACK
6
CONTINUOUS
10
5.78734
20
-3.05668
11
5.78561
21
-3.05553
0
LINE
8
BLACK
6
CONTINUOUS
10
5.78561
20
-3.05553
11
5.78446
21
-3.05381
0
LINE
8
BLACK
6
CONTINUOUS
10
5.78446
20
-3.05381
11
5.78406
21
-3.05177
0
LINE
8
BLACK
6
CONTINUOUS
10
5.78406
20
-3.05177
11
5.78406
21
-3.01516
0
LINE
8
BLACK
6
CONTINUOUS
10
5.78406
20
-3.01516
11
5.78446
21
-3.01312
0
LINE
8
BLACK
6
CONTINUOUS
10
5.78446
20
-3.01312
11
5.78561
21
-3.0114
0
LINE
8
BLACK
6
CONTINUOUS
10
5.78561
20
-3.0114
11
5.78734
21
-3.01025
0
LINE
8
BLACK
6
CONTINUOUS
10
5.78734
20
-3.01025
11
5.78937
21
-3.00984
0
LINE
8
BLACK
6
CONTINUOUS
10
5.78937
20
-3.00984
11
5.7914
21
-3.01025
0
LINE
8
BLACK
6
CONTINUOUS
10
5.77172
20
-3.01025
11
5.77344
21
-3.0114
0
LINE
8
BLACK
6
CONTINUOUS
10
5.77344
20
-3.0114
11
5.7746
21
-3.01312
0
LINE
8
BLACK
6
CONTINUOUS
10
5.7746
20
-3.01312
11
5.775
21
-3.01516
0
LINE
8
BLACK
6
CONTINUOUS
10
5.775
20
-3.01516
11
5.775
21
-3.05177
0
LINE
8
BLACK
6
CONTINUOUS
10
5.775
20
-3.05177
11
5.7746
21
-3.05381
0
LINE
8
BLACK
6
CONTINUOUS
10
5.7746
20
-3.05381
11
5.77344
21
-3.05553
0
LINE
8
BLACK
6
CONTINUOUS
10
5.77344
20
-3.05553
11
5.77172
21
-3.05668
0
LINE
8
BLACK
6
CONTINUOUS
10
5.77172
20
-3.05668
11
5.76969
21
-3.05709
0
LINE
8
BLACK
6
CONTINUOUS
10
5.76969
20
-3.05709
11
5.76765
21
-3.05668
0
LINE
8
BLACK
6
CONTINUOUS
10
5.76765
20
-3.05668
11
5.76593
21
-3.05553
0
LINE
8
BLACK
6
CONTINUOUS
10
5.76593
20
-3.05553
11
5.76477
21
-3.05381
0
LINE
8
BLACK
6
CONTINUOUS
10
5.76477
20
-3.05381
11
5.76437
21
-3.05177
0
LINE
8
BLACK
6
CONTINUOUS
10
5.76437
20
-3.05177
11
5.76437
21
-3.01516
0
LINE
8
BLACK
6
CONTINUOUS
10
5.76437
20
-3.01516
11
5.76477
21
-3.01312
0
LINE
8
BLACK
6
CONTINUOUS
10
5.76477
20
-3.01312
11
5.76593
21
-3.0114
0
LINE
8
BLACK
6
CONTINUOUS
10
5.76593
20
-3.0114
11
5.76765
21
-3.01025
0
LINE
8
BLACK
6
CONTINUOUS
10
5.76765
20
-3.01025
11
5.76969
21
-3.00984
0
LINE
8
BLACK
6
CONTINUOUS
10
5.76969
20
-3.00984
11
5.77172
21
-3.01025
0
LINE
8
BLACK
6
CONTINUOUS
10
5.75203
20
-3.01025
11
5.75376
21
-3.0114
0
LINE
8
BLACK
6
CONTINUOUS
10
5.75376
20
-3.0114
11
5.75491
21
-3.01312
0
LINE
8
BLACK
6
CONTINUOUS
10
5.75491
20
-3.01312
11
5.75531
21
-3.01516
0
LINE
8
BLACK
6
CONTINUOUS
10
5.75531
20
-3.01516
11
5.75531
21
-3.05177
0
LINE
8
BLACK
6
CONTINUOUS
10
5.75531
20
-3.05177
11
5.75491
21
-3.05381
0
LINE
8
BLACK
6
CONTINUOUS
10
5.75491
20
-3.05381
11
5.75376
21
-3.05553
0
LINE
8
BLACK
6
CONTINUOUS
10
5.75376
20
-3.05553
11
5.75203
21
-3.05668
0
LINE
8
BLACK
6
CONTINUOUS
10
5.75203
20
-3.05668
11
5.75
21
-3.05709
0
LINE
8
BLACK
6
CONTINUOUS
10
5.75
20
-3.05709
11
5.74797
21
-3.05668
0
LINE
8
BLACK
6
CONTINUOUS
10
5.74797
20
-3.05668
11
5.74624
21
-3.05553
0
LINE
8
BLACK
6
CONTINUOUS
10
5.74624
20
-3.05553
11
5.74509
21
-3.05381
0
LINE
8
BLACK
6
CONTINUOUS
10
5.74509
20
-3.05381
11
5.74469
21
-3.05177
0
LINE
8
BLACK
6
CONTINUOUS
10
5.74469
20
-3.05177
11
5.74469
21
-3.01516
0
LINE
8
BLACK
6
CONTINUOUS
10
5.74469
20
-3.01516
11
5.74509
21
-3.01312
0
LINE
8
BLACK
6
CONTINUOUS
10
5.74509
20
-3.01312
11
5.74624
21
-3.0114
0
LINE
8
BLACK
6
CONTINUOUS
10
5.74624
20
-3.0114
11
5.74797
21
-3.01025
0
LINE
8
BLACK
6
CONTINUOUS
10
5.74797
20
-3.01025
11
5.75
21
-3.00984
0
LINE
8
BLACK
6
CONTINUOUS
10
5.75
20
-3.00984
11
5.75203
21
-3.01025
0
LINE
8
BLACK
6
CONTINUOUS
10
5.73235
20
-3.01025
11
5.73407
21
-3.0114
0
LINE
8
BLACK
6
CONTINUOUS
10
5.73407
20
-3.0114
11
5.73523
21
-3.01312
0
LINE
8
BLACK
6
CONTINUOUS
10
5.73523
20
-3.01312
11
5.73563
21
-3.01516
0
LINE
8
BLACK
6
CONTINUOUS
10
5.73563
20
-3.01516
11
5.73563
21
-3.05177
0
LINE
8
BLACK
6
CONTINUOUS
10
5.73563
20
-3.05177
11
5.73523
21
-3.05381
0
LINE
8
BLACK
6
CONTINUOUS
10
5.73523
20
-3.05381
11
5.73407
21
-3.05553
0
LINE
8
BLACK
6
CONTINUOUS
10
5.73407
20
-3.05553
11
5.73235
21
-3.05668
0
LINE
8
BLACK
6
CONTINUOUS
10
5.73235
20
-3.05668
11
5.73031
21
-3.05709
0
LINE
8
BLACK
6
CONTINUOUS
10
5.73031
20
-3.05709
11
5.72828
21
-3.05668
0
LINE
8
BLACK
6
CONTINUOUS
10
5.72828
20
-3.05668
11
5.72656
21
-3.05553
0
LINE
8
BLACK
6
CONTINUOUS
10
5.72656
20
-3.05553
11
5.7254
21
-3.05381
0
LINE
8
BLACK
6
CONTINUOUS
10
5.7254
20
-3.05381
11
5.725
21
-3.05177
0
LINE
8
BLACK
6
CONTINUOUS
10
5.725
20
-3.05177
11
5.725
21
-3.01516
0
LINE
8
BLACK
6
CONTINUOUS
10
5.725
20
-3.01516
11
5.7254
21
-3.01312
0
LINE
8
BLACK
6
CONTINUOUS
10
5.7254
20
-3.01312
11
5.72656
21
-3.0114
0
LINE
8
BLACK
6
CONTINUOUS
10
5.72656
20
-3.0114
11
5.72828
21
-3.01025
0
LINE
8
BLACK
6
CONTINUOUS
10
5.72828
20
-3.01025
11
5.73031
21
-3.00984
0
LINE
8
BLACK
6
CONTINUOUS
10
5.73031
20
-3.00984
11
5.73235
21
-3.01025
0
LINE
8
BLACK
6
CONTINUOUS
10
6.40189
20
-3.05537
11
6.36189
21
-3.05537
0
LINE
8
BLACK
6
CONTINUOUS
10
6.36189
20
-3.05537
11
6.36189
21
-3.02037
0
LINE
8
BLACK
6
CONTINUOUS
10
6.36189
20
-3.02037
11
6.40189
21
-3.02037
0
LINE
8
BLACK
6
CONTINUOUS
10
6.40189
20
-3.02037
11
6.40189
21
-3.05537
0
LINE
8
BLACK
6
CONTINUOUS
10
6.33858
20
-3.05512
11
6.30315
21
-3.05512
0
LINE
8
BLACK
6
CONTINUOUS
10
6.30315
20
-3.05512
11
6.30315
21
-3.01575
0
LINE
8
BLACK
6
CONTINUOUS
10
6.30315
20
-3.01575
11
6.33858
21
-3.01575
0
LINE
8
BLACK
6
CONTINUOUS
10
6.33858
20
-3.01575
11
6.33858
21
-3.05512
0
LINE
8
BLACK
6
CONTINUOUS
10
6.27953
20
-3.05512
11
6.24409
21
-3.05512
0
LINE
8
BLACK
6
CONTINUOUS
10
6.24409
20
-3.05512
11
6.24409
21
-3.01575
0
LINE
8
BLACK
6
CONTINUOUS
10
6.24409
20
-3.01575
11
6.27953
21
-3.01575
0
LINE
8
BLACK
6
CONTINUOUS
10
6.27953
20
-3.01575
11
6.27953
21
-3.05512
0
LINE
8
BLACK
6
CONTINUOUS
10
6.40189
20
-2.99537
11
6.36189
21
-2.99537
0
LINE
8
BLACK
6
CONTINUOUS
10
6.36189
20
-2.99537
11
6.36189
21
-2.96037
0
LINE
8
BLACK
6
CONTINUOUS
10
6.36189
20
-2.96037
11
6.40189
21
-2.96037
0
LINE
8
BLACK
6
CONTINUOUS
10
6.40189
20
-2.96037
11
6.40189
21
-2.99537
0
LINE
8
BLACK
6
CONTINUOUS
10
6.04356
20
-2.98457
11
6.00856
21
-2.98457
0
LINE
8
BLACK
6
CONTINUOUS
10
6.00856
20
-2.98457
11
6.00856
21
-2.94457
0
LINE
8
BLACK
6
CONTINUOUS
10
6.00856
20
-2.94457
11
6.04356
21
-2.94457
0
LINE
8
BLACK
6
CONTINUOUS
10
6.04356
20
-2.94457
11
6.04356
21
-2.98457
0
LINE
8
BLACK
6
CONTINUOUS
10
5.98356
20
-2.98457
11
5.94856
21
-2.98457
0
LINE
8
BLACK
6
CONTINUOUS
10
5.94856
20
-2.98457
11
5.94856
21
-2.94457
0
LINE
8
BLACK
6
CONTINUOUS
10
5.94856
20
-2.94457
11
5.98356
21
-2.94457
0
LINE
8
BLACK
6
CONTINUOUS
10
5.98356
20
-2.94457
11
5.98356
21
-2.98457
0
LINE
8
BLACK
6
CONTINUOUS
10
5.78766
20
-2.98457
11
5.75266
21
-2.98457
0
LINE
8
BLACK
6
CONTINUOUS
10
5.75266
20
-2.98457
11
5.75266
21
-2.94457
0
LINE
8
BLACK
6
CONTINUOUS
10
5.75266
20
-2.94457
11
5.78766
21
-2.94457
0
LINE
8
BLACK
6
CONTINUOUS
10
5.78766
20
-2.94457
11
5.78766
21
-2.98457
0
LINE
8
BLACK
6
CONTINUOUS
10
5.72766
20
-2.98457
11
5.69266
21
-2.98457
0
LINE
8
BLACK
6
CONTINUOUS
10
5.69266
20
-2.98457
11
5.69266
21
-2.94457
0
LINE
8
BLACK
6
CONTINUOUS
10
5.69266
20
-2.94457
11
5.72766
21
-2.94457
0
LINE
8
BLACK
6
CONTINUOUS
10
5.72766
20
-2.94457
11
5.72766
21
-2.98457
  0
ENDSEC
  0
EOF
