  0
SECTION
  2
HEADER
  9
$ANGBASE
  50
0.0
  9
$ANGDIR
  70
1
  9
$MEASUREMENT
  70
0
  0
ENDSEC
  0
SECTION
  2
TABLES
  0
TABLE
  2
LTYPE
  70
4
  0
LTYPE
  5
40F
  2
CONTINUOUS
  70
0
  3
Solid line
  72
65
  73
0
  40
0.0
  0
LTYPE
  5
410
  2
DASHDOT
 70
0
  3
Dash Dot ____ _ ____ _
 72
65
 73
4
 40
2.0
 49
1.25
 49
-0.25
 49
0.25
 49
-0.25
  0
LTYPE
  5
411
  2
DASHED
 70
0
  3
Dashed __ __ __ __ __
 72
65
 73
2
 40
0.75
 49
0.5
 49
-0.25
  0
LTYPE
  5
43B
  2
DOTTED
 70
0
  3
Dotted .  .  .  .
 72
65
 73
2
 40
0.2
 49
0.0
 49
-0.2
  0
ENDTAB
  0
TABLE
  2
STYLE
  70
4
  0
STYLE
  2
KICAD
  70
0
  40
0
  41
1
  42
1
  50
0
  71
0
  3
isocp.shx
  0
STYLE
  2
KICADB
  70
0
  40
0
  41
1
  42
1
  50
0
  71
0
  3
isocp.shx
  0
STYLE
  2
KICADI
  70
0
  40
0
  41
1
  42
1
  50
15
  71
0
  3
isocp.shx
  0
STYLE
  2
KICADBI
  70
0
  40
0
  41
1
  42
1
  50
15
  71
0
  3
isocp.shx
  0
ENDTAB
  0
TABLE
  2
LAYER
  70
1
  0
LAYER
  2
BLACK
  70
0
  62
7
  6
CONTINUOUS
  0
ENDTAB
  0
ENDSEC
  0
SECTION
  2
ENTITIES
0
LINE
8
BLACK
6
CONTINUOUS
10
6.05906
20
-3.85827
11
6.01969
21
-3.85827
0
LINE
8
BLACK
6
CONTINUOUS
10
6.01969
20
-3.85827
11
6.01969
21
-3.82283
0
LINE
8
BLACK
6
CONTINUOUS
10
6.01969
20
-3.82283
11
6.05906
21
-3.82283
0
LINE
8
BLACK
6
CONTINUOUS
10
6.05906
20
-3.82283
11
6.05906
21
-3.85827
0
LINE
8
BLACK
6
CONTINUOUS
10
5.99606
20
-3.85827
11
5.95669
21
-3.85827
0
LINE
8
BLACK
6
CONTINUOUS
10
5.95669
20
-3.85827
11
5.95669
21
-3.82283
0
LINE
8
BLACK
6
CONTINUOUS
10
5.95669
20
-3.82283
11
5.99606
21
-3.82283
0
LINE
8
BLACK
6
CONTINUOUS
10
5.99606
20
-3.82283
11
5.99606
21
-3.85827
0
LINE
8
BLACK
6
CONTINUOUS
10
5.92126
20
-3.85827
11
5.88189
21
-3.85827
0
LINE
8
BLACK
6
CONTINUOUS
10
5.88189
20
-3.85827
11
5.88189
21
-3.82283
0
LINE
8
BLACK
6
CONTINUOUS
10
5.88189
20
-3.82283
11
5.92126
21
-3.82283
0
LINE
8
BLACK
6
CONTINUOUS
10
5.92126
20
-3.82283
11
5.92126
21
-3.85827
0
LINE
8
BLACK
6
CONTINUOUS
10
5.85827
20
-3.85827
11
5.8189
21
-3.85827
0
LINE
8
BLACK
6
CONTINUOUS
10
5.8189
20
-3.85827
11
5.8189
21
-3.82283
0
LINE
8
BLACK
6
CONTINUOUS
10
5.8189
20
-3.82283
11
5.85827
21
-3.82283
0
LINE
8
BLACK
6
CONTINUOUS
10
5.85827
20
-3.82283
11
5.85827
21
-3.85827
0
LINE
8
BLACK
6
CONTINUOUS
10
6.38189
20
-3.85433
11
6.34252
21
-3.85433
0
LINE
8
BLACK
6
CONTINUOUS
10
6.34252
20
-3.85433
11
6.34252
21
-3.8189
0
LINE
8
BLACK
6
CONTINUOUS
10
6.34252
20
-3.8189
11
6.38189
21
-3.8189
0
LINE
8
BLACK
6
CONTINUOUS
10
6.38189
20
-3.8189
11
6.38189
21
-3.85433
0
LINE
8
BLACK
6
CONTINUOUS
10
6.51181
20
-3.83071
11
6.47638
21
-3.83071
0
LINE
8
BLACK
6
CONTINUOUS
10
6.47638
20
-3.83071
11
6.47638
21
-3.79134
0
LINE
8
BLACK
6
CONTINUOUS
10
6.47638
20
-3.79134
11
6.51181
21
-3.79134
0
LINE
8
BLACK
6
CONTINUOUS
10
6.51181
20
-3.79134
11
6.51181
21
-3.83071
0
LINE
8
BLACK
6
CONTINUOUS
10
6.45276
20
-3.83071
11
6.41732
21
-3.83071
0
LINE
8
BLACK
6
CONTINUOUS
10
6.41732
20
-3.83071
11
6.41732
21
-3.79134
0
LINE
8
BLACK
6
CONTINUOUS
10
6.41732
20
-3.79134
11
6.45276
21
-3.79134
0
LINE
8
BLACK
6
CONTINUOUS
10
6.45276
20
-3.79134
11
6.45276
21
-3.83071
0
LINE
8
BLACK
6
CONTINUOUS
10
6.20241
20
-3.81678
11
6.16641
21
-3.81678
0
LINE
8
BLACK
6
CONTINUOUS
10
6.16641
20
-3.81678
11
6.16641
21
-3.78078
0
LINE
8
BLACK
6
CONTINUOUS
10
6.16641
20
-3.78078
11
6.20241
21
-3.78078
0
LINE
8
BLACK
6
CONTINUOUS
10
6.20241
20
-3.78078
11
6.20241
21
-3.81678
0
LINE
8
BLACK
6
CONTINUOUS
10
6.1378
20
-3.81102
11
6.09843
21
-3.81102
0
LINE
8
BLACK
6
CONTINUOUS
10
6.09843
20
-3.81102
11
6.09843
21
-3.77559
0
LINE
8
BLACK
6
CONTINUOUS
10
6.09843
20
-3.77559
11
6.1378
21
-3.77559
0
LINE
8
BLACK
6
CONTINUOUS
10
6.1378
20
-3.77559
11
6.1378
21
-3.81102
0
LINE
8
BLACK
6
CONTINUOUS
10
6.05906
20
-3.79921
11
6.01969
21
-3.79921
0
LINE
8
BLACK
6
CONTINUOUS
10
6.01969
20
-3.79921
11
6.01969
21
-3.76378
0
LINE
8
BLACK
6
CONTINUOUS
10
6.01969
20
-3.76378
11
6.05906
21
-3.76378
0
LINE
8
BLACK
6
CONTINUOUS
10
6.05906
20
-3.76378
11
6.05906
21
-3.79921
0
LINE
8
BLACK
6
CONTINUOUS
10
5.99606
20
-3.79921
11
5.95669
21
-3.79921
0
LINE
8
BLACK
6
CONTINUOUS
10
5.95669
20
-3.79921
11
5.95669
21
-3.76378
0
LINE
8
BLACK
6
CONTINUOUS
10
5.95669
20
-3.76378
11
5.99606
21
-3.76378
0
LINE
8
BLACK
6
CONTINUOUS
10
5.99606
20
-3.76378
11
5.99606
21
-3.79921
0
LINE
8
BLACK
6
CONTINUOUS
10
5.92126
20
-3.79921
11
5.88189
21
-3.79921
0
LINE
8
BLACK
6
CONTINUOUS
10
5.88189
20
-3.79921
11
5.88189
21
-3.76378
0
LINE
8
BLACK
6
CONTINUOUS
10
5.88189
20
-3.76378
11
5.92126
21
-3.76378
0
LINE
8
BLACK
6
CONTINUOUS
10
5.92126
20
-3.76378
11
5.92126
21
-3.79921
0
LINE
8
BLACK
6
CONTINUOUS
10
5.85827
20
-3.79921
11
5.8189
21
-3.79921
0
LINE
8
BLACK
6
CONTINUOUS
10
5.8189
20
-3.79921
11
5.8189
21
-3.76378
0
LINE
8
BLACK
6
CONTINUOUS
10
5.8189
20
-3.76378
11
5.85827
21
-3.76378
0
LINE
8
BLACK
6
CONTINUOUS
10
5.85827
20
-3.76378
11
5.85827
21
-3.79921
0
LINE
8
BLACK
6
CONTINUOUS
10
6.38189
20
-3.79528
11
6.34252
21
-3.79528
0
LINE
8
BLACK
6
CONTINUOUS
10
6.34252
20
-3.79528
11
6.34252
21
-3.75984
0
LINE
8
BLACK
6
CONTINUOUS
10
6.34252
20
-3.75984
11
6.38189
21
-3.75984
0
LINE
8
BLACK
6
CONTINUOUS
10
6.38189
20
-3.75984
11
6.38189
21
-3.79528
0
LINE
8
BLACK
6
CONTINUOUS
10
6.28241
20
-3.78178
11
6.24641
21
-3.78178
0
LINE
8
BLACK
6
CONTINUOUS
10
6.24641
20
-3.78178
11
6.24641
21
-3.74578
0
LINE
8
BLACK
6
CONTINUOUS
10
6.24641
20
-3.74578
11
6.28241
21
-3.74578
0
LINE
8
BLACK
6
CONTINUOUS
10
6.28241
20
-3.74578
11
6.28241
21
-3.78178
0
LINE
8
BLACK
6
CONTINUOUS
10
6.1378
20
-3.75197
11
6.09843
21
-3.75197
0
LINE
8
BLACK
6
CONTINUOUS
10
6.09843
20
-3.75197
11
6.09843
21
-3.71654
0
LINE
8
BLACK
6
CONTINUOUS
10
6.09843
20
-3.71654
11
6.1378
21
-3.71654
0
LINE
8
BLACK
6
CONTINUOUS
10
6.1378
20
-3.71654
11
6.1378
21
-3.75197
0
LINE
8
BLACK
6
CONTINUOUS
10
6.20241
20
-3.74678
11
6.16641
21
-3.74678
0
LINE
8
BLACK
6
CONTINUOUS
10
6.16641
20
-3.74678
11
6.16641
21
-3.71078
0
LINE
8
BLACK
6
CONTINUOUS
10
6.16641
20
-3.71078
11
6.20241
21
-3.71078
0
LINE
8
BLACK
6
CONTINUOUS
10
6.20241
20
-3.71078
11
6.20241
21
-3.74678
0
LINE
8
BLACK
6
CONTINUOUS
10
6.44744
20
-3.72303
11
6.44257
21
-3.72303
0
LINE
8
BLACK
6
CONTINUOUS
10
6.44257
20
-3.72303
11
6.44257
21
-3.74591
0
LINE
8
BLACK
6
CONTINUOUS
10
6.44257
20
-3.74591
11
6.40657
21
-3.74591
0
LINE
8
BLACK
6
CONTINUOUS
10
6.40657
20
-3.74591
11
6.40657
21
-3.70991
0
LINE
8
BLACK
6
CONTINUOUS
10
6.40657
20
-3.70991
11
6.42657
21
-3.70991
0
LINE
8
BLACK
6
CONTINUOUS
10
6.42657
20
-3.70991
11
6.42657
21
-3.70217
0
LINE
8
BLACK
6
CONTINUOUS
10
6.42657
20
-3.70217
11
6.44744
21
-3.70217
0
LINE
8
BLACK
6
CONTINUOUS
10
6.44744
20
-3.70217
11
6.44744
21
-3.72303
0
LINE
8
BLACK
6
CONTINUOUS
10
6.38189
20
-3.73622
11
6.34252
21
-3.73622
0
LINE
8
BLACK
6
CONTINUOUS
10
6.34252
20
-3.73622
11
6.34252
21
-3.70079
0
LINE
8
BLACK
6
CONTINUOUS
10
6.34252
20
-3.70079
11
6.38189
21
-3.70079
0
LINE
8
BLACK
6
CONTINUOUS
10
6.38189
20
-3.70079
11
6.38189
21
-3.73622
0
LINE
8
BLACK
6
CONTINUOUS
10
6.52257
20
-3.71091
11
6.48657
21
-3.71091
0
LINE
8
BLACK
6
CONTINUOUS
10
6.48657
20
-3.71091
11
6.48657
21
-3.70335
0
LINE
8
BLACK
6
CONTINUOUS
10
6.48657
20
-3.70335
11
6.48169
21
-3.70335
0
LINE
8
BLACK
6
CONTINUOUS
10
6.48169
20
-3.70335
11
6.48169
21
-3.68248
0
LINE
8
BLACK
6
CONTINUOUS
10
6.48169
20
-3.68248
11
6.48657
21
-3.68248
0
LINE
8
BLACK
6
CONTINUOUS
10
6.48657
20
-3.68248
11
6.48657
21
-3.67491
0
LINE
8
BLACK
6
CONTINUOUS
10
6.48657
20
-3.67491
11
6.52257
21
-3.67491
0
LINE
8
BLACK
6
CONTINUOUS
10
6.52257
20
-3.67491
11
6.52257
21
-3.71091
0
LINE
8
BLACK
6
CONTINUOUS
10
6.44257
20
-3.6628
11
6.44744
21
-3.6628
0
LINE
8
BLACK
6
CONTINUOUS
10
6.44744
20
-3.6628
11
6.44744
21
-3.68366
0
LINE
8
BLACK
6
CONTINUOUS
10
6.44744
20
-3.68366
11
6.42657
21
-3.68366
0
LINE
8
BLACK
6
CONTINUOUS
10
6.42657
20
-3.68366
11
6.42657
21
-3.67591
0
LINE
8
BLACK
6
CONTINUOUS
10
6.42657
20
-3.67591
11
6.40657
21
-3.67591
0
LINE
8
BLACK
6
CONTINUOUS
10
6.40657
20
-3.67591
11
6.40657
21
-3.63991
0
LINE
8
BLACK
6
CONTINUOUS
10
6.40657
20
-3.63991
11
6.44257
21
-3.63991
0
LINE
8
BLACK
6
CONTINUOUS
10
6.44257
20
-3.63991
11
6.44257
21
-3.6628
0
LINE
8
BLACK
6
CONTINUOUS
10
6.38189
20
-3.67717
11
6.34252
21
-3.67717
0
LINE
8
BLACK
6
CONTINUOUS
10
6.34252
20
-3.67717
11
6.34252
21
-3.64173
0
LINE
8
BLACK
6
CONTINUOUS
10
6.34252
20
-3.64173
11
6.38189
21
-3.64173
0
LINE
8
BLACK
6
CONTINUOUS
10
6.38189
20
-3.64173
11
6.38189
21
-3.67717
0
LINE
8
BLACK
6
CONTINUOUS
10
6.44744
20
-3.58917
11
6.44257
21
-3.58917
0
LINE
8
BLACK
6
CONTINUOUS
10
6.44257
20
-3.58917
11
6.44257
21
-3.61206
0
LINE
8
BLACK
6
CONTINUOUS
10
6.44257
20
-3.61206
11
6.40657
21
-3.61206
0
LINE
8
BLACK
6
CONTINUOUS
10
6.40657
20
-3.61206
11
6.40657
21
-3.57606
0
LINE
8
BLACK
6
CONTINUOUS
10
6.40657
20
-3.57606
11
6.42657
21
-3.57606
0
LINE
8
BLACK
6
CONTINUOUS
10
6.42657
20
-3.57606
11
6.42657
21
-3.56831
0
LINE
8
BLACK
6
CONTINUOUS
10
6.42657
20
-3.56831
11
6.44744
21
-3.56831
0
LINE
8
BLACK
6
CONTINUOUS
10
6.44744
20
-3.56831
11
6.44744
21
-3.58917
0
LINE
8
BLACK
6
CONTINUOUS
10
6.38189
20
-3.6063
11
6.34252
21
-3.6063
0
LINE
8
BLACK
6
CONTINUOUS
10
6.34252
20
-3.6063
11
6.34252
21
-3.57087
0
LINE
8
BLACK
6
CONTINUOUS
10
6.34252
20
-3.57087
11
6.38189
21
-3.57087
0
LINE
8
BLACK
6
CONTINUOUS
10
6.38189
20
-3.57087
11
6.38189
21
-3.6063
0
LINE
8
BLACK
6
CONTINUOUS
10
6.52257
20
-3.57706
11
6.48657
21
-3.57706
0
LINE
8
BLACK
6
CONTINUOUS
10
6.48657
20
-3.57706
11
6.48657
21
-3.56949
0
LINE
8
BLACK
6
CONTINUOUS
10
6.48657
20
-3.56949
11
6.48169
21
-3.56949
0
LINE
8
BLACK
6
CONTINUOUS
10
6.48169
20
-3.56949
11
6.48169
21
-3.54862
0
LINE
8
BLACK
6
CONTINUOUS
10
6.48169
20
-3.54862
11
6.48657
21
-3.54862
0
LINE
8
BLACK
6
CONTINUOUS
10
6.48657
20
-3.54862
11
6.48657
21
-3.54106
0
LINE
8
BLACK
6
CONTINUOUS
10
6.48657
20
-3.54106
11
6.52257
21
-3.54106
0
LINE
8
BLACK
6
CONTINUOUS
10
6.52257
20
-3.54106
11
6.52257
21
-3.57706
0
LINE
8
BLACK
6
CONTINUOUS
10
6.44257
20
-3.52894
11
6.44744
21
-3.52894
0
LINE
8
BLACK
6
CONTINUOUS
10
6.44744
20
-3.52894
11
6.44744
21
-3.5498
0
LINE
8
BLACK
6
CONTINUOUS
10
6.44744
20
-3.5498
11
6.42657
21
-3.5498
0
LINE
8
BLACK
6
CONTINUOUS
10
6.42657
20
-3.5498
11
6.42657
21
-3.54206
0
LINE
8
BLACK
6
CONTINUOUS
10
6.42657
20
-3.54206
11
6.40657
21
-3.54206
0
LINE
8
BLACK
6
CONTINUOUS
10
6.40657
20
-3.54206
11
6.40657
21
-3.50606
0
LINE
8
BLACK
6
CONTINUOUS
10
6.40657
20
-3.50606
11
6.44257
21
-3.50606
0
LINE
8
BLACK
6
CONTINUOUS
10
6.44257
20
-3.50606
11
6.44257
21
-3.52894
0
LINE
8
BLACK
6
CONTINUOUS
10
6.38189
20
-3.54724
11
6.34252
21
-3.54724
0
LINE
8
BLACK
6
CONTINUOUS
10
6.34252
20
-3.54724
11
6.34252
21
-3.51181
0
LINE
8
BLACK
6
CONTINUOUS
10
6.34252
20
-3.51181
11
6.38189
21
-3.51181
0
LINE
8
BLACK
6
CONTINUOUS
10
6.38189
20
-3.51181
11
6.38189
21
-3.54724
0
LINE
8
BLACK
6
CONTINUOUS
10
6.50419
20
-3.4452
11
6.46919
21
-3.4452
0
LINE
8
BLACK
6
CONTINUOUS
10
6.46919
20
-3.4452
11
6.46919
21
-3.4052
0
LINE
8
BLACK
6
CONTINUOUS
10
6.46919
20
-3.4052
11
6.50419
21
-3.4052
0
LINE
8
BLACK
6
CONTINUOUS
10
6.50419
20
-3.4052
11
6.50419
21
-3.4452
0
LINE
8
BLACK
6
CONTINUOUS
10
6.44419
20
-3.4452
11
6.40919
21
-3.4452
0
LINE
8
BLACK
6
CONTINUOUS
10
6.40919
20
-3.4452
11
6.40919
21
-3.4052
0
LINE
8
BLACK
6
CONTINUOUS
10
6.40919
20
-3.4052
11
6.44419
21
-3.4052
0
LINE
8
BLACK
6
CONTINUOUS
10
6.44419
20
-3.4052
11
6.44419
21
-3.4452
0
LINE
8
BLACK
6
CONTINUOUS
10
5.40945
20
-3.37402
11
5.37008
21
-3.37402
0
LINE
8
BLACK
6
CONTINUOUS
10
5.37008
20
-3.37402
11
5.37008
21
-3.33858
0
LINE
8
BLACK
6
CONTINUOUS
10
5.37008
20
-3.33858
11
5.40945
21
-3.33858
0
LINE
8
BLACK
6
CONTINUOUS
10
5.40945
20
-3.33858
11
5.40945
21
-3.37402
0
LINE
8
BLACK
6
CONTINUOUS
10
5.40945
20
-3.31496
11
5.37008
21
-3.31496
0
LINE
8
BLACK
6
CONTINUOUS
10
5.37008
20
-3.31496
11
5.37008
21
-3.27953
0
LINE
8
BLACK
6
CONTINUOUS
10
5.37008
20
-3.27953
11
5.40945
21
-3.27953
0
LINE
8
BLACK
6
CONTINUOUS
10
5.40945
20
-3.27953
11
5.40945
21
-3.31496
0
LINE
8
BLACK
6
CONTINUOUS
10
6.50394
20
-3.15354
11
6.4685
21
-3.15354
0
LINE
8
BLACK
6
CONTINUOUS
10
6.4685
20
-3.15354
11
6.4685
21
-3.11417
0
LINE
8
BLACK
6
CONTINUOUS
10
6.4685
20
-3.11417
11
6.50394
21
-3.11417
0
LINE
8
BLACK
6
CONTINUOUS
10
6.50394
20
-3.11417
11
6.50394
21
-3.15354
0
LINE
8
BLACK
6
CONTINUOUS
10
6.44488
20
-3.15354
11
6.40945
21
-3.15354
0
LINE
8
BLACK
6
CONTINUOUS
10
6.40945
20
-3.15354
11
6.40945
21
-3.11417
0
LINE
8
BLACK
6
CONTINUOUS
10
6.40945
20
-3.11417
11
6.44488
21
-3.11417
0
LINE
8
BLACK
6
CONTINUOUS
10
6.44488
20
-3.11417
11
6.44488
21
-3.15354
0
LINE
8
BLACK
6
CONTINUOUS
10
6.40157
20
-3.09055
11
6.36614
21
-3.09055
0
LINE
8
BLACK
6
CONTINUOUS
10
6.36614
20
-3.09055
11
6.36614
21
-3.05118
0
LINE
8
BLACK
6
CONTINUOUS
10
6.36614
20
-3.05118
11
6.40157
21
-3.05118
0
LINE
8
BLACK
6
CONTINUOUS
10
6.40157
20
-3.05118
11
6.40157
21
-3.09055
0
LINE
8
BLACK
6
CONTINUOUS
10
6.34252
20
-3.09055
11
6.30709
21
-3.09055
0
LINE
8
BLACK
6
CONTINUOUS
10
6.30709
20
-3.09055
11
6.30709
21
-3.05118
0
LINE
8
BLACK
6
CONTINUOUS
10
6.30709
20
-3.05118
11
6.34252
21
-3.05118
0
LINE
8
BLACK
6
CONTINUOUS
10
6.34252
20
-3.05118
11
6.34252
21
-3.09055
0
LINE
8
BLACK
6
CONTINUOUS
10
6.19685
20
-3.09055
11
6.16142
21
-3.09055
0
LINE
8
BLACK
6
CONTINUOUS
10
6.16142
20
-3.09055
11
6.16142
21
-3.05118
0
LINE
8
BLACK
6
CONTINUOUS
10
6.16142
20
-3.05118
11
6.19685
21
-3.05118
0
LINE
8
BLACK
6
CONTINUOUS
10
6.19685
20
-3.05118
11
6.19685
21
-3.09055
0
LINE
8
BLACK
6
CONTINUOUS
10
6.1378
20
-3.09055
11
6.10236
21
-3.09055
0
LINE
8
BLACK
6
CONTINUOUS
10
6.10236
20
-3.09055
11
6.10236
21
-3.05118
0
LINE
8
BLACK
6
CONTINUOUS
10
6.10236
20
-3.05118
11
6.1378
21
-3.05118
0
LINE
8
BLACK
6
CONTINUOUS
10
6.1378
20
-3.05118
11
6.1378
21
-3.09055
0
LINE
8
BLACK
6
CONTINUOUS
10
5.92913
20
-3.09055
11
5.8937
21
-3.09055
0
LINE
8
BLACK
6
CONTINUOUS
10
5.8937
20
-3.09055
11
5.8937
21
-3.05118
0
LINE
8
BLACK
6
CONTINUOUS
10
5.8937
20
-3.05118
11
5.92913
21
-3.05118
0
LINE
8
BLACK
6
CONTINUOUS
10
5.92913
20
-3.05118
11
5.92913
21
-3.09055
0
LINE
8
BLACK
6
CONTINUOUS
10
5.87008
20
-3.09055
11
5.83465
21
-3.09055
0
LINE
8
BLACK
6
CONTINUOUS
10
5.83465
20
-3.09055
11
5.83465
21
-3.05118
0
LINE
8
BLACK
6
CONTINUOUS
10
5.83465
20
-3.05118
11
5.87008
21
-3.05118
0
LINE
8
BLACK
6
CONTINUOUS
10
5.87008
20
-3.05118
11
5.87008
21
-3.09055
0
LINE
8
BLACK
6
CONTINUOUS
10
5.79528
20
-3.09055
11
5.75984
21
-3.09055
0
LINE
8
BLACK
6
CONTINUOUS
10
5.75984
20
-3.09055
11
5.75984
21
-3.05118
0
LINE
8
BLACK
6
CONTINUOUS
10
5.75984
20
-3.05118
11
5.79528
21
-3.05118
0
LINE
8
BLACK
6
CONTINUOUS
10
5.79528
20
-3.05118
11
5.79528
21
-3.09055
0
LINE
8
BLACK
6
CONTINUOUS
10
5.73622
20
-3.09055
11
5.70079
21
-3.09055
0
LINE
8
BLACK
6
CONTINUOUS
10
5.70079
20
-3.09055
11
5.70079
21
-3.05118
0
LINE
8
BLACK
6
CONTINUOUS
10
5.70079
20
-3.05118
11
5.73622
21
-3.05118
0
LINE
8
BLACK
6
CONTINUOUS
10
5.73622
20
-3.05118
11
5.73622
21
-3.09055
0
LINE
8
BLACK
6
CONTINUOUS
10
6.40733
20
-3.0265
11
6.37133
21
-3.0265
0
LINE
8
BLACK
6
CONTINUOUS
10
6.37133
20
-3.0265
11
6.37133
21
-2.9905
0
LINE
8
BLACK
6
CONTINUOUS
10
6.37133
20
-2.9905
11
6.40733
21
-2.9905
0
LINE
8
BLACK
6
CONTINUOUS
10
6.40733
20
-2.9905
11
6.40733
21
-3.0265
0
LINE
8
BLACK
6
CONTINUOUS
10
6.33733
20
-3.0265
11
6.30133
21
-3.0265
0
LINE
8
BLACK
6
CONTINUOUS
10
6.30133
20
-3.0265
11
6.30133
21
-2.9905
0
LINE
8
BLACK
6
CONTINUOUS
10
6.30133
20
-2.9905
11
6.33733
21
-2.9905
0
LINE
8
BLACK
6
CONTINUOUS
10
6.33733
20
-2.9905
11
6.33733
21
-3.0265
0
LINE
8
BLACK
6
CONTINUOUS
10
6.20261
20
-3.0265
11
6.16661
21
-3.0265
0
LINE
8
BLACK
6
CONTINUOUS
10
6.16661
20
-3.0265
11
6.16661
21
-2.9905
0
LINE
8
BLACK
6
CONTINUOUS
10
6.16661
20
-2.9905
11
6.20261
21
-2.9905
0
LINE
8
BLACK
6
CONTINUOUS
10
6.20261
20
-2.9905
11
6.20261
21
-3.0265
0
LINE
8
BLACK
6
CONTINUOUS
10
6.13261
20
-3.0265
11
6.09661
21
-3.0265
0
LINE
8
BLACK
6
CONTINUOUS
10
6.09661
20
-3.0265
11
6.09661
21
-2.9905
0
LINE
8
BLACK
6
CONTINUOUS
10
6.09661
20
-2.9905
11
6.13261
21
-2.9905
0
LINE
8
BLACK
6
CONTINUOUS
10
6.13261
20
-2.9905
11
6.13261
21
-3.0265
0
LINE
8
BLACK
6
CONTINUOUS
10
5.93489
20
-3.0265
11
5.89889
21
-3.0265
0
LINE
8
BLACK
6
CONTINUOUS
10
5.89889
20
-3.0265
11
5.89889
21
-2.9905
0
LINE
8
BLACK
6
CONTINUOUS
10
5.89889
20
-2.9905
11
5.93489
21
-2.9905
0
LINE
8
BLACK
6
CONTINUOUS
10
5.93489
20
-2.9905
11
5.93489
21
-3.0265
0
LINE
8
BLACK
6
CONTINUOUS
10
5.86489
20
-3.0265
11
5.82889
21
-3.0265
0
LINE
8
BLACK
6
CONTINUOUS
10
5.82889
20
-3.0265
11
5.82889
21
-2.9905
0
LINE
8
BLACK
6
CONTINUOUS
10
5.82889
20
-2.9905
11
5.86489
21
-2.9905
0
LINE
8
BLACK
6
CONTINUOUS
10
5.86489
20
-2.9905
11
5.86489
21
-3.0265
0
LINE
8
BLACK
6
CONTINUOUS
10
5.80103
20
-3.0265
11
5.76503
21
-3.0265
0
LINE
8
BLACK
6
CONTINUOUS
10
5.76503
20
-3.0265
11
5.76503
21
-2.9905
0
LINE
8
BLACK
6
CONTINUOUS
10
5.76503
20
-2.9905
11
5.80103
21
-2.9905
0
LINE
8
BLACK
6
CONTINUOUS
10
5.80103
20
-2.9905
11
5.80103
21
-3.0265
0
LINE
8
BLACK
6
CONTINUOUS
10
5.73103
20
-3.0265
11
5.69503
21
-3.0265
0
LINE
8
BLACK
6
CONTINUOUS
10
5.69503
20
-3.0265
11
5.69503
21
-2.9905
0
LINE
8
BLACK
6
CONTINUOUS
10
5.69503
20
-2.9905
11
5.73103
21
-2.9905
0
LINE
8
BLACK
6
CONTINUOUS
10
5.73103
20
-2.9905
11
5.73103
21
-3.0265
0
LINE
8
BLACK
6
CONTINUOUS
10
6.27165
20
-3.00787
11
6.23228
21
-3.00787
0
LINE
8
BLACK
6
CONTINUOUS
10
6.23228
20
-3.00787
11
6.23228
21
-2.97244
0
LINE
8
BLACK
6
CONTINUOUS
10
6.23228
20
-2.97244
11
6.27165
21
-2.97244
0
LINE
8
BLACK
6
CONTINUOUS
10
6.27165
20
-2.97244
11
6.27165
21
-3.00787
0
LINE
8
BLACK
6
CONTINUOUS
10
6.06693
20
-3.00787
11
6.02756
21
-3.00787
0
LINE
8
BLACK
6
CONTINUOUS
10
6.02756
20
-3.00787
11
6.02756
21
-2.97244
0
LINE
8
BLACK
6
CONTINUOUS
10
6.02756
20
-2.97244
11
6.06693
21
-2.97244
0
LINE
8
BLACK
6
CONTINUOUS
10
6.06693
20
-2.97244
11
6.06693
21
-3.00787
0
LINE
8
BLACK
6
CONTINUOUS
10
6.00394
20
-3.00787
11
5.96457
21
-3.00787
0
LINE
8
BLACK
6
CONTINUOUS
10
5.96457
20
-3.00787
11
5.96457
21
-2.97244
0
LINE
8
BLACK
6
CONTINUOUS
10
5.96457
20
-2.97244
11
6.00394
21
-2.97244
0
LINE
8
BLACK
6
CONTINUOUS
10
6.00394
20
-2.97244
11
6.00394
21
-3.00787
0
LINE
8
BLACK
6
CONTINUOUS
10
6.27165
20
-2.94882
11
6.23228
21
-2.94882
0
LINE
8
BLACK
6
CONTINUOUS
10
6.23228
20
-2.94882
11
6.23228
21
-2.91339
0
LINE
8
BLACK
6
CONTINUOUS
10
6.23228
20
-2.91339
11
6.27165
21
-2.91339
0
LINE
8
BLACK
6
CONTINUOUS
10
6.27165
20
-2.91339
11
6.27165
21
-2.94882
0
LINE
8
BLACK
6
CONTINUOUS
10
6.06693
20
-2.94882
11
6.02756
21
-2.94882
0
LINE
8
BLACK
6
CONTINUOUS
10
6.02756
20
-2.94882
11
6.02756
21
-2.91339
0
LINE
8
BLACK
6
CONTINUOUS
10
6.02756
20
-2.91339
11
6.06693
21
-2.91339
0
LINE
8
BLACK
6
CONTINUOUS
10
6.06693
20
-2.91339
11
6.06693
21
-2.94882
0
LINE
8
BLACK
6
CONTINUOUS
10
6.00394
20
-2.94882
11
5.96457
21
-2.94882
0
LINE
8
BLACK
6
CONTINUOUS
10
5.96457
20
-2.94882
11
5.96457
21
-2.91339
0
LINE
8
BLACK
6
CONTINUOUS
10
5.96457
20
-2.91339
11
6.00394
21
-2.91339
0
LINE
8
BLACK
6
CONTINUOUS
10
6.00394
20
-2.91339
11
6.00394
21
-2.94882
0
LINE
8
BLACK
6
CONTINUOUS
10
6.37233
20
-2.9465
11
6.33633
21
-2.9465
0
LINE
8
BLACK
6
CONTINUOUS
10
6.33633
20
-2.9465
11
6.33633
21
-2.9105
0
LINE
8
BLACK
6
CONTINUOUS
10
6.33633
20
-2.9105
11
6.37233
21
-2.9105
0
LINE
8
BLACK
6
CONTINUOUS
10
6.37233
20
-2.9105
11
6.37233
21
-2.9465
0
LINE
8
BLACK
6
CONTINUOUS
10
6.16761
20
-2.9465
11
6.13161
21
-2.9465
0
LINE
8
BLACK
6
CONTINUOUS
10
6.13161
20
-2.9465
11
6.13161
21
-2.9105
0
LINE
8
BLACK
6
CONTINUOUS
10
6.13161
20
-2.9105
11
6.16761
21
-2.9105
0
LINE
8
BLACK
6
CONTINUOUS
10
6.16761
20
-2.9105
11
6.16761
21
-2.9465
0
LINE
8
BLACK
6
CONTINUOUS
10
5.89989
20
-2.9465
11
5.86389
21
-2.9465
0
LINE
8
BLACK
6
CONTINUOUS
10
5.86389
20
-2.9465
11
5.86389
21
-2.9105
0
LINE
8
BLACK
6
CONTINUOUS
10
5.86389
20
-2.9105
11
5.89989
21
-2.9105
0
LINE
8
BLACK
6
CONTINUOUS
10
5.89989
20
-2.9105
11
5.89989
21
-2.9465
0
LINE
8
BLACK
6
CONTINUOUS
10
5.76603
20
-2.9465
11
5.73003
21
-2.9465
0
LINE
8
BLACK
6
CONTINUOUS
10
5.73003
20
-2.9465
11
5.73003
21
-2.9105
0
LINE
8
BLACK
6
CONTINUOUS
10
5.73003
20
-2.9105
11
5.76603
21
-2.9105
0
LINE
8
BLACK
6
CONTINUOUS
10
5.76603
20
-2.9105
11
5.76603
21
-2.9465
0
LINE
8
BLACK
6
CONTINUOUS
10
5.75197
20
-2.88189
11
5.7126
21
-2.88189
0
LINE
8
BLACK
6
CONTINUOUS
10
5.7126
20
-2.88189
11
5.7126
21
-2.84646
0
LINE
8
BLACK
6
CONTINUOUS
10
5.7126
20
-2.84646
11
5.75197
21
-2.84646
0
LINE
8
BLACK
6
CONTINUOUS
10
5.75197
20
-2.84646
11
5.75197
21
-2.88189
0
LINE
8
BLACK
6
CONTINUOUS
10
5.75197
20
-2.82283
11
5.7126
21
-2.82283
0
LINE
8
BLACK
6
CONTINUOUS
10
5.7126
20
-2.82283
11
5.7126
21
-2.7874
0
LINE
8
BLACK
6
CONTINUOUS
10
5.7126
20
-2.7874
11
5.75197
21
-2.7874
0
LINE
8
BLACK
6
CONTINUOUS
10
5.75197
20
-2.7874
11
5.75197
21
-2.82283
  0
ENDSEC
  0
EOF
